NamdhinggoSIL-Regular.ufo
<glyph name="exclam" format="2">
  <advance width="492"/>
  <unicode hex="0021"/>
  <outline>
    <contour>
      <point x="293" y="1188" type="line" name="hr01"/>
      <point x="250" y="1172"/>
      <point x="204" y="1148"/>
      <point x="156" y="1116" type="curve"/>
      <point x="198" y="326" type="line"/>
      <point x="223" y="309" type="line"/>
      <point x="246" y="316"/>
      <point x="267" y="328"/>
      <point x="288" y="345" type="curve"/>
      <point x="330" y="1166" type="line"/>
    </contour>
    <contour>
      <point x="347" y="108" type="curve" smooth="yes" name="hr02"/>
      <point x="347" y="174"/>
      <point x="318" y="207"/>
      <point x="259" y="207" type="curve" smooth="yes"/>
      <point x="225" y="207"/>
      <point x="196" y="193"/>
      <point x="172" y="165" type="curve" smooth="yes"/>
      <point x="148" y="137"/>
      <point x="136" y="103"/>
      <point x="136" y="63" type="curve" smooth="yes"/>
      <point x="136" y="-2"/>
      <point x="166" y="-35"/>
      <point x="225" y="-35" type="curve" smooth="yes"/>
      <point x="259" y="-35"/>
      <point x="288" y="-21"/>
      <point x="311" y="6" type="curve" smooth="yes"/>
      <point x="335" y="34"/>
      <point x="347" y="68"/>
    </contour>
  </outline>
</glyph>
<glyph name="quotedbl" format="2">
  <advance width="726"/>
  <unicode hex="0022"/>
  <outline>
    <contour>
      <point x="569" y="1190" type="line"/>
      <point x="522" y="1180"/>
      <point x="478" y="1164"/>
      <point x="437" y="1143" type="curve"/>
      <point x="483" y="720" type="line"/>
      <point x="518" y="720"/>
      <point x="547" y="726"/>
      <point x="569" y="738" type="curve"/>
      <point x="606" y="1171" type="line"/>
    </contour>
    <contour>
      <point x="253" y="1190" type="line"/>
      <point x="206" y="1180"/>
      <point x="162" y="1164"/>
      <point x="120" y="1143" type="curve"/>
      <point x="167" y="720" type="line"/>
      <point x="202" y="720"/>
      <point x="230" y="726"/>
      <point x="253" y="738" type="curve"/>
      <point x="290" y="1171" type="line"/>
    </contour>
  </outline>
</glyph>
<glyph name="percent" format="2">
  <advance width="1205"/>
  <unicode hex="0025"/>
  <outline>
    <contour>
      <point x="100" y="690" type="curve" smooth="yes" name="hr01"/>
      <point x="100" y="585"/>
      <point x="162" y="513"/>
      <point x="302" y="513" type="curve" smooth="yes"/>
      <point x="411" y="513"/>
      <point x="595" y="665"/>
      <point x="595" y="790" type="curve" smooth="yes"/>
      <point x="595" y="923"/>
      <point x="541" y="995"/>
      <point x="405" y="995" type="curve" smooth="yes"/>
      <point x="284" y="995"/>
      <point x="100" y="823"/>
    </contour>
    <contour>
      <point x="245" y="765" type="curve" smooth="yes"/>
      <point x="245" y="830"/>
      <point x="285" y="876"/>
      <point x="346" y="876" type="curve" smooth="yes"/>
      <point x="406" y="876"/>
      <point x="452" y="819"/>
      <point x="452" y="754" type="curve" smooth="yes"/>
      <point x="452" y="688"/>
      <point x="406" y="640"/>
      <point x="346" y="640" type="curve" smooth="yes"/>
      <point x="285" y="640"/>
      <point x="245" y="700"/>
    </contour>
    <contour>
      <point x="204" y="-12" type="curve"/>
      <point x="222" y="-34" type="line"/>
      <point x="277" y="-20"/>
      <point x="332" y="-1"/>
      <point x="369" y="19" type="curve"/>
      <point x="578" y="332"/>
      <point x="808" y="680"/>
      <point x="1009" y="966" type="curve"/>
      <point x="984" y="1000" type="line" name="hr02"/>
      <point x="931" y="974"/>
      <point x="866" y="946"/>
      <point x="830" y="926" type="curve"/>
      <point x="645" y="631"/>
      <point x="407" y="275"/>
    </contour>
    <contour>
      <point x="610" y="143" type="curve" smooth="yes"/>
      <point x="610" y="38"/>
      <point x="672" y="-34"/>
      <point x="812" y="-34" type="curve" smooth="yes"/>
      <point x="921" y="-34"/>
      <point x="1105" y="118"/>
      <point x="1105" y="243" type="curve" smooth="yes"/>
      <point x="1105" y="376"/>
      <point x="1051" y="448"/>
      <point x="915" y="448" type="curve" smooth="yes"/>
      <point x="794" y="448"/>
      <point x="610" y="276"/>
    </contour>
    <contour>
      <point x="755" y="218" type="curve" smooth="yes"/>
      <point x="755" y="283"/>
      <point x="795" y="329"/>
      <point x="856" y="329" type="curve" smooth="yes"/>
      <point x="916" y="329"/>
      <point x="962" y="272"/>
      <point x="962" y="207" type="curve" smooth="yes"/>
      <point x="962" y="141"/>
      <point x="916" y="93"/>
      <point x="856" y="93" type="curve" smooth="yes"/>
      <point x="795" y="93"/>
      <point x="755" y="153"/>
    </contour>
  </outline>
</glyph>
<glyph name="quotesingle" format="2">
  <advance width="410"/>
  <unicode hex="0027"/>
  <outline>
    <contour>
      <point x="253" y="1190" type="line"/>
      <point x="206" y="1180"/>
      <point x="162" y="1164"/>
      <point x="120" y="1143" type="curve"/>
      <point x="167" y="720" type="line"/>
      <point x="202" y="720"/>
      <point x="230" y="726"/>
      <point x="253" y="738" type="curve"/>
      <point x="290" y="1171" type="line"/>
    </contour>
  </outline>
</glyph>
<glyph name="parenright" format="2">
  <advance width="574"/>
  <unicode hex="0029"/>
  <outline>
    <contour>
      <point x="36" y="-316" type="curve" name="hr00"/>
      <point x="64" y="-357" type="line"/>
      <point x="193" y="-262"/>
      <point x="293" y="-138"/>
      <point x="364" y="16" type="curve"/>
      <point x="431" y="165"/>
      <point x="465" y="338"/>
      <point x="465" y="534" type="curve" smooth="yes"/>
      <point x="465" y="732"/>
      <point x="428" y="913"/>
      <point x="355" y="1074" type="curve" smooth="yes"/>
      <point x="282" y="1236"/>
      <point x="185" y="1349"/>
      <point x="64" y="1413" type="curve"/>
      <point x="36" y="1373" type="line"/>
      <point x="116" y="1304"/>
      <point x="183" y="1200"/>
      <point x="233" y="1062" type="curve" smooth="yes"/>
      <point x="289" y="911"/>
      <point x="316" y="745"/>
      <point x="316" y="561" type="curve" smooth="yes"/>
      <point x="316" y="383"/>
      <point x="293" y="220"/>
      <point x="244" y="72" type="curve" smooth="yes"/>
      <point x="194" y="-79"/>
      <point x="124" y="-209"/>
    </contour>
  </outline>
</glyph>
<glyph name="plus" format="2">
  <advance width="742"/>
  <unicode hex="002B"/>
  <outline>
    <contour>
      <point x="421" y="446" type="line" name="hr00"/>
      <point x="660" y="446" type="line"/>
      <point x="672" y="472"/>
      <point x="681" y="498"/>
      <point x="687" y="524" type="curve"/>
      <point x="666" y="546" type="line"/>
      <point x="421" y="546" type="line"/>
      <point x="421" y="791" type="line"/>
      <point x="399" y="812" type="line"/>
      <point x="372" y="806"/>
      <point x="346" y="797"/>
      <point x="321" y="786" type="curve"/>
      <point x="321" y="546" type="line"/>
      <point x="83" y="546" type="line"/>
      <point x="70" y="520"/>
      <point x="60" y="494"/>
      <point x="55" y="468" type="curve"/>
      <point x="75" y="446" type="line"/>
      <point x="321" y="446" type="line"/>
      <point x="321" y="201" type="line"/>
      <point x="343" y="180" type="line"/>
      <point x="368" y="186"/>
      <point x="394" y="195"/>
      <point x="421" y="207" type="curve"/>
    </contour>
  </outline>
</glyph>
<glyph name="hyphen" format="2">
  <advance width="763"/>
  <unicode hex="002D"/>
  <outline>
    <contour>
      <point x="120" y="532" type="line" name="hr00"/>
      <point x="91" y="512"/>
      <point x="54" y="473"/>
      <point x="31" y="444" type="curve"/>
      <point x="61" y="408" type="line"/>
      <point x="614" y="408" type="line"/>
      <point x="663" y="433"/>
      <point x="687" y="455"/>
      <point x="723" y="492" type="curve"/>
      <point x="697" y="532" type="line"/>
    </contour>
  </outline>
</glyph>
<glyph name="slash" format="2">
  <advance width="848"/>
  <unicode hex="002F"/>
  <outline>
    <contour>
      <point x="771" y="1413" type="line" name="hr00"/>
      <point x="726" y="1401"/>
      <point x="690" y="1386"/>
      <point x="662" y="1369" type="curve"/>
      <point x="44" y="-275" type="line"/>
      <point x="75" y="-295" type="line"/>
      <point x="133" y="-278"/>
      <point x="170" y="-263"/>
      <point x="185" y="-250" type="curve"/>
      <point x="804" y="1393" type="line"/>
    </contour>
  </outline>
</glyph>
<glyph name="zero" format="2">
  <advance width="961"/>
  <unicode hex="0030"/>
  <outline>
    <contour>
      <point x="885" y="602" type="curve" smooth="yes" name="hr00"/>
      <point x="885" y="950"/>
      <point x="754" y="1235"/>
      <point x="500" y="1235" type="curve" smooth="yes"/>
      <point x="248" y="1235"/>
      <point x="76" y="946"/>
      <point x="76" y="602" type="curve" smooth="yes"/>
      <point x="76" y="258"/>
      <point x="207" y="-30"/>
      <point x="461" y="-30" type="curve" smooth="yes"/>
      <point x="715" y="-30"/>
      <point x="885" y="258"/>
    </contour>
    <contour>
      <point x="721" y="565" type="curve" smooth="yes"/>
      <point x="721" y="227"/>
      <point x="639" y="85"/>
      <point x="500" y="85" type="curve" smooth="yes"/>
      <point x="352" y="85"/>
      <point x="240" y="279"/>
      <point x="240" y="645" type="curve" smooth="yes"/>
      <point x="240" y="979"/>
      <point x="324" y="1120"/>
      <point x="461" y="1120" type="curve" smooth="yes"/>
      <point x="596" y="1120"/>
      <point x="721" y="930"/>
    </contour>
  </outline>
</glyph>
<glyph name="two" format="2">
  <advance width="961"/>
  <unicode hex="0032"/>
  <outline>
    <contour>
      <point x="836" y="287" type="line" name="hr00"/>
      <point x="786" y="299" type="line"/>
      <point x="786" y="299"/>
      <point x="774" y="121"/>
      <point x="684" y="121" type="curve" smooth="yes"/>
      <point x="266" y="121" type="line"/>
      <point x="676" y="602"/>
      <point x="821" y="774"/>
      <point x="821" y="952" type="curve" smooth="yes"/>
      <point x="821" y="1147"/>
      <point x="696" y="1235"/>
      <point x="535" y="1235" type="curve" smooth="yes"/>
      <point x="330" y="1235"/>
      <point x="125" y="1053"/>
      <point x="125" y="915" type="curve"/>
      <point x="152" y="885" type="line"/>
      <point x="213" y="891"/>
      <point x="236" y="909"/>
      <point x="281" y="934" type="curve"/>
      <point x="281" y="1028"/>
      <point x="358" y="1141"/>
      <point x="467" y="1141" type="curve" smooth="yes"/>
      <point x="612" y="1141"/>
      <point x="668" y="1047"/>
      <point x="668" y="924" type="curve" smooth="yes"/>
      <point x="668" y="772"/>
      <point x="573" y="625"/>
      <point x="98" y="74" type="curve"/>
      <point x="127" y="-0" type="line"/>
      <point x="821" y="-0" type="line"/>
    </contour>
  </outline>
</glyph>
<glyph name="three" format="2">
  <advance width="961"/>
  <unicode hex="0033"/>
  <outline>
    <contour>
      <point x="825" y="381" type="curve" smooth="yes" name="hr01"/>
      <point x="825" y="543"/>
      <point x="707" y="680"/>
      <point x="555" y="698" type="curve"/>
      <point x="686" y="756"/>
      <point x="766" y="858"/>
      <point x="766" y="958" type="curve" smooth="yes" name="hr02"/>
      <point x="766" y="1094"/>
      <point x="682" y="1235"/>
      <point x="483" y="1235" type="curve" smooth="yes"/>
      <point x="281" y="1235"/>
      <point x="104" y="1077"/>
      <point x="104" y="965" type="curve"/>
      <point x="131" y="934" type="line"/>
      <point x="188" y="938"/>
      <point x="225" y="950"/>
      <point x="270" y="973" type="curve"/>
      <point x="254" y="1063"/>
      <point x="319" y="1141"/>
      <point x="426" y="1141" type="curve" smooth="yes"/>
      <point x="553" y="1141"/>
      <point x="608" y="1032"/>
      <point x="608" y="940" type="curve" smooth="yes"/>
      <point x="608" y="858"/>
      <point x="573" y="743"/>
      <point x="328" y="676" type="curve"/>
      <point x="342" y="616" type="line"/>
      <point x="383" y="623"/>
      <point x="373" y="623"/>
      <point x="410" y="623" type="curve" smooth="yes"/>
      <point x="528" y="623"/>
      <point x="666" y="549"/>
      <point x="666" y="348" type="curve" smooth="yes" name="hr03"/>
      <point x="666" y="178"/>
      <point x="555" y="72"/>
      <point x="393" y="72" type="curve" smooth="yes"/>
      <point x="293" y="72"/>
      <point x="223" y="96"/>
      <point x="102" y="186" type="curve"/>
      <point x="68" y="119" type="line"/>
      <point x="188" y="4"/>
      <point x="301" y="-30"/>
      <point x="406" y="-30" type="curve" smooth="yes"/>
      <point x="680" y="-30"/>
      <point x="825" y="156"/>
    </contour>
  </outline>
</glyph>
<glyph name="five" format="2">
  <advance width="961"/>
  <unicode hex="0035"/>
  <outline>
    <contour>
      <point x="836" y="410" type="curve" smooth="yes" name="hr01"/>
      <point x="836" y="606"/>
      <point x="705" y="780"/>
      <point x="463" y="780" type="curve" smooth="yes"/>
      <point x="395" y="780"/>
      <point x="317" y="770"/>
      <point x="264" y="754" type="curve"/>
      <point x="276" y="813"/>
      <point x="303" y="997"/>
      <point x="307" y="1075" type="curve"/>
      <point x="694" y="1075" type="line"/>
      <point x="725" y="1098"/>
      <point x="776" y="1151"/>
      <point x="805" y="1194" type="curve"/>
      <point x="776" y="1223" type="line" name="hr02"/>
      <point x="776" y="1223"/>
      <point x="731" y="1204"/>
      <point x="655" y="1204" type="curve" smooth="yes" name="hr03"/>
      <point x="219" y="1204" type="line"/>
      <point x="211" y="1063"/>
      <point x="162" y="768"/>
      <point x="137" y="623" type="curve"/>
      <point x="184" y="590" type="line"/>
      <point x="254" y="643"/>
      <point x="346" y="670"/>
      <point x="403" y="670" type="curve" smooth="yes"/>
      <point x="590" y="670"/>
      <point x="676" y="549"/>
      <point x="676" y="367" type="curve" smooth="yes"/>
      <point x="676" y="215"/>
      <point x="592" y="72"/>
      <point x="418" y="72" type="curve" smooth="yes"/>
      <point x="342" y="72"/>
      <point x="254" y="88"/>
      <point x="113" y="186" type="curve"/>
      <point x="78" y="119" type="line"/>
      <point x="193" y="12"/>
      <point x="317" y="-30"/>
      <point x="440" y="-30" type="curve" smooth="yes"/>
      <point x="692" y="-30"/>
      <point x="836" y="178"/>
    </contour>
  </outline>
</glyph>
<glyph name="six" format="2">
  <advance width="961"/>
  <unicode hex="0036"/>
  <outline>
    <contour>
      <point x="881" y="412" type="curve" smooth="yes" name="hr00"/>
      <point x="881" y="631"/>
      <point x="756" y="770"/>
      <point x="541" y="770" type="curve" smooth="yes"/>
      <point x="479" y="770"/>
      <point x="373" y="741"/>
      <point x="279" y="650" type="curve"/>
      <point x="320" y="888"/>
      <point x="492" y="1117"/>
      <point x="807" y="1190" type="curve"/>
      <point x="788" y="1249" type="line"/>
      <point x="324" y="1182"/>
      <point x="111" y="850"/>
      <point x="111" y="473" type="curve" smooth="yes"/>
      <point x="111" y="172"/>
      <point x="287" y="-30"/>
      <point x="506" y="-30" type="curve" smooth="yes"/>
      <point x="752" y="-30"/>
      <point x="881" y="225"/>
    </contour>
    <contour>
      <point x="500" y="659" type="curve" smooth="yes"/>
      <point x="598" y="659"/>
      <point x="731" y="598"/>
      <point x="731" y="348" type="curve" smooth="yes"/>
      <point x="731" y="225"/>
      <point x="688" y="76"/>
      <point x="545" y="76" type="curve" smooth="yes"/>
      <point x="379" y="76"/>
      <point x="270" y="220"/>
      <point x="270" y="536" type="curve"/>
      <point x="344" y="625"/>
      <point x="432" y="659"/>
    </contour>
  </outline>
</glyph>
<glyph name="eight" format="2">
  <advance width="961"/>
  <unicode hex="0038"/>
  <outline>
    <contour>
      <point x="864" y="352" type="curve" smooth="yes"/>
      <point x="864" y="536"/>
      <point x="744" y="624"/>
      <point x="612" y="688" type="curve"/>
      <point x="730" y="771"/>
      <point x="815" y="858"/>
      <point x="815" y="969" type="curve" smooth="yes"/>
      <point x="815" y="1124"/>
      <point x="702" y="1235"/>
      <point x="502" y="1235" type="curve" smooth="yes"/>
      <point x="301" y="1235"/>
      <point x="145" y="1100"/>
      <point x="145" y="915" type="curve" smooth="yes"/>
      <point x="145" y="766"/>
      <point x="243" y="698"/>
      <point x="357" y="644" type="curve"/>
      <point x="198" y="555"/>
      <point x="94" y="430"/>
      <point x="94" y="285" type="curve" smooth="yes"/>
      <point x="94" y="121"/>
      <point x="223" y="-30"/>
      <point x="451" y="-30" type="curve" smooth="yes"/>
      <point x="678" y="-30"/>
      <point x="864" y="145"/>
    </contour>
    <contour>
      <point x="707" y="309" type="curve" smooth="yes"/>
      <point x="707" y="193"/>
      <point x="647" y="70"/>
      <point x="500" y="70" type="curve" smooth="yes"/>
      <point x="348" y="70"/>
      <point x="254" y="176"/>
      <point x="254" y="315" type="curve" smooth="yes"/>
      <point x="254" y="436"/>
      <point x="307" y="517"/>
      <point x="434" y="610" type="curve"/>
      <point x="572" y="549"/>
      <point x="707" y="486"/>
    </contour>
    <contour>
      <point x="274" y="950" type="curve" smooth="yes"/>
      <point x="274" y="1040"/>
      <point x="332" y="1141"/>
      <point x="451" y="1141" type="curve" smooth="yes"/>
      <point x="582" y="1141"/>
      <point x="668" y="1077"/>
      <point x="668" y="938" type="curve" smooth="yes"/>
      <point x="668" y="867"/>
      <point x="630" y="794"/>
      <point x="532" y="724" type="curve"/>
      <point x="398" y="783"/>
      <point x="274" y="832"/>
    </contour>
  </outline>
</glyph>
<glyph name="less" format="2">
  <advance width="795"/>
  <unicode hex="003C"/>
  <outline>
    <contour>
      <point x="726" y="317" type="line" name="hr00"/>
      <point x="227" y="502" type="line"/>
      <point x="713" y="684" type="line"/>
      <point x="722" y="703"/>
      <point x="731" y="732"/>
      <point x="740" y="772" type="curve"/>
      <point x="719" y="794" type="line"/>
      <point x="83" y="556" type="line"/>
      <point x="73" y="535"/>
      <point x="64" y="505"/>
      <point x="55" y="468" type="curve"/>
      <point x="75" y="446" type="line"/>
      <point x="666" y="226" type="line"/>
      <point x="703" y="253"/>
      <point x="727" y="272"/>
      <point x="740" y="283" type="curve"/>
    </contour>
  </outline>
</glyph>
<glyph name="greater" format="2">
  <advance width="795"/>
  <unicode hex="003E"/>
  <outline>
    <contour>
      <point x="720" y="573" type="line" name="hr00"/>
      <point x="129" y="794" type="line"/>
      <point x="91" y="765"/>
      <point x="66" y="746"/>
      <point x="55" y="735" type="curve"/>
      <point x="69" y="702" type="line"/>
      <point x="568" y="516" type="line"/>
      <point x="82" y="335" type="line"/>
      <point x="73" y="316"/>
      <point x="64" y="287"/>
      <point x="55" y="248" type="curve"/>
      <point x="76" y="226" type="line"/>
      <point x="712" y="464" type="line"/>
      <point x="722" y="484"/>
      <point x="731" y="513"/>
      <point x="740" y="551" type="curve"/>
    </contour>
  </outline>
</glyph>
<glyph name="question" format="2">
  <advance width="782"/>
  <unicode hex="003F"/>
  <outline>
    <contour>
      <point x="712" y="969" type="curve" smooth="yes" name="hr00"/>
      <point x="712" y="1040"/>
      <point x="689" y="1100"/>
      <point x="642" y="1150" type="curve" smooth="yes"/>
      <point x="594" y="1202"/>
      <point x="528" y="1228"/>
      <point x="443" y="1228" type="curve" smooth="yes"/>
      <point x="342" y="1228"/>
      <point x="255" y="1200"/>
      <point x="182" y="1145" type="curve" smooth="yes"/>
      <point x="108" y="1089"/>
      <point x="71" y="1017"/>
      <point x="71" y="930" type="curve" smooth="yes"/>
      <point x="71" y="914"/>
      <point x="71" y="904"/>
      <point x="72" y="899" type="curve"/>
      <point x="95" y="872" type="line"/>
      <point x="148" y="877"/>
      <point x="202" y="889"/>
      <point x="237" y="906" type="curve"/>
      <point x="229" y="925"/>
      <point x="225" y="942"/>
      <point x="225" y="957" type="curve" smooth="yes"/>
      <point x="225" y="1010"/>
      <point x="231" y="1054"/>
      <point x="263" y="1089" type="curve" smooth="yes"/>
      <point x="295" y="1125"/>
      <point x="332" y="1143"/>
      <point x="373" y="1143" type="curve" smooth="yes"/>
      <point x="497" y="1143"/>
      <point x="555" y="1074"/>
      <point x="555" y="929" type="curve" smooth="yes"/>
      <point x="555" y="898"/>
      <point x="539" y="846"/>
      <point x="494" y="774" type="curve"/>
      <point x="453" y="712"/>
      <point x="415" y="656"/>
      <point x="373" y="607" type="curve"/>
      <point x="330" y="532"/>
      <point x="310" y="473"/>
      <point x="314" y="429" type="curve"/>
      <point x="320" y="325" type="line"/>
      <point x="343" y="307" type="line"/>
      <point x="365" y="314"/>
      <point x="387" y="326"/>
      <point x="408" y="345" type="curve"/>
      <point x="414" y="429" type="line"/>
      <point x="419" y="484"/>
      <point x="447" y="547"/>
      <point x="499" y="616" type="curve"/>
      <point x="545" y="661"/>
      <point x="591" y="712"/>
      <point x="638" y="771" type="curve"/>
      <point x="687" y="842"/>
      <point x="712" y="908"/>
    </contour>
    <contour>
      <point x="476" y="108" type="curve" smooth="yes"/>
      <point x="476" y="174"/>
      <point x="447" y="207"/>
      <point x="389" y="207" type="curve" smooth="yes"/>
      <point x="355" y="207"/>
      <point x="326" y="193"/>
      <point x="302" y="165" type="curve" smooth="yes"/>
      <point x="278" y="137"/>
      <point x="266" y="103"/>
      <point x="266" y="63" type="curve" smooth="yes"/>
      <point x="266" y="-2"/>
      <point x="295" y="-35"/>
      <point x="354" y="-35" type="curve" smooth="yes"/>
      <point x="388" y="-35"/>
      <point x="417" y="-21"/>
      <point x="440" y="6" type="curve" smooth="yes"/>
      <point x="464" y="34"/>
      <point x="476" y="68"/>
    </contour>
  </outline>
</glyph>
<glyph name="C" format="2">
  <advance width="1064"/>
  <unicode hex="0043"/>
  <outline>
    <contour>
      <point x="993" y="202" type="curve" name="hr00"/>
      <point x="983" y="213"/>
      <point x="967" y="243"/>
      <point x="952" y="252" type="curve"/>
      <point x="807" y="133"/>
      <point x="700" y="98"/>
      <point x="625" y="98" type="curve" smooth="yes"/>
      <point x="443" y="98"/>
      <point x="232" y="271"/>
      <point x="232" y="604" type="curve" smooth="yes"/>
      <point x="232" y="995"/>
      <point x="439" y="1137"/>
      <point x="575" y="1137" type="curve" smooth="yes"/>
      <point x="693" y="1137"/>
      <point x="775" y="1088"/>
      <point x="838" y="1020" type="curve"/>
      <point x="881" y="1014" type="line"/>
      <point x="907" y="1041"/>
      <point x="975" y="1123"/>
      <point x="975" y="1146" type="curve"/>
      <point x="975" y="1148"/>
      <point x="974" y="1150"/>
      <point x="973" y="1151" type="curve"/>
      <point x="908" y="1202"/>
      <point x="792" y="1246"/>
      <point x="650" y="1246" type="curve" smooth="yes"/>
      <point x="327" y="1246"/>
      <point x="62" y="978"/>
      <point x="62" y="570" type="curve" smooth="yes"/>
      <point x="62" y="198"/>
      <point x="308" y="-28"/>
      <point x="556" y="-28" type="curve" smooth="yes"/>
      <point x="691" y="-28"/>
      <point x="825" y="27"/>
    </contour>
  </outline>
</glyph>
<glyph name="E" format="2">
  <advance width="983"/>
  <unicode hex="0045"/>
  <outline>
    <contour>
      <point x="927" y="244" type="curve"/>
      <point x="879" y="261" type="line"/>
      <point x="825" y="115"/>
      <point x="785" y="92"/>
      <point x="669" y="92" type="curve" smooth="yes"/>
      <point x="544" y="92" type="line" smooth="yes"/>
      <point x="379" y="92"/>
      <point x="352" y="116"/>
      <point x="352" y="152" type="curve" smooth="yes"/>
      <point x="352" y="629" type="line"/>
      <point x="491" y="629" type="line" smooth="yes"/>
      <point x="596" y="629"/>
      <point x="638" y="614"/>
      <point x="677" y="577" type="curve"/>
      <point x="704" y="597"/>
      <point x="746" y="649"/>
      <point x="767" y="683" type="curve"/>
      <point x="758" y="692"/>
      <point x="749" y="702"/>
      <point x="741" y="712" type="curve"/>
      <point x="352" y="712" type="line"/>
      <point x="352" y="1126" type="line"/>
      <point x="698" y="1126" type="line" smooth="yes"/>
      <point x="744" y="1126"/>
      <point x="770" y="1084"/>
      <point x="775" y="968" type="curve"/>
      <point x="825" y="968" type="line"/>
      <point x="840" y="1016"/>
      <point x="862" y="1129"/>
      <point x="866" y="1193" type="curve"/>
      <point x="854" y="1200"/>
      <point x="843" y="1210"/>
      <point x="833" y="1218" type="curve"/>
      <point x="45" y="1218" type="line"/>
      <point x="45" y="1170" type="line"/>
      <point x="135" y="1152"/>
      <point x="180" y="1127"/>
      <point x="180" y="1112" type="curve" smooth="yes"/>
      <point x="180" y="105" type="line" smooth="yes"/>
      <point x="180" y="88"/>
      <point x="130" y="65"/>
      <point x="45" y="48" type="curve"/>
      <point x="45" y="0" type="line"/>
      <point x="888" y="0" type="line"/>
      <point x="899" y="37"/>
      <point x="917" y="136"/>
    </contour>
  </outline>
</glyph>
<glyph name="G" format="2">
  <advance width="1154"/>
  <unicode hex="0047"/>
  <outline>
    <contour>
      <point x="1013" y="1149" type="curve" smooth="yes"/>
      <point x="932" y="1210"/>
      <point x="798" y="1246"/>
      <point x="708" y="1246" type="curve" smooth="yes"/>
      <point x="349" y="1246"/>
      <point x="62" y="991"/>
      <point x="62" y="566" type="curve" smooth="yes"/>
      <point x="62" y="171"/>
      <point x="333" y="-28"/>
      <point x="600" y="-28" type="curve" smooth="yes"/>
      <point x="719" y="-28"/>
      <point x="827" y="-7"/>
      <point x="1013" y="146" type="curve"/>
      <point x="1012" y="146"/>
      <point x="1011" y="147"/>
      <point x="1010" y="148" type="curve"/>
      <point x="1011" y="149"/>
      <point x="1013" y="150"/>
      <point x="1013" y="150" type="curve"/>
      <point x="1013" y="465" type="line" smooth="yes"/>
      <point x="1013" y="494"/>
      <point x="1039" y="525"/>
      <point x="1110" y="542" type="curve"/>
      <point x="1110" y="590" type="line"/>
      <point x="658" y="590" type="line"/>
      <point x="658" y="542" type="line"/>
      <point x="810" y="518"/>
      <point x="850" y="493"/>
      <point x="850" y="465" type="curve" smooth="yes"/>
      <point x="850" y="141" type="line"/>
      <point x="791" y="112"/>
      <point x="718" y="96"/>
      <point x="633" y="96" type="curve" smooth="yes"/>
      <point x="432" y="96"/>
      <point x="230" y="269"/>
      <point x="230" y="618" type="curve" smooth="yes"/>
      <point x="230" y="1009"/>
      <point x="479" y="1137"/>
      <point x="585" y="1137" type="curve" smooth="yes"/>
      <point x="708" y="1137"/>
      <point x="794" y="1112"/>
      <point x="875" y="1024" type="curve"/>
      <point x="916" y="1018" type="line"/>
      <point x="946" y="1044"/>
      <point x="1016" y="1120"/>
      <point x="1016" y="1143" type="curve" smooth="yes"/>
      <point x="1016" y="1146"/>
      <point x="1015" y="1148"/>
    </contour>
  </outline>
</glyph>
<glyph name="J" format="2">
  <advance width="603"/>
  <unicode hex="004A"/>
  <outline>
    <contour>
      <point x="539" y="1170" type="curve" name="hr00"/>
      <point x="539" y="1218" type="line"/>
      <point x="50" y="1218" type="line"/>
      <point x="50" y="1170" type="line"/>
      <point x="200" y="1149"/>
      <point x="231" y="1127"/>
      <point x="231" y="1112" type="curve" smooth="yes"/>
      <point x="231" y="125" type="line" smooth="yes"/>
      <point x="231" y="-169"/>
      <point x="147" y="-234"/>
      <point x="81" y="-234" type="curve" smooth="yes"/>
      <point x="29" y="-234"/>
      <point x="-11" y="-219"/>
      <point x="-75" y="-173" type="curve"/>
      <point x="-110" y="-186"/>
      <point x="-197" y="-258"/>
      <point x="-197" y="-282" type="curve" smooth="yes"/>
      <point x="-197" y="-307"/>
      <point x="-105" y="-361"/>
      <point x="-24" y="-361" type="curve" smooth="yes"/>
      <point x="29" y="-361"/>
      <point x="128" y="-331"/>
      <point x="192" y="-281" type="curve"/>
      <point x="208" y="-271" type="line"/>
      <point x="306" y="-191"/>
      <point x="404" y="-99"/>
      <point x="404" y="193" type="curve" smooth="yes"/>
      <point x="404" y="1112" type="line" smooth="yes"/>
      <point x="404" y="1130"/>
      <point x="454" y="1152"/>
    </contour>
  </outline>
</glyph>
<glyph name="K" format="2">
  <advance width="1145"/>
  <unicode hex="004B"/>
  <outline>
    <contour>
      <point x="485" y="-0" type="line" name="hr01"/>
      <point x="485" y="48" type="line"/>
      <point x="394" y="65"/>
      <point x="352" y="90"/>
      <point x="352" y="105" type="curve" smooth="yes"/>
      <point x="352" y="608" type="line"/>
      <point x="508" y="415"/>
      <point x="664" y="221"/>
      <point x="820" y="27" type="curve" smooth="yes"/>
      <point x="844" y="-4"/>
      <point x="871" y="-13"/>
      <point x="908" y="-13" type="curve" smooth="yes" name="hr02"/>
      <point x="968" y="-13"/>
      <point x="1062" y="15"/>
      <point x="1136" y="39" type="curve"/>
      <point x="1133" y="54"/>
      <point x="1129" y="70"/>
      <point x="1127" y="86" type="curve"/>
      <point x="1110" y="85"/>
      <point x="1093" y="83"/>
      <point x="1077" y="83" type="curve" smooth="yes" name="hr03"/>
      <point x="1032" y="83"/>
      <point x="993" y="94"/>
      <point x="960" y="131" type="curve" smooth="yes"/>
      <point x="807" y="303"/>
      <point x="654" y="477"/>
      <point x="502" y="650" type="curve"/>
      <point x="916" y="1112" type="line" smooth="yes"/>
      <point x="953" y="1154"/>
      <point x="995" y="1160"/>
      <point x="1075" y="1170" type="curve"/>
      <point x="1075" y="1218" type="line"/>
      <point x="667" y="1218" type="line"/>
      <point x="667" y="1170" type="line"/>
      <point x="730" y="1165"/>
      <point x="763" y="1160"/>
      <point x="763" y="1138" type="curve" smooth="yes"/>
      <point x="763" y="1127"/>
      <point x="753" y="1110"/>
      <point x="733" y="1087" type="curve" smooth="yes"/>
      <point x="606" y="935"/>
      <point x="478" y="784"/>
      <point x="352" y="633" type="curve"/>
      <point x="352" y="1112" type="line" smooth="yes"/>
      <point x="352" y="1130"/>
      <point x="400" y="1152"/>
      <point x="485" y="1170" type="curve"/>
      <point x="485" y="1218" type="line"/>
      <point x="45" y="1218" type="line"/>
      <point x="45" y="1170" type="line"/>
      <point x="135" y="1152"/>
      <point x="180" y="1127"/>
      <point x="180" y="1112" type="curve" smooth="yes"/>
      <point x="180" y="105" type="line" smooth="yes"/>
      <point x="180" y="88"/>
      <point x="130" y="65"/>
      <point x="45" y="48" type="curve"/>
      <point x="45" y="-0" type="line"/>
    </contour>
  </outline>
</glyph>
<glyph name="M" format="2">
  <advance width="1591"/>
  <unicode hex="004D"/>
  <outline>
    <contour>
      <point x="1498" y="1170" type="curve" name="hr00"/>
      <point x="1498" y="1218" type="line"/>
      <point x="1216" y="1218" type="line" smooth="yes"/>
      <point x="1193" y="1218"/>
      <point x="1184" y="1207"/>
      <point x="1152" y="1132" type="curve" smooth="yes"/>
      <point x="1031" y="848"/>
      <point x="910" y="566"/>
      <point x="790" y="282" type="curve"/>
      <point x="664" y="566"/>
      <point x="539" y="848"/>
      <point x="414" y="1132" type="curve" smooth="yes"/>
      <point x="384" y="1199"/>
      <point x="375" y="1218"/>
      <point x="350" y="1218" type="curve" smooth="yes"/>
      <point x="64" y="1218" type="line"/>
      <point x="64" y="1170" type="line"/>
      <point x="101" y="1170"/>
      <point x="151" y="1160"/>
      <point x="198" y="1133" type="curve"/>
      <point x="189" y="105" type="line"/>
      <point x="189" y="88"/>
      <point x="140" y="65"/>
      <point x="55" y="48" type="curve"/>
      <point x="55" y="-0" type="line"/>
      <point x="440" y="-0" type="line"/>
      <point x="440" y="48" type="line"/>
      <point x="350" y="65"/>
      <point x="305" y="90"/>
      <point x="305" y="105" type="curve"/>
      <point x="313" y="978" type="line"/>
      <point x="739" y="-0" type="line"/>
      <point x="792" y="-0" type="line"/>
      <point x="1198" y="958" type="line" smooth="yes"/>
      <point x="1201" y="966"/>
      <point x="1206" y="975"/>
      <point x="1210" y="985" type="curve"/>
      <point x="1218" y="105" type="line"/>
      <point x="1218" y="88"/>
      <point x="1161" y="65"/>
      <point x="1076" y="48" type="curve"/>
      <point x="1076" y="-0" type="line"/>
      <point x="1517" y="-0" type="line"/>
      <point x="1517" y="48" type="line"/>
      <point x="1427" y="65"/>
      <point x="1383" y="90"/>
      <point x="1383" y="105" type="curve"/>
      <point x="1373" y="1138" type="line"/>
      <point x="1418" y="1158"/>
      <point x="1464" y="1170"/>
    </contour>
  </outline>
</glyph>
<glyph name="N" format="2">
  <advance width="1276"/>
  <unicode hex="004E"/>
  <outline>
    <contour>
      <point x="438" y="-0" type="line" name="hr01"/>
      <point x="438" y="48" type="line"/>
      <point x="341" y="61"/>
      <point x="304" y="90"/>
      <point x="304" y="105" type="curve" smooth="yes"/>
      <point x="304" y="937" type="line"/>
      <point x="522" y="634"/>
      <point x="740" y="332"/>
      <point x="959" y="29" type="curve" smooth="yes"/>
      <point x="977" y="4"/>
      <point x="1016" y="-19"/>
      <point x="1097" y="-28" type="curve" name="hr02"/>
      <point x="1097" y="1112" type="line" smooth="yes"/>
      <point x="1097" y="1130"/>
      <point x="1141" y="1158"/>
      <point x="1231" y="1170" type="curve"/>
      <point x="1231" y="1218" type="line"/>
      <point x="838" y="1218" type="line"/>
      <point x="838" y="1170" type="line"/>
      <point x="939" y="1156"/>
      <point x="973" y="1127"/>
      <point x="973" y="1112" type="curve" smooth="yes"/>
      <point x="973" y="282" type="line"/>
      <point x="353" y="1137" type="line" smooth="yes"/>
      <point x="306" y="1202"/>
      <point x="292" y="1218"/>
      <point x="256" y="1218" type="curve" smooth="yes"/>
      <point x="45" y="1218" type="line"/>
      <point x="45" y="1170" type="line"/>
      <point x="97" y="1162"/>
      <point x="135" y="1146"/>
      <point x="180" y="1102" type="curve"/>
      <point x="180" y="105" type="line" smooth="yes"/>
      <point x="180" y="88"/>
      <point x="137" y="59"/>
      <point x="45" y="48" type="curve"/>
      <point x="45" y="-0" type="line" name="hr03"/>
    </contour>
  </outline>
</glyph>
<glyph name="P" format="2">
  <advance width="1042"/>
  <unicode hex="0050"/>
  <outline>
    <contour>
      <point x="517" y="-0" type="line" name="hr00"/>
      <point x="517" y="48" type="line"/>
      <point x="386" y="70"/>
      <point x="352" y="90"/>
      <point x="352" y="105" type="curve" smooth="yes"/>
      <point x="352" y="1158" type="line"/>
      <point x="383" y="1159"/>
      <point x="413" y="1160"/>
      <point x="445" y="1160" type="curve" smooth="yes"/>
      <point x="631" y="1160"/>
      <point x="791" y="1075"/>
      <point x="791" y="866" type="curve" smooth="yes"/>
      <point x="791" y="689"/>
      <point x="652" y="595"/>
      <point x="529" y="595" type="curve" smooth="yes"/>
      <point x="485" y="595"/>
      <point x="436" y="600"/>
      <point x="384" y="623" type="curve"/>
      <point x="392" y="597"/>
      <point x="399" y="570"/>
      <point x="406" y="544" type="curve"/>
      <point x="448" y="525"/>
      <point x="500" y="516"/>
      <point x="557" y="516" type="curve" smooth="yes"/>
      <point x="723" y="516"/>
      <point x="961" y="640"/>
      <point x="961" y="904" type="curve" smooth="yes"/>
      <point x="961" y="1123"/>
      <point x="787" y="1246"/>
      <point x="498" y="1246" type="curve" smooth="yes"/>
      <point x="338" y="1246"/>
      <point x="173" y="1225"/>
      <point x="37" y="1190" type="curve"/>
      <point x="39" y="1167"/>
      <point x="42" y="1146"/>
      <point x="46" y="1124" type="curve"/>
      <point x="88" y="1131"/>
      <point x="133" y="1138"/>
      <point x="180" y="1144" type="curve"/>
      <point x="180" y="105" type="line" smooth="yes"/>
      <point x="180" y="88"/>
      <point x="130" y="65"/>
      <point x="45" y="48" type="curve"/>
      <point x="45" y="-0" type="line"/>
    </contour>
  </outline>
</glyph>
<glyph name="Q" format="2">
  <advance width="1189"/>
  <unicode hex="0051"/>
  <outline>
    <contour>
      <point x="1246" y="-112" type="curve" name="hr00"/>
      <point x="1215" y="-71" type="line"/>
      <point x="1141" y="-127"/>
      <point x="1110" y="-143"/>
      <point x="1079" y="-143" type="curve" smooth="yes"/>
      <point x="982" y="-143"/>
      <point x="868" y="-45"/>
      <point x="747" y="12" type="curve"/>
      <point x="956" y="107"/>
      <point x="1107" y="352"/>
      <point x="1107" y="625" type="curve" smooth="yes"/>
      <point x="1107" y="941"/>
      <point x="939" y="1246"/>
      <point x="614" y="1246" type="curve" smooth="yes"/>
      <point x="304" y="1246"/>
      <point x="62" y="943"/>
      <point x="62" y="592" type="curve" smooth="yes"/>
      <point x="62" y="255"/>
      <point x="262" y="-28"/>
      <point x="559" y="-28" type="curve" smooth="yes"/>
      <point x="572" y="-28"/>
      <point x="587" y="-27"/>
      <point x="600" y="-25" type="curve"/>
      <point x="758" y="-114"/>
      <point x="913" y="-292"/>
      <point x="1073" y="-292" type="curve" smooth="yes"/>
      <point x="1112" y="-292"/>
      <point x="1187" y="-221"/>
    </contour>
    <contour>
      <point x="937" y="601" type="curve" smooth="yes"/>
      <point x="937" y="265"/>
      <point x="796" y="90"/>
      <point x="590" y="90" type="curve" smooth="yes"/>
      <point x="396" y="90"/>
      <point x="232" y="338"/>
      <point x="232" y="625" type="curve" smooth="yes"/>
      <point x="232" y="935"/>
      <point x="362" y="1134"/>
      <point x="583" y="1134" type="curve" smooth="yes"/>
      <point x="798" y="1134"/>
      <point x="937" y="866"/>
    </contour>
  </outline>
</glyph>
<glyph name="R" format="2">
  <advance width="1116"/>
  <unicode hex="0052"/>
  <outline>
    <contour>
      <point x="485" y="-0" type="line" name="hr01"/>
      <point x="485" y="48" type="line"/>
      <point x="394" y="65"/>
      <point x="352" y="90"/>
      <point x="352" y="105" type="curve" smooth="yes"/>
      <point x="352" y="586" type="line"/>
      <point x="387" y="578"/>
      <point x="420" y="575"/>
      <point x="452" y="575" type="curve" smooth="yes"/>
      <point x="467" y="575"/>
      <point x="483" y="575"/>
      <point x="499" y="576" type="curve"/>
      <point x="594" y="398"/>
      <point x="689" y="217"/>
      <point x="785" y="39" type="curve"/>
      <point x="802" y="10"/>
      <point x="841" y="-13"/>
      <point x="877" y="-13" type="curve" smooth="yes" name="hr02"/>
      <point x="926" y="-13"/>
      <point x="1022" y="11"/>
      <point x="1104" y="39" type="curve"/>
      <point x="1100" y="54"/>
      <point x="1096" y="70"/>
      <point x="1092" y="86" type="curve"/>
      <point x="1074" y="85"/>
      <point x="1058" y="84"/>
      <point x="1043" y="84" type="curve" smooth="yes" name="hr03"/>
      <point x="990" y="84"/>
      <point x="956" y="97"/>
      <point x="927" y="140" type="curve"/>
      <point x="829" y="293"/>
      <point x="733" y="446"/>
      <point x="635" y="601" type="curve"/>
      <point x="799" y="650"/>
      <point x="908" y="769"/>
      <point x="908" y="952" type="curve" smooth="yes"/>
      <point x="908" y="1118"/>
      <point x="769" y="1246"/>
      <point x="460" y="1246" type="curve" smooth="yes"/>
      <point x="294" y="1246"/>
      <point x="154" y="1219"/>
      <point x="37" y="1190" type="curve"/>
      <point x="39" y="1167"/>
      <point x="42" y="1146"/>
      <point x="46" y="1124" type="curve"/>
      <point x="89" y="1130"/>
      <point x="134" y="1137"/>
      <point x="180" y="1143" type="curve"/>
      <point x="180" y="105" type="line" smooth="yes"/>
      <point x="180" y="88"/>
      <point x="130" y="65"/>
      <point x="45" y="48" type="curve"/>
      <point x="45" y="-0" type="line"/>
    </contour>
    <contour>
      <point x="425" y="1160" type="curve" smooth="yes"/>
      <point x="641" y="1160"/>
      <point x="739" y="1061"/>
      <point x="739" y="923" type="curve" smooth="yes"/>
      <point x="739" y="758"/>
      <point x="637" y="662"/>
      <point x="436" y="662" type="curve" smooth="yes"/>
      <point x="409" y="662"/>
      <point x="386" y="663"/>
      <point x="352" y="668" type="curve"/>
      <point x="352" y="1157" type="line"/>
      <point x="377" y="1159"/>
      <point x="401" y="1160"/>
    </contour>
  </outline>
</glyph>
<glyph name="S" format="2">
  <advance width="941"/>
  <unicode hex="0053"/>
  <outline>
    <contour>
      <point x="858" y="368" type="curve" smooth="yes" name="hr00"/>
      <point x="858" y="743"/>
      <point x="254" y="744"/>
      <point x="254" y="981" type="curve" smooth="yes"/>
      <point x="254" y="1053"/>
      <point x="313" y="1145"/>
      <point x="454" y="1145" type="curve" smooth="yes"/>
      <point x="535" y="1145"/>
      <point x="621" y="1112"/>
      <point x="685" y="1020" type="curve"/>
      <point x="698" y="1017"/>
      <point x="713" y="1014"/>
      <point x="727" y="1012" type="curve"/>
      <point x="754" y="1036"/>
      <point x="803" y="1120"/>
      <point x="803" y="1151" type="curve" smooth="yes"/>
      <point x="803" y="1154"/>
      <point x="802" y="1158"/>
      <point x="800" y="1160" type="curve" smooth="yes"/>
      <point x="754" y="1210"/>
      <point x="621" y="1246"/>
      <point x="508" y="1246" type="curve" smooth="yes"/>
      <point x="221" y="1246"/>
      <point x="117" y="1058"/>
      <point x="117" y="930" type="curve" smooth="yes"/>
      <point x="117" y="562"/>
      <point x="711" y="614"/>
      <point x="711" y="308" type="curve" smooth="yes"/>
      <point x="711" y="189"/>
      <point x="592" y="88"/>
      <point x="479" y="88" type="curve" smooth="yes"/>
      <point x="342" y="88"/>
      <point x="228" y="165"/>
      <point x="171" y="322" type="curve"/>
      <point x="123" y="327" type="line"/>
      <point x="113" y="288"/>
      <point x="108" y="224"/>
      <point x="108" y="169" type="curve" smooth="yes"/>
      <point x="108" y="115"/>
      <point x="113" y="69"/>
      <point x="121" y="64" type="curve" smooth="yes"/>
      <point x="210" y="8"/>
      <point x="344" y="-28"/>
      <point x="427" y="-28" type="curve" smooth="yes"/>
      <point x="721" y="-28"/>
      <point x="858" y="196"/>
    </contour>
  </outline>
</glyph>
<glyph name="T" format="2">
  <advance width="1092"/>
  <unicode hex="0054"/>
  <outline>
    <contour>
      <point x="775" y="-0" type="line" name="hr00"/>
      <point x="775" y="48" type="line"/>
      <point x="660" y="71"/>
      <point x="621" y="100"/>
      <point x="621" y="116" type="curve" smooth="yes"/>
      <point x="621" y="1126" type="line"/>
      <point x="883" y="1126" type="line" smooth="yes"/>
      <point x="936" y="1126"/>
      <point x="948" y="1075"/>
      <point x="972" y="959" type="curve"/>
      <point x="1022" y="959" type="line"/>
      <point x="1037" y="1038"/>
      <point x="1050" y="1129"/>
      <point x="1052" y="1193" type="curve"/>
      <point x="1042" y="1200"/>
      <point x="1031" y="1210"/>
      <point x="1022" y="1218" type="curve"/>
      <point x="40" y="1218" type="line"/>
      <point x="27" y="1152"/>
      <point x="13" y="1047"/>
      <point x="8" y="974" type="curve"/>
      <point x="23" y="967"/>
      <point x="39" y="960"/>
      <point x="55" y="954" type="curve"/>
      <point x="112" y="1101"/>
      <point x="131" y="1126"/>
      <point x="169" y="1126" type="curve" smooth="yes"/>
      <point x="448" y="1126" type="line"/>
      <point x="448" y="116" type="line" smooth="yes"/>
      <point x="448" y="98"/>
      <point x="410" y="71"/>
      <point x="294" y="48" type="curve"/>
      <point x="294" y="-0" type="line"/>
    </contour>
  </outline>
</glyph>
<glyph name="U" format="2">
  <advance width="1277"/>
  <unicode hex="0055"/>
  <outline>
    <contour>
      <point x="1219" y="1170" type="curve"/>
      <point x="1219" y="1218" type="line"/>
      <point x="817" y="1218" type="line"/>
      <point x="817" y="1170" type="line"/>
      <point x="907" y="1152"/>
      <point x="951" y="1127"/>
      <point x="951" y="1112" type="curve" smooth="yes"/>
      <point x="951" y="465" type="line" smooth="yes"/>
      <point x="951" y="270"/>
      <point x="856" y="86"/>
      <point x="678" y="86" type="curve" smooth="yes"/>
      <point x="463" y="86"/>
      <point x="352" y="226"/>
      <point x="352" y="476" type="curve" smooth="yes"/>
      <point x="352" y="1112" type="line" smooth="yes"/>
      <point x="352" y="1130"/>
      <point x="402" y="1152"/>
      <point x="487" y="1170" type="curve"/>
      <point x="487" y="1218" type="line"/>
      <point x="45" y="1218" type="line"/>
      <point x="45" y="1170" type="line"/>
      <point x="135" y="1152"/>
      <point x="180" y="1127"/>
      <point x="180" y="1112" type="curve" smooth="yes"/>
      <point x="180" y="429" type="line" smooth="yes"/>
      <point x="180" y="114"/>
      <point x="371" y="-28"/>
      <point x="637" y="-28" type="curve" smooth="yes"/>
      <point x="912" y="-28"/>
      <point x="1085" y="165"/>
      <point x="1085" y="504" type="curve" smooth="yes"/>
      <point x="1085" y="1112" type="line" smooth="yes"/>
      <point x="1085" y="1130"/>
      <point x="1135" y="1152"/>
    </contour>
  </outline>
</glyph>
<glyph name="W" format="2">
  <advance width="1689"/>
  <unicode hex="0057"/>
  <outline>
    <contour>
      <point x="1654" y="1170" type="curve"/>
      <point x="1654" y="1218" type="line"/>
      <point x="1248" y="1218" type="line"/>
      <point x="1248" y="1170" type="line"/>
      <point x="1329" y="1156"/>
      <point x="1391" y="1142"/>
      <point x="1391" y="1116" type="curve"/>
      <point x="1391" y="1114"/>
      <point x="1391" y="1113"/>
      <point x="1391" y="1112" type="curve"/>
      <point x="1332" y="826"/>
      <point x="1272" y="541"/>
      <point x="1214" y="256" type="curve"/>
      <point x="1099" y="576"/>
      <point x="985" y="897"/>
      <point x="871" y="1218" type="curve"/>
      <point x="816" y="1218" type="line"/>
      <point x="502" y="256" type="line"/>
      <point x="437" y="539"/>
      <point x="372" y="822"/>
      <point x="308" y="1104" type="curve" smooth="yes"/>
      <point x="307" y="1108"/>
      <point x="307" y="1111"/>
      <point x="307" y="1115" type="curve" smooth="yes"/>
      <point x="307" y="1138"/>
      <point x="328" y="1160"/>
      <point x="434" y="1170" type="curve"/>
      <point x="434" y="1218" type="line"/>
      <point x="17" y="1218" type="line"/>
      <point x="17" y="1170" type="line"/>
      <point x="106" y="1154"/>
      <point x="137" y="1136"/>
      <point x="145" y="1104" type="curve"/>
      <point x="229" y="727"/>
      <point x="316" y="349"/>
      <point x="402" y="-28" type="curve"/>
      <point x="453" y="-17"/>
      <point x="540" y="2"/>
      <point x="557" y="55" type="curve" smooth="yes"/>
      <point x="832" y="888" type="line"/>
      <point x="1147" y="-28" type="line"/>
      <point x="1185" y="-20"/>
      <point x="1281" y="2"/>
      <point x="1292" y="55" type="curve" smooth="yes"/>
      <point x="1513" y="1112" type="line" smooth="yes"/>
      <point x="1517" y="1132"/>
      <point x="1543" y="1148"/>
    </contour>
  </outline>
</glyph>
<glyph name="Y" format="2">
  <advance width="1176"/>
  <unicode hex="0059"/>
  <outline>
    <contour>
      <point x="825" y="-0" type="line" name="hr01"/>
      <point x="825" y="48" type="line"/>
      <point x="708" y="71"/>
      <point x="671" y="100"/>
      <point x="671" y="116" type="curve" smooth="yes"/>
      <point x="671" y="521" type="line"/>
      <point x="995" y="1108" type="line" smooth="yes"/>
      <point x="1012" y="1140"/>
      <point x="1054" y="1154"/>
      <point x="1139" y="1170" type="curve"/>
      <point x="1139" y="1218" type="line"/>
      <point x="758" y="1218" type="line"/>
      <point x="758" y="1170" type="line"/>
      <point x="836" y="1160"/>
      <point x="868" y="1148"/>
      <point x="868" y="1126" type="curve" smooth="yes"/>
      <point x="868" y="1120"/>
      <point x="866" y="1115"/>
      <point x="862" y="1108" type="curve" smooth="yes"/>
      <point x="777" y="959"/>
      <point x="692" y="810"/>
      <point x="608" y="662" type="curve"/>
      <point x="521" y="842"/>
      <point x="388" y="1070"/>
      <point x="294" y="1191" type="curve" smooth="yes"/>
      <point x="275" y="1215"/>
      <point x="248" y="1228"/>
      <point x="221" y="1228" type="curve" smooth="yes" name="hr02"/>
      <point x="169" y="1228"/>
      <point x="77" y="1216"/>
      <point x="-2" y="1204" type="curve"/>
      <point x="-1" y="1188"/>
      <point x="-0" y="1171"/>
      <point x="2" y="1156" type="curve" name="hr03"/>
      <point x="107" y="1156"/>
      <point x="130" y="1136"/>
      <point x="154" y="1108" type="curve"/>
      <point x="242" y="989"/>
      <point x="401" y="730"/>
      <point x="498" y="519" type="curve"/>
      <point x="498" y="116" type="line" smooth="yes"/>
      <point x="498" y="98"/>
      <point x="460" y="71"/>
      <point x="346" y="48" type="curve"/>
      <point x="346" y="-0" type="line"/>
    </contour>
  </outline>
</glyph>
<glyph name="Z" format="2">
  <advance width="1037"/>
  <unicode hex="005A"/>
  <outline>
    <contour>
      <point x="962" y="294" type="curve" name="hr01"/>
      <point x="942" y="299"/>
      <point x="921" y="304"/>
      <point x="902" y="309" type="curve"/>
      <point x="853" y="148"/>
      <point x="823" y="102"/>
      <point x="770" y="102" type="curve" smooth="yes"/>
      <point x="284" y="102" type="line"/>
      <point x="954" y="1176" type="line"/>
      <point x="946" y="1189"/>
      <point x="936" y="1204"/>
      <point x="929" y="1218" type="curve"/>
      <point x="318" y="1218" type="line" smooth="yes"/>
      <point x="248" y="1218"/>
      <point x="208" y="1220"/>
      <point x="139" y="1235" type="curve" name="hr02"/>
      <point x="129" y="1133"/>
      <point x="119" y="1029"/>
      <point x="110" y="928" type="curve"/>
      <point x="130" y="923"/>
      <point x="150" y="918"/>
      <point x="171" y="915" type="curve"/>
      <point x="202" y="1057"/>
      <point x="259" y="1117"/>
      <point x="302" y="1117" type="curve" smooth="yes" name="hr03"/>
      <point x="729" y="1117" type="line"/>
      <point x="54" y="44" type="line"/>
      <point x="63" y="29"/>
      <point x="72" y="14"/>
      <point x="83" y="-0" type="curve"/>
      <point x="950" y="-0" type="line"/>
      <point x="952" y="73"/>
      <point x="958" y="213"/>
    </contour>
  </outline>
</glyph>
<glyph name="bracketleft" format="2">
  <advance width="557"/>
  <unicode hex="005B"/>
  <outline>
    <contour>
      <point x="491" y="-194" type="line" name="hr00"/>
      <point x="248" y="-194" type="line"/>
      <point x="248" y="1312" type="line"/>
      <point x="496" y="1312" type="line"/>
      <point x="507" y="1335"/>
      <point x="515" y="1361"/>
      <point x="519" y="1389" type="curve"/>
      <point x="491" y="1413" type="line"/>
      <point x="124" y="1413" type="line"/>
      <point x="124" y="-295" type="line"/>
      <point x="496" y="-295" type="line"/>
      <point x="508" y="-268"/>
      <point x="516" y="-243"/>
      <point x="521" y="-219" type="curve"/>
    </contour>
  </outline>
</glyph>
<glyph name="backslash" format="2">
  <advance width="848"/>
  <unicode hex="005C"/>
  <outline>
    <contour>
      <point x="181" y="1369" type="line" name="hr00"/>
      <point x="148" y="1389"/>
      <point x="115" y="1404"/>
      <point x="82" y="1413" type="curve"/>
      <point x="49" y="1393" type="line"/>
      <point x="667" y="-250" type="line"/>
      <point x="686" y="-265"/>
      <point x="720" y="-280"/>
      <point x="768" y="-295" type="curve"/>
      <point x="800" y="-275" type="line"/>
    </contour>
  </outline>
</glyph>
<glyph name="bracketright" format="2">
  <advance width="557"/>
  <unicode hex="005D"/>
  <outline>
    <contour>
      <point x="433" y="1413" type="line" name="hr00"/>
      <point x="60" y="1413" type="line"/>
      <point x="49" y="1387"/>
      <point x="41" y="1362"/>
      <point x="36" y="1337" type="curve"/>
      <point x="66" y="1312" type="line"/>
      <point x="309" y="1312" type="line"/>
      <point x="309" y="-194" type="line"/>
      <point x="60" y="-194" type="line"/>
      <point x="49" y="-217"/>
      <point x="42" y="-242"/>
      <point x="37" y="-271" type="curve"/>
      <point x="66" y="-295" type="line"/>
      <point x="433" y="-295" type="line"/>
    </contour>
  </outline>
</glyph>
<glyph name="grave" format="2">
  <advance width="620"/>
  <unicode hex="0060"/>
  <outline>
    <contour>
      <point x="416" y="1024" type="curve"/>
      <point x="188" y="1415" type="line"/>
      <point x="157" y="1412"/>
      <point x="74" y="1397"/>
      <point x="49" y="1392" type="curve"/>
      <point x="28" y="1353" type="line"/>
      <point x="363" y="995" type="line"/>
      <point x="385" y="1001"/>
      <point x="405" y="1015"/>
    </contour>
  </outline>
</glyph>
<glyph name="a" format="2">
  <advance width="906"/>
  <unicode hex="0061"/>
  <outline>
    <contour>
      <point x="893" y="85" type="curve" name="hr01"/>
      <point x="887" y="101"/>
      <point x="882" y="117"/>
      <point x="877" y="134" type="curve"/>
      <point x="827" y="114"/>
      <point x="805" y="109"/>
      <point x="787" y="109" type="curve" smooth="yes"/>
      <point x="764" y="109"/>
      <point x="749" y="130"/>
      <point x="749" y="182" type="curve" smooth="yes"/>
      <point x="749" y="697" type="line" smooth="yes"/>
      <point x="749" y="834"/>
      <point x="662" y="908"/>
      <point x="525" y="908" type="curve" smooth="yes"/>
      <point x="366" y="908"/>
      <point x="155" y="796"/>
      <point x="98" y="656" type="curve"/>
      <point x="102" y="641"/>
      <point x="107" y="615"/>
      <point x="122" y="615" type="curve" smooth="yes"/>
      <point x="168" y="615"/>
      <point x="295" y="653"/>
      <point x="295" y="675" type="curve"/>
      <point x="294" y="679"/>
      <point x="294" y="682"/>
      <point x="294" y="686" type="curve" smooth="yes"/>
      <point x="294" y="764"/>
      <point x="369" y="807"/>
      <point x="446" y="807" type="curve" smooth="yes" name="hr02"/>
      <point x="551" y="807"/>
      <point x="586" y="745"/>
      <point x="586" y="662" type="curve" smooth="yes"/>
      <point x="586" y="154" type="line" smooth="yes"/>
      <point x="586" y="42"/>
      <point x="618" y="-28"/>
      <point x="664" y="-28" type="curve" smooth="yes"/>
      <point x="702" y="-28"/>
      <point x="787" y="11"/>
    </contour>
    <contour>
      <point x="698" y="481" type="line"/>
      <point x="689" y="556" type="line"/>
      <point x="393" y="496" type="line" smooth="yes"/>
      <point x="183" y="454"/>
      <point x="71" y="327"/>
      <point x="71" y="179" type="curve" smooth="yes"/>
      <point x="71" y="29"/>
      <point x="185" y="-28"/>
      <point x="275" y="-28" type="curve" smooth="yes"/>
      <point x="360" y="-28"/>
      <point x="485" y="22"/>
      <point x="603" y="149" type="curve"/>
      <point x="595" y="227" type="line"/>
      <point x="496" y="140"/>
      <point x="415" y="105"/>
      <point x="346" y="105" type="curve" smooth="yes"/>
      <point x="311" y="105"/>
      <point x="247" y="129"/>
      <point x="247" y="223" type="curve" smooth="yes"/>
      <point x="247" y="318"/>
      <point x="316" y="408"/>
      <point x="478" y="437" type="curve"/>
    </contour>
  </outline>
</glyph>
<glyph name="c" format="2">
  <advance width="851"/>
  <unicode hex="0063"/>
  <outline>
    <contour>
      <point x="803" y="179" type="curve" name="hr00"/>
      <point x="762" y="223" type="line"/>
      <point x="625" y="109"/>
      <point x="585" y="105"/>
      <point x="514" y="105" type="curve" smooth="yes"/>
      <point x="368" y="105"/>
      <point x="235" y="239"/>
      <point x="235" y="448" type="curve" smooth="yes"/>
      <point x="235" y="683"/>
      <point x="348" y="801"/>
      <point x="479" y="801" type="curve" smooth="yes"/>
      <point x="604" y="801"/>
      <point x="666" y="724"/>
      <point x="687" y="665" type="curve"/>
      <point x="729" y="655" type="line"/>
      <point x="751" y="688"/>
      <point x="789" y="789"/>
      <point x="789" y="827" type="curve"/>
      <point x="789" y="829"/>
      <point x="789" y="832"/>
      <point x="789" y="834" type="curve"/>
      <point x="746" y="878"/>
      <point x="643" y="908"/>
      <point x="560" y="908" type="curve" smooth="yes"/>
      <point x="283" y="908"/>
      <point x="71" y="689"/>
      <point x="71" y="419" type="curve" smooth="yes"/>
      <point x="71" y="140"/>
      <point x="254" y="-28"/>
      <point x="443" y="-28" type="curve" smooth="yes"/>
      <point x="560" y="-28"/>
      <point x="639" y="-11"/>
    </contour>
  </outline>
</glyph>
<glyph name="g" format="2">
  <advance width="954"/>
  <unicode hex="0067"/>
  <outline>
    <contour>
      <point x="797" y="606" type="curve" smooth="yes"/>
      <point x="797" y="664"/>
      <point x="778" y="717"/>
      <point x="747" y="764" type="curve"/>
      <point x="804" y="766"/>
      <point x="847" y="772"/>
      <point x="893" y="780" type="curve"/>
      <point x="920" y="811"/>
      <point x="933" y="845"/>
      <point x="947" y="878" type="curve"/>
      <point x="939" y="887"/>
      <point x="932" y="898"/>
      <point x="926" y="908" type="curve"/>
      <point x="874" y="888"/>
      <point x="792" y="858"/>
      <point x="667" y="845" type="curve"/>
      <point x="612" y="885"/>
      <point x="542" y="908"/>
      <point x="465" y="908" type="curve" smooth="yes"/>
      <point x="274" y="908"/>
      <point x="90" y="754"/>
      <point x="90" y="570" type="curve" smooth="yes"/>
      <point x="90" y="430"/>
      <point x="179" y="327"/>
      <point x="309" y="291" type="curve"/>
      <point x="190" y="210"/>
      <point x="164" y="161"/>
      <point x="164" y="138" type="curve" smooth="yes"/>
      <point x="164" y="102"/>
      <point x="194" y="65"/>
      <point x="273" y="36" type="curve"/>
      <point x="63" y="-76"/>
      <point x="24" y="-148"/>
      <point x="24" y="-213" type="curve" smooth="yes"/>
      <point x="24" y="-396"/>
      <point x="268" y="-468"/>
      <point x="448" y="-468" type="curve" smooth="yes"/>
      <point x="675" y="-468"/>
      <point x="929" y="-307"/>
      <point x="929" y="-109" type="curve" smooth="yes"/>
      <point x="929" y="-11"/>
      <point x="854" y="80"/>
      <point x="575" y="113" type="curve"/>
      <point x="379" y="135"/>
      <point x="342" y="162"/>
      <point x="342" y="190" type="curve" smooth="yes"/>
      <point x="342" y="197"/>
      <point x="358" y="230"/>
      <point x="415" y="278" type="curve"/>
      <point x="605" y="278"/>
      <point x="797" y="411"/>
    </contour>
    <contour>
      <point x="496" y="-11" type="curve"/>
      <point x="716" y="-37"/>
      <point x="767" y="-86"/>
      <point x="767" y="-149" type="curve" smooth="yes"/>
      <point x="767" y="-270"/>
      <point x="667" y="-361"/>
      <point x="504" y="-361" type="curve" smooth="yes"/>
      <point x="333" y="-361"/>
      <point x="188" y="-276"/>
      <point x="188" y="-177" type="curve" smooth="yes"/>
      <point x="188" y="-136"/>
      <point x="202" y="-83"/>
      <point x="367" y="9" type="curve"/>
      <point x="403" y="1"/>
      <point x="446" y="-6"/>
    </contour>
    <contour>
      <point x="643" y="568" type="curve" smooth="yes"/>
      <point x="643" y="444"/>
      <point x="556" y="381"/>
      <point x="483" y="381" type="curve" smooth="yes"/>
      <point x="318" y="381"/>
      <point x="244" y="490"/>
      <point x="244" y="623" type="curve" smooth="yes"/>
      <point x="244" y="747"/>
      <point x="342" y="808"/>
      <point x="404" y="808" type="curve" smooth="yes"/>
      <point x="562" y="808"/>
      <point x="643" y="701"/>
    </contour>
  </outline>
</glyph>
<glyph name="h" format="2">
  <advance width="1077"/>
  <unicode hex="0068"/>
  <outline>
    <contour>
      <point x="1051" y="-0" type="line" name="hr00"/>
      <point x="1051" y="48" type="line"/>
      <point x="952" y="73"/>
      <point x="921" y="88"/>
      <point x="921" y="105" type="curve" smooth="yes"/>
      <point x="921" y="693" type="line" smooth="yes"/>
      <point x="921" y="843"/>
      <point x="822" y="908"/>
      <point x="713" y="908" type="curve" smooth="yes"/>
      <point x="616" y="908"/>
      <point x="461" y="822"/>
      <point x="343" y="673" type="curve"/>
      <point x="343" y="1425" type="line"/>
      <point x="331" y="1435"/>
      <point x="318" y="1448"/>
      <point x="306" y="1459" type="curve"/>
      <point x="229" y="1422"/>
      <point x="165" y="1403"/>
      <point x="50" y="1384" type="curve"/>
      <point x="50" y="1339" type="line"/>
      <point x="171" y="1324"/>
      <point x="180" y="1319"/>
      <point x="180" y="1214" type="curve" smooth="yes"/>
      <point x="180" y="105" type="line" smooth="yes"/>
      <point x="180" y="85"/>
      <point x="133" y="70"/>
      <point x="50" y="48" type="curve"/>
      <point x="50" y="-0" type="line"/>
      <point x="473" y="-0" type="line"/>
      <point x="473" y="48" type="line"/>
      <point x="392" y="65"/>
      <point x="343" y="86"/>
      <point x="343" y="105" type="curve" smooth="yes"/>
      <point x="343" y="544" type="line"/>
      <point x="449" y="695"/>
      <point x="558" y="773"/>
      <point x="641" y="773" type="curve" smooth="yes"/>
      <point x="722" y="773"/>
      <point x="758" y="738"/>
      <point x="758" y="586" type="curve" smooth="yes"/>
      <point x="758" y="105" type="line" smooth="yes"/>
      <point x="758" y="88"/>
      <point x="718" y="71"/>
      <point x="628" y="48" type="curve"/>
      <point x="628" y="-0" type="line"/>
    </contour>
  </outline>
</glyph>
<glyph name="i" format="2">
  <advance width="537"/>
  <unicode hex="0069"/>
  <outline>
    <contour>
      <point x="387" y="1187" type="curve" smooth="yes"/>
      <point x="387" y="1249"/>
      <point x="352" y="1280"/>
      <point x="294" y="1280" type="curve" smooth="yes"/>
      <point x="227" y="1280"/>
      <point x="173" y="1224"/>
      <point x="173" y="1149" type="curve" smooth="yes"/>
      <point x="173" y="1088"/>
      <point x="206" y="1055"/>
      <point x="265" y="1055" type="curve" smooth="yes"/>
      <point x="335" y="1055"/>
      <point x="387" y="1113"/>
    </contour>
    <contour>
      <point x="487" y="0" type="line"/>
      <point x="487" y="48" type="line"/>
      <point x="396" y="65"/>
      <point x="357" y="90"/>
      <point x="357" y="105" type="curve" smooth="yes"/>
      <point x="357" y="908" type="line"/>
      <point x="318" y="908" type="line"/>
      <point x="248" y="877"/>
      <point x="150" y="850"/>
      <point x="64" y="835" type="curve"/>
      <point x="64" y="790" type="line"/>
      <point x="196" y="777"/>
      <point x="194" y="759"/>
      <point x="194" y="630" type="curve" smooth="yes"/>
      <point x="194" y="105" type="line" smooth="yes"/>
      <point x="194" y="88"/>
      <point x="149" y="65"/>
      <point x="64" y="48" type="curve"/>
      <point x="64" y="0" type="line"/>
    </contour>
  </outline>
</glyph>
<glyph name="k" format="2">
  <advance width="985"/>
  <unicode hex="006B"/>
  <outline>
    <contour>
      <point x="446" y="-0" type="line" name="hr01"/>
      <point x="446" y="48" type="line"/>
      <point x="353" y="77"/>
      <point x="343" y="86"/>
      <point x="343" y="105" type="curve" smooth="yes"/>
      <point x="343" y="487" type="line"/>
      <point x="343" y="487"/>
      <point x="344" y="486"/>
      <point x="345" y="486" type="curve"/>
      <point x="691" y="40" type="line" smooth="yes"/>
      <point x="719" y="4"/>
      <point x="747" y="-9"/>
      <point x="801" y="-9" type="curve" smooth="yes" name="hr02"/>
      <point x="827" y="-9"/>
      <point x="914" y="4"/>
      <point x="987" y="21" type="curve"/>
      <point x="981" y="69" type="line"/>
      <point x="969" y="68"/>
      <point x="958" y="67"/>
      <point x="948" y="67" type="curve" smooth="yes" name="hr03"/>
      <point x="897" y="67"/>
      <point x="868" y="80"/>
      <point x="838" y="114" type="curve" smooth="yes"/>
      <point x="722" y="249"/>
      <point x="606" y="385"/>
      <point x="491" y="522" type="curve"/>
      <point x="593" y="605"/>
      <point x="697" y="688"/>
      <point x="800" y="772" type="curve" smooth="yes"/>
      <point x="853" y="814"/>
      <point x="899" y="826"/>
      <point x="954" y="832" type="curve"/>
      <point x="954" y="880" type="line"/>
      <point x="583" y="880" type="line"/>
      <point x="583" y="832" type="line"/>
      <point x="624" y="832"/>
      <point x="660" y="827"/>
      <point x="660" y="806" type="curve"/>
      <point x="661" y="792"/>
      <point x="648" y="775"/>
      <point x="618" y="747" type="curve" smooth="yes"/>
      <point x="343" y="499" type="line"/>
      <point x="343" y="1425" type="line"/>
      <point x="331" y="1435"/>
      <point x="318" y="1448"/>
      <point x="306" y="1459" type="curve"/>
      <point x="238" y="1421"/>
      <point x="146" y="1402"/>
      <point x="50" y="1384" type="curve"/>
      <point x="50" y="1339" type="line"/>
      <point x="158" y="1326"/>
      <point x="180" y="1328"/>
      <point x="180" y="1213" type="curve" smooth="yes"/>
      <point x="180" y="105" type="line" smooth="yes"/>
      <point x="180" y="83"/>
      <point x="133" y="70"/>
      <point x="50" y="48" type="curve"/>
      <point x="50" y="-0" type="line"/>
    </contour>
  </outline>
</glyph>
<glyph name="l" format="2">
  <advance width="537"/>
  <unicode hex="006C"/>
  <outline>
    <contour>
      <point x="496" y="-0" type="line" name="hr00"/>
      <point x="496" y="48" type="line"/>
      <point x="394" y="65"/>
      <point x="357" y="86"/>
      <point x="357" y="105" type="curve" smooth="yes"/>
      <point x="357" y="1425" type="line"/>
      <point x="345" y="1435"/>
      <point x="333" y="1448"/>
      <point x="321" y="1459" type="curve"/>
      <point x="239" y="1418"/>
      <point x="164" y="1402"/>
      <point x="64" y="1384" type="curve"/>
      <point x="64" y="1339" type="line"/>
      <point x="169" y="1326"/>
      <point x="194" y="1326"/>
      <point x="194" y="1213" type="curve" smooth="yes"/>
      <point x="194" y="105" type="line" smooth="yes"/>
      <point x="194" y="85"/>
      <point x="163" y="67"/>
      <point x="55" y="48" type="curve"/>
      <point x="55" y="-0" type="line"/>
    </contour>
  </outline>
</glyph>
<glyph name="n" format="2">
  <advance width="1077"/>
  <unicode hex="006E"/>
  <outline>
    <contour>
      <point x="1051" y="-0" type="line" name="hr00"/>
      <point x="1051" y="48" type="line"/>
      <point x="952" y="73"/>
      <point x="921" y="88"/>
      <point x="921" y="105" type="curve" smooth="yes"/>
      <point x="921" y="624" type="line" smooth="yes"/>
      <point x="921" y="654"/>
      <point x="919" y="684"/>
      <point x="918" y="713" type="curve" smooth="yes"/>
      <point x="912" y="848"/>
      <point x="817" y="908"/>
      <point x="713" y="908" type="curve" smooth="yes"/>
      <point x="616" y="908"/>
      <point x="459" y="822"/>
      <point x="339" y="666" type="curve"/>
      <point x="329" y="873" type="line"/>
      <point x="317" y="885"/>
      <point x="305" y="896"/>
      <point x="294" y="908" type="curve"/>
      <point x="219" y="873"/>
      <point x="144" y="848"/>
      <point x="50" y="835" type="curve"/>
      <point x="50" y="790" type="line"/>
      <point x="177" y="775"/>
      <point x="180" y="766"/>
      <point x="180" y="668" type="curve" smooth="yes"/>
      <point x="180" y="105" type="line" smooth="yes"/>
      <point x="180" y="85"/>
      <point x="133" y="70"/>
      <point x="50" y="48" type="curve"/>
      <point x="50" y="-0" type="line"/>
      <point x="473" y="-0" type="line"/>
      <point x="473" y="48" type="line"/>
      <point x="392" y="65"/>
      <point x="343" y="86"/>
      <point x="343" y="105" type="curve" smooth="yes"/>
      <point x="343" y="544" type="line"/>
      <point x="463" y="713"/>
      <point x="573" y="773"/>
      <point x="643" y="773" type="curve" smooth="yes"/>
      <point x="729" y="773"/>
      <point x="758" y="738"/>
      <point x="758" y="586" type="curve" smooth="yes"/>
      <point x="758" y="105" type="line" smooth="yes"/>
      <point x="758" y="88"/>
      <point x="718" y="71"/>
      <point x="628" y="48" type="curve"/>
      <point x="628" y="-0" type="line"/>
    </contour>
  </outline>
</glyph>
<glyph name="p" format="2">
  <advance width="1039"/>
  <unicode hex="0070"/>
  <outline>
    <contour>
      <point x="966" y="466" type="curve" smooth="yes" name="hr00"/>
      <point x="966" y="746"/>
      <point x="835" y="908"/>
      <point x="664" y="908" type="curve" smooth="yes"/>
      <point x="592" y="908"/>
      <point x="466" y="849"/>
      <point x="337" y="706" type="curve"/>
      <point x="329" y="873" type="line"/>
      <point x="317" y="885"/>
      <point x="305" y="896"/>
      <point x="294" y="908" type="curve"/>
      <point x="215" y="873"/>
      <point x="151" y="854"/>
      <point x="50" y="835" type="curve"/>
      <point x="50" y="790" type="line"/>
      <point x="169" y="784"/>
      <point x="180" y="762"/>
      <point x="180" y="668" type="curve" smooth="yes"/>
      <point x="180" y="-345" type="line" smooth="yes"/>
      <point x="180" y="-367"/>
      <point x="133" y="-384"/>
      <point x="50" y="-403" type="curve"/>
      <point x="50" y="-451" type="line"/>
      <point x="502" y="-451" type="line"/>
      <point x="502" y="-403" type="line"/>
      <point x="384" y="-385"/>
      <point x="343" y="-365"/>
      <point x="343" y="-345" type="curve" smooth="yes"/>
      <point x="343" y="88" type="line"/>
      <point x="437" y="11"/>
      <point x="531" y="-28"/>
      <point x="604" y="-28" type="curve" smooth="yes"/>
      <point x="780" y="-28"/>
      <point x="966" y="237"/>
    </contour>
    <contour>
      <point x="819" y="402" type="curve" smooth="yes"/>
      <point x="819" y="193"/>
      <point x="720" y="103"/>
      <point x="588" y="103" type="curve"/>
      <point x="525" y="105"/>
      <point x="451" y="126"/>
      <point x="343" y="204" type="curve"/>
      <point x="343" y="596" type="line"/>
      <point x="452" y="732"/>
      <point x="541" y="778"/>
      <point x="587" y="778" type="curve" smooth="yes"/>
      <point x="705" y="778"/>
      <point x="819" y="627"/>
    </contour>
  </outline>
</glyph>
<glyph name="q" format="2">
  <advance width="1012"/>
  <unicode hex="0071"/>
  <outline>
    <contour>
      <point x="995" y="-451" type="line" name="hr00"/>
      <point x="995" y="-403" type="line"/>
      <point x="899" y="-385"/>
      <point x="866" y="-365"/>
      <point x="866" y="-345" type="curve" smooth="yes"/>
      <point x="866" y="674" type="line" smooth="yes"/>
      <point x="866" y="788"/>
      <point x="895" y="878"/>
      <point x="895" y="878" type="curve"/>
      <point x="885" y="887"/>
      <point x="873" y="898"/>
      <point x="864" y="908" type="curve"/>
      <point x="840" y="885"/>
      <point x="785" y="841"/>
      <point x="741" y="816" type="curve"/>
      <point x="656" y="893"/>
      <point x="587" y="908"/>
      <point x="518" y="908" type="curve" smooth="yes"/>
      <point x="451" y="908"/>
      <point x="343" y="872"/>
      <point x="261" y="807" type="curve"/>
      <point x="176" y="736"/>
      <point x="71" y="603"/>
      <point x="71" y="419" type="curve" smooth="yes"/>
      <point x="71" y="140"/>
      <point x="250" y="-28"/>
      <point x="391" y="-28" type="curve" smooth="yes"/>
      <point x="520" y="-28"/>
      <point x="602" y="35"/>
      <point x="702" y="149" type="curve"/>
      <point x="702" y="-345" type="line" smooth="yes"/>
      <point x="702" y="-367"/>
      <point x="660" y="-385"/>
      <point x="542" y="-403" type="curve"/>
      <point x="542" y="-451" type="line"/>
    </contour>
    <contour>
      <point x="469" y="111" type="curve" smooth="yes"/>
      <point x="366" y="111"/>
      <point x="235" y="243"/>
      <point x="235" y="456" type="curve" smooth="yes"/>
      <point x="235" y="685"/>
      <point x="358" y="801"/>
      <point x="493" y="801" type="curve" smooth="yes"/>
      <point x="576" y="801"/>
      <point x="660" y="756"/>
      <point x="702" y="684" type="curve"/>
      <point x="702" y="247" type="line"/>
      <point x="625" y="174"/>
      <point x="550" y="111"/>
    </contour>
  </outline>
</glyph>
<glyph name="r" format="2">
  <advance width="787"/>
  <unicode hex="0072"/>
  <outline>
    <contour>
      <point x="750" y="871" type="curve" name="hr00"/>
      <point x="704" y="898"/>
      <point x="654" y="908"/>
      <point x="612" y="908" type="curve" smooth="yes"/>
      <point x="504" y="908"/>
      <point x="409" y="808"/>
      <point x="341" y="681" type="curve"/>
      <point x="329" y="873" type="line"/>
      <point x="317" y="885"/>
      <point x="305" y="896"/>
      <point x="294" y="908" type="curve"/>
      <point x="221" y="873"/>
      <point x="146" y="855"/>
      <point x="50" y="835" type="curve"/>
      <point x="50" y="790" type="line"/>
      <point x="119" y="786"/>
      <point x="141" y="781"/>
      <point x="158" y="764" type="curve" smooth="yes"/>
      <point x="169" y="753"/>
      <point x="180" y="728"/>
      <point x="180" y="645" type="curve" smooth="yes"/>
      <point x="180" y="105" type="line" smooth="yes"/>
      <point x="180" y="85"/>
      <point x="133" y="67"/>
      <point x="50" y="48" type="curve"/>
      <point x="50" y="-0" type="line"/>
      <point x="504" y="-0" type="line"/>
      <point x="504" y="48" type="line"/>
      <point x="386" y="65"/>
      <point x="343" y="86"/>
      <point x="343" y="105" type="curve" smooth="yes"/>
      <point x="343" y="491" type="line"/>
      <point x="407" y="691"/>
      <point x="498" y="765"/>
      <point x="552" y="765" type="curve" smooth="yes"/>
      <point x="603" y="765"/>
      <point x="643" y="718"/>
      <point x="656" y="617" type="curve"/>
      <point x="704" y="617" type="line"/>
      <point x="728" y="669"/>
      <point x="758" y="788"/>
      <point x="758" y="842" type="curve" smooth="yes"/>
      <point x="758" y="857"/>
      <point x="755" y="869"/>
    </contour>
  </outline>
</glyph>
<glyph name="v" format="2">
  <advance width="957"/>
  <unicode hex="0076"/>
  <outline>
    <contour>
      <point x="939" y="832" type="curve" name="hr00"/>
      <point x="939" y="880" type="line"/>
      <point x="635" y="880" type="line"/>
      <point x="635" y="832" type="line"/>
      <point x="708" y="821"/>
      <point x="731" y="811"/>
      <point x="731" y="788" type="curve" smooth="yes"/>
      <point x="731" y="782"/>
      <point x="730" y="775"/>
      <point x="728" y="768" type="curve" smooth="yes"/>
      <point x="519" y="197" type="line"/>
      <point x="296" y="768" type="line"/>
      <point x="292" y="775"/>
      <point x="290" y="783"/>
      <point x="290" y="789" type="curve" smooth="yes"/>
      <point x="290" y="812"/>
      <point x="320" y="822"/>
      <point x="397" y="832" type="curve"/>
      <point x="397" y="880" type="line"/>
      <point x="17" y="880" type="line"/>
      <point x="17" y="832" type="line"/>
      <point x="79" y="818"/>
      <point x="107" y="802"/>
      <point x="119" y="768" type="curve"/>
      <point x="435" y="-28" type="line"/>
      <point x="477" y="-19"/>
      <point x="543" y="5"/>
      <point x="572" y="61" type="curve"/>
      <point x="838" y="768" type="line"/>
      <point x="851" y="805"/>
      <point x="863" y="814"/>
    </contour>
  </outline>
</glyph>
<glyph name="x" format="2">
  <advance width="978"/>
  <unicode hex="0078"/>
  <outline>
    <contour>
      <point x="964" y="-0" type="line" name="hr00"/>
      <point x="964" y="48" type="line"/>
      <point x="882" y="59"/>
      <point x="843" y="98"/>
      <point x="816" y="136" type="curve" smooth="yes"/>
      <point x="568" y="478" type="line"/>
      <point x="762" y="747" type="line" smooth="yes"/>
      <point x="795" y="792"/>
      <point x="841" y="824"/>
      <point x="943" y="832" type="curve"/>
      <point x="943" y="880" type="line"/>
      <point x="585" y="880" type="line"/>
      <point x="585" y="832" type="line"/>
      <point x="637" y="826"/>
      <point x="668" y="818"/>
      <point x="668" y="793" type="curve"/>
      <point x="669" y="782"/>
      <point x="662" y="768"/>
      <point x="649" y="749" type="curve" smooth="yes"/>
      <point x="512" y="556" type="line"/>
      <point x="465" y="619"/>
      <point x="415" y="683"/>
      <point x="373" y="749" type="curve"/>
      <point x="360" y="767"/>
      <point x="353" y="780"/>
      <point x="353" y="791" type="curve" smooth="yes"/>
      <point x="353" y="817"/>
      <point x="387" y="826"/>
      <point x="441" y="832" type="curve"/>
      <point x="441" y="880" type="line"/>
      <point x="27" y="880" type="line"/>
      <point x="27" y="832" type="line"/>
      <point x="127" y="824"/>
      <point x="152" y="793"/>
      <point x="185" y="747" type="curve" smooth="yes"/>
      <point x="258" y="647"/>
      <point x="330" y="545"/>
      <point x="402" y="446" type="curve"/>
      <point x="178" y="136" type="line"/>
      <point x="149" y="98"/>
      <point x="116" y="63"/>
      <point x="17" y="48" type="curve"/>
      <point x="17" y="-0" type="line"/>
      <point x="375" y="-0" type="line"/>
      <point x="375" y="48" type="line"/>
      <point x="329" y="53"/>
      <point x="273" y="59"/>
      <point x="273" y="93" type="curve" smooth="yes"/>
      <point x="273" y="103"/>
      <point x="277" y="116"/>
      <point x="289" y="131" type="curve"/>
      <point x="458" y="368" type="line"/>
      <point x="515" y="289"/>
      <point x="571" y="207"/>
      <point x="632" y="131" type="curve" smooth="yes"/>
      <point x="646" y="113"/>
      <point x="650" y="97"/>
      <point x="650" y="87" type="curve" smooth="yes"/>
      <point x="650" y="57"/>
      <point x="609" y="52"/>
      <point x="564" y="48" type="curve"/>
      <point x="564" y="-0" type="line"/>
    </contour>
  </outline>
</glyph>
<glyph name="y" format="2">
  <advance width="957"/>
  <unicode hex="0079"/>
  <outline>
    <contour>
      <point x="939" y="880" type="line"/>
      <point x="627" y="880" type="line"/>
      <point x="627" y="832" type="line"/>
      <point x="702" y="820"/>
      <point x="731" y="809"/>
      <point x="731" y="785" type="curve" smooth="yes"/>
      <point x="731" y="780"/>
      <point x="729" y="775"/>
      <point x="728" y="768" type="curve"/>
      <point x="519" y="201" type="line"/>
      <point x="326" y="688" type="line"/>
      <point x="296" y="768" type="line"/>
      <point x="292" y="775"/>
      <point x="290" y="783"/>
      <point x="290" y="789" type="curve" smooth="yes"/>
      <point x="290" y="812"/>
      <point x="320" y="822"/>
      <point x="397" y="832" type="curve"/>
      <point x="397" y="880" type="line"/>
      <point x="17" y="880" type="line"/>
      <point x="17" y="832" type="line"/>
      <point x="80" y="818"/>
      <point x="106" y="802"/>
      <point x="119" y="768" type="curve" smooth="yes"/>
      <point x="222" y="504"/>
      <point x="328" y="242"/>
      <point x="431" y="-22" type="curve"/>
      <point x="404" y="-86" type="line" smooth="yes"/>
      <point x="358" y="-195"/>
      <point x="288" y="-281"/>
      <point x="241" y="-297" type="curve" smooth="yes"/>
      <point x="222" y="-304"/>
      <point x="202" y="-307"/>
      <point x="180" y="-307" type="curve" smooth="yes"/>
      <point x="144" y="-307"/>
      <point x="105" y="-298"/>
      <point x="70" y="-276" type="curve"/>
      <point x="29" y="-301"/>
      <point x="-48" y="-398"/>
      <point x="-48" y="-415" type="curve" smooth="yes"/>
      <point x="-48" y="-435"/>
      <point x="24" y="-468"/>
      <point x="123" y="-468" type="curve" smooth="yes"/>
      <point x="257" y="-468"/>
      <point x="417" y="-352"/>
      <point x="522" y="-75" type="curve" smooth="yes"/>
      <point x="627" y="204"/>
      <point x="731" y="487"/>
      <point x="838" y="768" type="curve"/>
      <point x="851" y="805"/>
      <point x="863" y="814"/>
      <point x="939" y="832" type="curve"/>
    </contour>
  </outline>
</glyph>
<glyph name="z" format="2">
  <advance width="862"/>
  <unicode hex="007A"/>
  <outline>
    <contour>
      <point x="792" y="254" type="curve" name="hr01"/>
      <point x="775" y="257"/>
      <point x="760" y="261"/>
      <point x="743" y="265" type="curve"/>
      <point x="713" y="146"/>
      <point x="689" y="92"/>
      <point x="654" y="92" type="curve" smooth="yes"/>
      <point x="280" y="92" type="line"/>
      <point x="794" y="839" type="line"/>
      <point x="774" y="880" type="line"/>
      <point x="294" y="880" type="line" smooth="yes"/>
      <point x="213" y="880"/>
      <point x="183" y="880"/>
      <point x="129" y="895" type="curve" name="hr02"/>
      <point x="122" y="811"/>
      <point x="116" y="728"/>
      <point x="110" y="645" type="curve"/>
      <point x="127" y="640"/>
      <point x="145" y="635"/>
      <point x="162" y="632" type="curve"/>
      <point x="186" y="743"/>
      <point x="228" y="776"/>
      <point x="268" y="782" type="curve"/>
      <point x="271" y="786"/>
      <point x="274" y="788"/>
      <point x="279" y="788" type="curve" smooth="yes" name="hr03"/>
      <point x="582" y="788" type="line"/>
      <point x="68" y="42" type="line"/>
      <point x="92" y="-0" type="line"/>
      <point x="781" y="-0" type="line"/>
      <point x="789" y="44"/>
      <point x="792" y="175"/>
    </contour>
  </outline>
</glyph>
<glyph name="bar" format="2">
  <advance width="392"/>
  <unicode hex="007C"/>
  <outline>
    <contour>
      <point x="128" y="1138" type="curve" name="hr00"/>
      <point x="112" y="811"/>
      <point x="126" y="197"/>
      <point x="141" y="-219" type="curve"/>
      <point x="141" y="-219"/>
      <point x="190" y="-248"/>
      <point x="190" y="-248" type="curve"/>
      <point x="219" y="-230"/>
      <point x="281" y="-178"/>
      <point x="293" y="-147" type="curve"/>
      <point x="271" y="159"/>
      <point x="258" y="789"/>
      <point x="281" y="1171" type="curve"/>
      <point x="245" y="1203" type="line"/>
      <point x="204" y="1189"/>
      <point x="161" y="1167"/>
    </contour>
  </outline>
</glyph>
<glyph name="asciitilde" format="2">
  <advance width="883"/>
  <unicode hex="007E"/>
  <outline>
    <contour>
      <point x="793" y="706" type="line" name="hr01"/>
      <point x="745" y="612"/>
      <point x="693" y="565"/>
      <point x="636" y="565" type="curve" smooth="yes" name="hr02"/>
      <point x="606" y="565"/>
      <point x="554" y="588"/>
      <point x="479" y="635" type="curve" smooth="yes"/>
      <point x="404" y="682"/>
      <point x="348" y="706"/>
      <point x="311" y="706" type="curve" smooth="yes" name="hr03"/>
      <point x="260" y="706"/>
      <point x="207" y="677"/>
      <point x="154" y="618" type="curve" smooth="yes"/>
      <point x="109" y="569"/>
      <point x="73" y="511"/>
      <point x="44" y="444" type="curve"/>
      <point x="90" y="420" type="line"/>
      <point x="138" y="515"/>
      <point x="190" y="562"/>
      <point x="245" y="562" type="curve" smooth="yes"/>
      <point x="279" y="562"/>
      <point x="334" y="538"/>
      <point x="409" y="491" type="curve" smooth="yes"/>
      <point x="485" y="444"/>
      <point x="539" y="421"/>
      <point x="572" y="421" type="curve" smooth="yes" name="hr04"/>
      <point x="623" y="421"/>
      <point x="676" y="450"/>
      <point x="730" y="509" type="curve" smooth="yes"/>
      <point x="774" y="558"/>
      <point x="810" y="616"/>
      <point x="839" y="684" type="curve"/>
    </contour>
  </outline>
</glyph>
<glyph name="guillemotright" format="2">
  <advance width="954"/>
  <unicode hex="00BB"/>
  <outline>
    <contour>
      <point x="522" y="475" type="curve"/>
      <point x="173" y="867" type="line"/>
      <point x="130" y="835" type="line"/>
      <point x="340" y="441" type="line"/>
      <point x="269" y="309"/>
      <point x="199" y="176"/>
      <point x="129" y="44" type="curve"/>
      <point x="143" y="33"/>
      <point x="158" y="22"/>
      <point x="173" y="12" type="curve"/>
      <point x="523" y="406" type="line"/>
      <point x="523" y="429"/>
      <point x="522" y="452"/>
    </contour>
    <contour>
      <point x="881" y="475" type="curve"/>
      <point x="532" y="867" type="line"/>
      <point x="488" y="835" type="line"/>
      <point x="559" y="704"/>
      <point x="628" y="572"/>
      <point x="699" y="441" type="curve"/>
      <point x="628" y="309"/>
      <point x="558" y="176"/>
      <point x="488" y="44" type="curve"/>
      <point x="502" y="33"/>
      <point x="517" y="22"/>
      <point x="532" y="12" type="curve"/>
      <point x="882" y="406" type="line"/>
      <point x="882" y="429"/>
      <point x="881" y="452"/>
    </contour>
  </outline>
</glyph>
<glyph name="Eth" format="2">
  <advance width="1198"/>
  <unicode hex="00D0"/>
  <outline>
    <contour>
      <point x="632" y="665" type="line"/>
      <point x="608" y="687" type="line"/>
      <point x="49" y="687" type="line"/>
      <point x="26" y="619" type="line"/>
      <point x="47" y="595" type="line"/>
      <point x="605" y="595" type="line"/>
    </contour>
    <contour>
      <point x="1111" y="654" type="curve" smooth="yes"/>
      <point x="1111" y="1028"/>
      <point x="883" y="1247"/>
      <point x="515" y="1247" type="curve" smooth="yes"/>
      <point x="359" y="1247"/>
      <point x="154" y="1221"/>
      <point x="37" y="1189" type="curve"/>
      <point x="47" y="1123" type="line"/>
      <point x="88" y="1129"/>
      <point x="135" y="1137"/>
      <point x="186" y="1143" type="curve"/>
      <point x="186" y="106" type="line" smooth="yes"/>
      <point x="186" y="89"/>
      <point x="134" y="65"/>
      <point x="47" y="47" type="curve"/>
      <point x="47" y="0" type="line"/>
      <point x="555" y="0" type="line" smooth="yes"/>
      <point x="792" y="0"/>
      <point x="1111" y="170"/>
    </contour>
    <contour>
      <point x="450" y="1161" type="curve" smooth="yes"/>
      <point x="757" y="1161"/>
      <point x="926" y="958"/>
      <point x="926" y="616" type="curve" smooth="yes"/>
      <point x="926" y="253"/>
      <point x="704" y="85"/>
      <point x="530" y="85" type="curve" smooth="yes"/>
      <point x="388" y="85"/>
      <point x="359" y="105"/>
      <point x="359" y="155" type="curve" smooth="yes"/>
      <point x="359" y="1159" type="line"/>
      <point x="389" y="1160"/>
      <point x="420" y="1161"/>
    </contour>
  </outline>
</glyph>
<glyph name="Oslash" format="2">
  <advance width="1203"/>
  <unicode hex="00D8"/>
  <outline>
    <contour>
      <point x="1110" y="1237" type="line"/>
      <point x="1081" y="1270" type="line"/>
      <point x="1041" y="1261"/>
      <point x="987" y="1244"/>
      <point x="952" y="1222" type="curve"/>
      <point x="900" y="1150" type="line"/>
      <point x="825" y="1211"/>
      <point x="731" y="1247"/>
      <point x="620" y="1247" type="curve" smooth="yes"/>
      <point x="307" y="1247"/>
      <point x="65" y="943"/>
      <point x="65" y="592" type="curve" smooth="yes"/>
      <point x="65" y="428"/>
      <point x="111" y="273"/>
      <point x="197" y="158" type="curve"/>
      <point x="71" y="-18" type="line"/>
      <point x="99" y="-51" type="line"/>
      <point x="131" y="-43"/>
      <point x="208" y="-22"/>
      <point x="231" y="-2" type="curve"/>
      <point x="248" y="21"/>
      <point x="265" y="45"/>
      <point x="281" y="69" type="curve"/>
      <point x="358" y="7"/>
      <point x="452" y="-29"/>
      <point x="563" y="-29" type="curve" smooth="yes"/>
      <point x="862" y="-29"/>
      <point x="1118" y="276"/>
      <point x="1118" y="626" type="curve" smooth="yes"/>
      <point x="1118" y="786"/>
      <point x="1072" y="945"/>
      <point x="985" y="1061" type="curve"/>
    </contour>
    <contour>
      <point x="235" y="620" type="curve" smooth="yes"/>
      <point x="235" y="935"/>
      <point x="365" y="1133"/>
      <point x="587" y="1133" type="curve" smooth="yes"/>
      <point x="674" y="1133"/>
      <point x="751" y="1090"/>
      <point x="810" y="1022" type="curve"/>
      <point x="304" y="310" type="line"/>
      <point x="261" y="397"/>
      <point x="235" y="505"/>
    </contour>
    <contour>
      <point x="948" y="608" type="curve" smooth="yes"/>
      <point x="948" y="267"/>
      <point x="800" y="90"/>
      <point x="595" y="90" type="curve" smooth="yes"/>
      <point x="513" y="90"/>
      <point x="436" y="131"/>
      <point x="375" y="201" type="curve"/>
      <point x="543" y="438"/>
      <point x="712" y="675"/>
      <point x="880" y="913" type="curve"/>
      <point x="924" y="824"/>
      <point x="948" y="717"/>
    </contour>
  </outline>
</glyph>
<glyph name="Ugrave" format="2">
  <advance width="1307"/>
  <unicode hex="00D9"/>
  <outline>
    <contour>
      <point x="1246" y="1171" type="curve"/>
      <point x="1246" y="1218" type="line"/>
      <point x="833" y="1218" type="line"/>
      <point x="833" y="1171" type="line"/>
      <point x="926" y="1152"/>
      <point x="972" y="1126"/>
      <point x="972" y="1111" type="curve" smooth="yes"/>
      <point x="972" y="470" type="line" smooth="yes"/>
      <point x="972" y="278"/>
      <point x="877" y="88"/>
      <point x="692" y="88" type="curve" smooth="yes"/>
      <point x="471" y="88"/>
      <point x="359" y="233"/>
      <point x="359" y="481" type="curve" smooth="yes"/>
      <point x="359" y="1111" type="line" smooth="yes"/>
      <point x="359" y="1129"/>
      <point x="412" y="1152"/>
      <point x="499" y="1171" type="curve"/>
      <point x="499" y="1218" type="line"/>
      <point x="47" y="1218" type="line"/>
      <point x="47" y="1171" type="line"/>
      <point x="140" y="1152"/>
      <point x="186" y="1126"/>
      <point x="186" y="1111" type="curve" smooth="yes"/>
      <point x="186" y="429" type="line" smooth="yes"/>
      <point x="186" y="115"/>
      <point x="383" y="-29"/>
      <point x="650" y="-29" type="curve" smooth="yes"/>
      <point x="930" y="-29"/>
      <point x="1107" y="168"/>
      <point x="1107" y="507" type="curve" smooth="yes"/>
      <point x="1107" y="1111" type="line" smooth="yes"/>
      <point x="1107" y="1129"/>
      <point x="1159" y="1152"/>
    </contour>
    <contour>
      <point x="836" y="1366" type="curve"/>
      <point x="464" y="1679" type="line"/>
      <point x="436" y="1663"/>
      <point x="360" y="1620"/>
      <point x="340" y="1600" type="curve"/>
      <point x="332" y="1553" type="line"/>
      <point x="485" y="1476"/>
      <point x="637" y="1397"/>
      <point x="790" y="1320" type="curve"/>
      <point x="811" y="1329"/>
      <point x="818" y="1342"/>
    </contour>
  </outline>
</glyph>
<glyph name="Yacute" format="2">
  <advance width="1191"/>
  <unicode hex="00DD"/>
  <outline>
    <contour>
      <point x="837" y="0" type="line"/>
      <point x="837" y="47" type="line"/>
      <point x="716" y="71"/>
      <point x="678" y="100"/>
      <point x="678" y="117" type="curve" smooth="yes"/>
      <point x="678" y="520" type="line"/>
      <point x="1002" y="1107" type="line" smooth="yes"/>
      <point x="1020" y="1140"/>
      <point x="1063" y="1154"/>
      <point x="1152" y="1171" type="curve"/>
      <point x="1152" y="1218" type="line"/>
      <point x="762" y="1218" type="line"/>
      <point x="762" y="1171" type="line"/>
      <point x="843" y="1160"/>
      <point x="876" y="1147"/>
      <point x="876" y="1125" type="curve" smooth="yes"/>
      <point x="876" y="1120"/>
      <point x="874" y="1114"/>
      <point x="870" y="1107" type="curve" smooth="yes"/>
      <point x="617" y="658" type="line"/>
      <point x="526" y="843"/>
      <point x="398" y="1064"/>
      <point x="301" y="1188" type="curve" smooth="yes"/>
      <point x="280" y="1215"/>
      <point x="251" y="1228"/>
      <point x="221" y="1228" type="curve" smooth="yes"/>
      <point x="168" y="1228"/>
      <point x="75" y="1216"/>
      <point x="0" y="1206" type="curve"/>
      <point x="4" y="1159" type="line"/>
      <point x="111" y="1159"/>
      <point x="137" y="1135"/>
      <point x="162" y="1107" type="curve"/>
      <point x="252" y="984"/>
      <point x="409" y="726"/>
      <point x="505" y="517" type="curve"/>
      <point x="505" y="117" type="line" smooth="yes"/>
      <point x="505" y="99"/>
      <point x="464" y="71"/>
      <point x="347" y="47" type="curve"/>
      <point x="347" y="0" type="line"/>
    </contour>
    <contour>
      <point x="922" y="1554" type="line"/>
      <point x="913" y="1600" type="line"/>
      <point x="894" y="1620"/>
      <point x="820" y="1660"/>
      <point x="787" y="1679" type="curve"/>
      <point x="663" y="1575"/>
      <point x="539" y="1471"/>
      <point x="415" y="1368" type="curve"/>
      <point x="432" y="1344"/>
      <point x="441" y="1329"/>
      <point x="463" y="1320" type="curve"/>
    </contour>
  </outline>
</glyph>
<glyph name="igrave" format="2">
  <advance width="539"/>
  <unicode hex="00EC"/>
  <outline>
    <contour>
      <point x="396" y="1022" type="curve"/>
      <point x="174" y="1414" type="line"/>
      <point x="143" y="1412"/>
      <point x="43" y="1394"/>
      <point x="18" y="1388" type="curve"/>
      <point x="11" y="1373"/>
      <point x="3" y="1360"/>
      <point x="-4" y="1345" type="curve"/>
      <point x="336" y="989" type="line"/>
      <point x="358" y="995"/>
      <point x="380" y="1006"/>
    </contour>
    <contour>
      <point x="489" y="0" type="line"/>
      <point x="489" y="47" type="line"/>
      <point x="397" y="64"/>
      <point x="358" y="90"/>
      <point x="358" y="105" type="curve" smooth="yes"/>
      <point x="358" y="908" type="line"/>
      <point x="319" y="908" type="line"/>
      <point x="250" y="877"/>
      <point x="151" y="849"/>
      <point x="64" y="834" type="curve"/>
      <point x="64" y="789" type="line"/>
      <point x="198" y="777"/>
      <point x="195" y="758"/>
      <point x="195" y="628" type="curve" smooth="yes"/>
      <point x="195" y="105" type="line" smooth="yes"/>
      <point x="195" y="88"/>
      <point x="149" y="64"/>
      <point x="64" y="47" type="curve"/>
      <point x="64" y="0" type="line"/>
    </contour>
  </outline>
</glyph>
<glyph name="Zcaron" format="2">
  <advance width="1050"/>
  <unicode hex="017D"/>
  <outline>
    <contour>
      <point x="974" y="295" type="curve"/>
      <point x="914" y="310" type="line"/>
      <point x="865" y="151"/>
      <point x="836" y="102"/>
      <point x="781" y="102" type="curve" smooth="yes"/>
      <point x="285" y="102" type="line"/>
      <point x="964" y="1175" type="line"/>
      <point x="938" y="1218" type="line"/>
      <point x="329" y="1218" type="line" smooth="yes"/>
      <point x="253" y="1218"/>
      <point x="216" y="1218"/>
      <point x="144" y="1234" type="curve"/>
      <point x="135" y="1132"/>
      <point x="124" y="1032"/>
      <point x="114" y="931" type="curve"/>
      <point x="175" y="918" type="line"/>
      <point x="204" y="1052"/>
      <point x="265" y="1116"/>
      <point x="306" y="1116" type="curve" smooth="yes"/>
      <point x="740" y="1116" type="line"/>
      <point x="512" y="759"/>
      <point x="284" y="401"/>
      <point x="56" y="45" type="curve"/>
      <point x="65" y="30"/>
      <point x="75" y="15"/>
      <point x="85" y="0" type="curve"/>
      <point x="962" y="0" type="line"/>
      <point x="964" y="75"/>
      <point x="970" y="212"/>
    </contour>
    <contour>
      <point x="855" y="1644" type="curve"/>
      <point x="839" y="1670"/>
      <point x="832" y="1681"/>
      <point x="810" y="1693" type="curve"/>
      <point x="547" y="1493" type="line"/>
      <point x="278" y="1693" type="line"/>
      <point x="256" y="1681"/>
      <point x="249" y="1670"/>
      <point x="231" y="1644" type="curve"/>
      <point x="489" y="1343" type="line"/>
      <point x="599" y="1343" type="line"/>
      <point x="684" y="1444"/>
      <point x="769" y="1544"/>
    </contour>
  </outline>
</glyph>
<glyph name="uni02D0" format="2">
  <advance width="532"/>
  <unicode hex="02D0"/>
  <outline>
    <contour>
      <point x="266" y="569" type="line"/>
      <point x="422" y="880" type="line"/>
      <point x="110" y="880" type="line"/>
    </contour>
    <contour>
      <point x="266" y="311" type="line"/>
      <point x="110" y="0" type="line"/>
      <point x="422" y="0" type="line"/>
    </contour>
  </outline>
</glyph>
<glyph name="Delta" format="2">
  <advance width="1156"/>
  <unicode hex="0394"/>
  <outline>
    <contour>
      <point x="1081" y="50" type="line"/>
      <point x="1081" y="50"/>
      <point x="748" y="893"/>
      <point x="610" y="1274" type="curve"/>
      <point x="569" y="1252"/>
      <point x="513" y="1224"/>
      <point x="477" y="1190" type="curve"/>
      <point x="358" y="854"/>
      <point x="54" y="50"/>
      <point x="54" y="50" type="curve"/>
      <point x="60" y="34"/>
      <point x="65" y="16"/>
      <point x="71" y="0" type="curve"/>
      <point x="1059" y="0" type="line"/>
    </contour>
    <contour>
      <point x="855" y="166" type="curve"/>
      <point x="860" y="152"/>
      <point x="863" y="142"/>
      <point x="863" y="135" type="curve" smooth="yes"/>
      <point x="863" y="117"/>
      <point x="839" y="117"/>
      <point x="747" y="117" type="curve" smooth="yes"/>
      <point x="328" y="117" type="line" smooth="yes"/>
      <point x="238" y="117"/>
      <point x="214" y="117"/>
      <point x="214" y="136" type="curve" smooth="yes"/>
      <point x="214" y="143"/>
      <point x="217" y="153"/>
      <point x="222" y="166" type="curve"/>
      <point x="222" y="166"/>
      <point x="414" y="680"/>
      <point x="533" y="1007" type="curve"/>
      <point x="641" y="716"/>
    </contour>
  </outline>
</glyph>
<glyph name="pi" format="2">
  <advance width="1027"/>
  <unicode hex="03C0"/>
  <outline>
    <contour>
      <point x="999" y="104" type="curve"/>
      <point x="975" y="151" type="line"/>
      <point x="893" y="119"/>
      <point x="862" y="113"/>
      <point x="824" y="113" type="curve" smooth="yes"/>
      <point x="766" y="113"/>
      <point x="739" y="207"/>
      <point x="739" y="432" type="curve" smooth="yes"/>
      <point x="739" y="520"/>
      <point x="742" y="622"/>
      <point x="752" y="722" type="curve"/>
      <point x="810" y="722" type="line" smooth="yes"/>
      <point x="873" y="722"/>
      <point x="946" y="782"/>
      <point x="1013" y="875" type="curve"/>
      <point x="1004" y="886"/>
      <point x="993" y="897"/>
      <point x="983" y="908" type="curve"/>
      <point x="945" y="881"/>
      <point x="899" y="880"/>
      <point x="846" y="880" type="curve" smooth="yes"/>
      <point x="241" y="880" type="line" smooth="yes"/>
      <point x="159" y="880"/>
      <point x="87" y="805"/>
      <point x="12" y="713" type="curve"/>
      <point x="39" y="673" type="line"/>
      <point x="110" y="723"/>
      <point x="152" y="732"/>
      <point x="232" y="732" type="curve" smooth="yes"/>
      <point x="277" y="732" type="line"/>
      <point x="236" y="216"/>
      <point x="216" y="149"/>
      <point x="114" y="6" type="curve"/>
      <point x="114" y="6"/>
      <point x="136" y="-22"/>
      <point x="143" y="-30" type="curve"/>
      <point x="200" y="-14"/>
      <point x="339" y="31"/>
      <point x="374" y="54" type="curve"/>
      <point x="366" y="123"/>
      <point x="363" y="197"/>
      <point x="363" y="287" type="curve" smooth="yes"/>
      <point x="363" y="433"/>
      <point x="370" y="591"/>
      <point x="381" y="731" type="curve"/>
      <point x="481" y="729"/>
      <point x="560" y="726"/>
      <point x="648" y="724" type="curve"/>
      <point x="623" y="476"/>
      <point x="613" y="330"/>
      <point x="613" y="249" type="curve" smooth="yes"/>
      <point x="613" y="76"/>
      <point x="657" y="-29"/>
      <point x="748" y="-29" type="curve" smooth="yes"/>
      <point x="804" y="-29"/>
      <point x="866" y="-2"/>
    </contour>
  </outline>
</glyph>
<glyph name="uni0965" format="2">
  <advance width="695"/>
  <unicode hex="0965"/>
  <outline>
    <contour>
      <point x="126" y="933" type="curve" name="hr00"/>
      <point x="119" y="808"/>
      <point x="117" y="411"/>
      <point x="133" y="-6" type="curve"/>
      <point x="133" y="-6"/>
      <point x="181" y="-34"/>
      <point x="181" y="-34" type="curve"/>
      <point x="211" y="-16"/>
      <point x="272" y="36"/>
      <point x="285" y="67" type="curve"/>
      <point x="263" y="372"/>
      <point x="260" y="698"/>
      <point x="279" y="967" type="curve"/>
      <point x="243" y="999" type="line"/>
      <point x="201" y="986"/>
      <point x="159" y="964"/>
    </contour>
    <contour>
      <point x="415" y="933" type="curve"/>
      <point x="409" y="808"/>
      <point x="407" y="411"/>
      <point x="422" y="-6" type="curve"/>
      <point x="422" y="-6"/>
      <point x="471" y="-34"/>
      <point x="471" y="-34" type="curve"/>
      <point x="500" y="-16"/>
      <point x="562" y="36"/>
      <point x="575" y="67" type="curve"/>
      <point x="553" y="372"/>
      <point x="550" y="698"/>
      <point x="569" y="967" type="curve"/>
      <point x="532" y="999" type="line"/>
      <point x="491" y="986"/>
      <point x="449" y="964"/>
    </contour>
  </outline>
</glyph>
<glyph name="uni1900" format="2">
  <advance width="1030"/>
  <unicode hex="1900"/>
  <anchor x="525" y="1050" name="K"/>
  <anchor x="515" y="-100" name="L"/>
  <anchor x="870" y="1050" name="O"/>
  <anchor x="515" y="1050" name="U"/>
  <anchor x="927" y="50" name="V"/>
  <outline>
    <contour>
      <point x="139" y="970" type="line"/>
      <point x="109" y="949"/>
      <point x="73" y="915"/>
      <point x="50" y="885" type="curve"/>
      <point x="79" y="845" type="line"/>
      <point x="462" y="845" type="line"/>
      <point x="332" y="688"/>
      <point x="222" y="591"/>
      <point x="73" y="445" type="curve"/>
      <point x="100" y="410" type="line"/>
      <point x="420" y="410" type="line"/>
      <point x="320" y="272"/>
      <point x="168" y="108"/>
      <point x="52" y="-4" type="curve"/>
      <point x="79" y="-34" type="line"/>
      <point x="215" y="17"/>
      <point x="332" y="43"/>
      <point x="459" y="43" type="curve" smooth="yes"/>
      <point x="593" y="43"/>
      <point x="732" y="11"/>
      <point x="865" y="-34" type="curve"/>
      <point x="894" y="-16"/>
      <point x="934" y="36"/>
      <point x="946" y="67" type="curve"/>
      <point x="938" y="213"/>
      <point x="933" y="367"/>
      <point x="933" y="540" type="curve" smooth="yes"/>
      <point x="933" y="660"/>
      <point x="935" y="789"/>
      <point x="940" y="930" type="curve"/>
      <point x="914" y="970" type="line"/>
    </contour>
    <contour>
      <point x="283" y="535" type="line"/>
      <point x="320" y="561"/>
      <point x="465" y="722"/>
      <point x="567" y="845" type="curve"/>
      <point x="796" y="845" type="line"/>
      <point x="794" y="694"/>
      <point x="792" y="552"/>
      <point x="792" y="429" type="curve" smooth="yes"/>
      <point x="792" y="313"/>
      <point x="794" y="212"/>
      <point x="799" y="133" type="curve"/>
      <point x="717" y="155"/>
      <point x="621" y="173"/>
      <point x="531" y="173" type="curve" smooth="yes"/>
      <point x="460" y="173"/>
      <point x="374" y="161"/>
      <point x="314" y="143" type="curve"/>
      <point x="373" y="204"/>
      <point x="505" y="384"/>
      <point x="584" y="495" type="curve"/>
      <point x="558" y="535" type="line"/>
    </contour>
  </outline>
</glyph>
<glyph name="uni1901" format="2">
  <advance width="975"/>
  <unicode hex="1901"/>
  <outline>
    <contour>
      <point x="132" y="970" type="curve" name="hr00"/>
      <point x="103" y="949"/>
      <point x="66" y="915"/>
      <point x="42" y="885" type="curve"/>
      <point x="73" y="845" type="line"/>
      <point x="71" y="845"/>
      <point x="689" y="845"/>
      <point x="689" y="845" type="curve"/>
      <point x="421" y="587"/>
      <point x="163" y="231"/>
      <point x="40" y="30" type="curve"/>
      <point x="62" y="-0" type="line"/>
      <point x="880" y="-0" type="line"/>
      <point x="906" y="23"/>
      <point x="930" y="59"/>
      <point x="945" y="85" type="curve"/>
      <point x="912" y="125" type="line"/>
      <point x="256" y="125" type="line"/>
      <point x="395" y="341"/>
      <point x="696" y="708"/>
      <point x="932" y="930" type="curve"/>
      <point x="907" y="970" type="line"/>
      <point x="907" y="970"/>
      <point x="131" y="970"/>
    </contour>
  </outline>
    <anchor name="L" x="485" y="-100"/>
    <anchor name="V" x="920" y="50"/>
    <anchor name="O" x="755" y="1050"/>
    <anchor name="U" x="487" y="1050"/>
    <anchor name="K" x="500" y="1050"/>
</glyph>
<glyph name="uni1902" format="2">
  <advance width="1103"/>
  <unicode hex="1902"/>
  <outline>
    <contour>
      <point x="417" y="970" type="line" name="hr00"/>
      <point x="265" y="901"/>
      <point x="50" y="723"/>
      <point x="51" y="411" type="curve" smooth="yes"/>
      <point x="52" y="122"/>
      <point x="229" y="-34"/>
      <point x="421" y="-34" type="curve" smooth="yes"/>
      <point x="612" y="-34"/>
      <point x="675" y="58"/>
      <point x="819" y="209" type="curve"/>
      <point x="787" y="255" type="line"/>
      <point x="684" y="174"/>
      <point x="629" y="96"/>
      <point x="496" y="96" type="curve" smooth="yes"/>
      <point x="372" y="96"/>
      <point x="200" y="212"/>
      <point x="200" y="468" type="curve" smooth="yes"/>
      <point x="200" y="782"/>
      <point x="389" y="912"/>
      <point x="611" y="956" type="curve"/>
    </contour>
    <contour>
      <point x="948" y="845" type="line"/>
      <point x="955" y="875"/>
      <point x="971" y="912"/>
      <point x="1073" y="930" type="curve"/>
      <point x="1047" y="970" type="line"/>
      <point x="417" y="970" type="line"/>
      <point x="290" y="845" type="line"/>
    </contour>
    <contour>
      <point x="1015" y="929" type="line"/>
      <point x="778" y="838"/>
      <point x="644" y="588"/>
      <point x="644" y="363" type="curve" smooth="yes"/>
      <point x="644" y="87"/>
      <point x="751" y="-34"/>
      <point x="881" y="-34" type="curve" smooth="yes"/>
      <point x="990" y="-34"/>
      <point x="1041" y="57"/>
      <point x="1093" y="130" type="curve"/>
      <point x="1066" y="166" type="line"/>
      <point x="1024" y="124"/>
      <point x="999" y="96"/>
      <point x="967" y="96" type="curve" smooth="yes"/>
      <point x="889" y="96"/>
      <point x="794" y="189"/>
      <point x="794" y="425" type="curve" smooth="yes"/>
      <point x="794" y="574"/>
      <point x="831" y="758"/>
      <point x="1073" y="930" type="curve"/>
    </contour>
  </outline>
    <anchor name="L" x="551" y="-100"/>
    <anchor name="V" x="1043" y="50"/>
    <anchor name="O" x="943" y="1050"/>
    <anchor name="U" x="622" y="1050"/>
    <anchor name="K" x="680" y="1050"/>
</glyph>
<glyph name="uni1903" format="2">
  <advance width="949"/>
  <unicode hex="1903"/>
  <outline>
    <contour>
      <point x="89" y="970" type="line" name="hr00"/>
      <point x="60" y="949"/>
      <point x="23" y="915"/>
      <point x="-0" y="885" type="curve"/>
      <point x="30" y="845" type="line"/>
      <point x="342" y="845" type="line"/>
      <point x="249" y="746"/>
      <point x="143" y="598"/>
      <point x="98" y="524" type="curve"/>
      <point x="130" y="495" type="line"/>
      <point x="216" y="531"/>
      <point x="300" y="542"/>
      <point x="387" y="542" type="curve" smooth="yes"/>
      <point x="552" y="542"/>
      <point x="726" y="485"/>
      <point x="723" y="329" type="curve" smooth="yes"/>
      <point x="721" y="220"/>
      <point x="680" y="96"/>
      <point x="523" y="96" type="curve" smooth="yes"/>
      <point x="423" y="96"/>
      <point x="382" y="155"/>
      <point x="385" y="219" type="curve" smooth="yes"/>
      <point x="393" y="411"/>
      <point x="610" y="634"/>
      <point x="850" y="845" type="curve"/>
      <point x="862" y="876"/>
      <point x="877" y="925"/>
      <point x="882" y="954" type="curve"/>
      <point x="882" y="955"/>
      <point x="858" y="966"/>
      <point x="845" y="970" type="curve"/>
      <point x="487" y="651"/>
      <point x="246" y="375"/>
      <point x="246" y="170" type="curve" smooth="yes"/>
      <point x="246" y="48"/>
      <point x="331" y="-34"/>
      <point x="470" y="-34" type="curve" smooth="yes"/>
      <point x="697" y="-34"/>
      <point x="861" y="218"/>
      <point x="863" y="384" type="curve" smooth="yes"/>
      <point x="866" y="595"/>
      <point x="623" y="646"/>
      <point x="461" y="647" type="curve"/>
      <point x="428" y="647"/>
      <point x="342" y="639"/>
      <point x="278" y="619" type="curve"/>
      <point x="333" y="709"/>
      <point x="459" y="846"/>
      <point x="553" y="930" type="curve"/>
      <point x="527" y="970" type="line"/>
    </contour>
  </outline>
    <anchor name="L" x="474" y="-100"/>
    <anchor name="V" x="782" y="50"/>
    <anchor name="O" x="789" y="1050"/>
    <anchor name="U" x="475" y="1050"/>
    <anchor name="K" x="540" y="1050"/>
</glyph>
<glyph name="uni1906" format="2">
  <advance width="1038"/>
  <unicode hex="1906"/>
  <outline>
    <contour>
      <point x="799" y="926" type="curve" name="hr01"/>
      <point x="792" y="802"/>
      <point x="788" y="414"/>
      <point x="804" y="-3" type="curve"/>
      <point x="804" y="-3"/>
      <point x="852" y="-34"/>
      <point x="852" y="-34" type="curve"/>
      <point x="882" y="-16"/>
      <point x="943" y="36"/>
      <point x="956" y="67" type="curve"/>
      <point x="934" y="372"/>
      <point x="933" y="691"/>
      <point x="952" y="960" type="curve"/>
      <point x="916" y="1000" type="line"/>
      <point x="874" y="987"/>
      <point x="832" y="957"/>
    </contour>
    <contour>
      <point x="50" y="837" type="curve"/>
      <point x="84" y="796" type="line"/>
      <point x="183" y="885"/>
      <point x="260" y="902"/>
      <point x="318" y="902" type="curve" name="hr02"/>
      <point x="470" y="901"/>
      <point x="504" y="774"/>
      <point x="504" y="672" type="curve" smooth="yes"/>
      <point x="504" y="539"/>
      <point x="421" y="432"/>
      <point x="417" y="433" type="curve"/>
      <point x="397" y="423"/>
      <point x="364" y="418"/>
      <point x="322" y="418" type="curve" smooth="yes"/>
      <point x="270" y="418"/>
      <point x="215" y="442"/>
      <point x="213" y="483" type="curve" smooth="yes"/>
      <point x="212" y="523"/>
      <point x="273" y="564"/>
      <point x="314" y="587" type="curve"/>
      <point x="295" y="627" type="line"/>
      <point x="105" y="554"/>
      <point x="63" y="514"/>
      <point x="63" y="450" type="curve" smooth="yes"/>
      <point x="63" y="380"/>
      <point x="151" y="318"/>
      <point x="253" y="318" type="curve" smooth="yes"/>
      <point x="325" y="318"/>
      <point x="403" y="338"/>
      <point x="462" y="378" type="curve" smooth="yes"/>
      <point x="467" y="382"/>
      <point x="492" y="398"/>
      <point x="495" y="400" type="curve" smooth="yes"/>
      <point x="625" y="496"/>
      <point x="659" y="607"/>
      <point x="659" y="732" type="curve" smooth="yes"/>
      <point x="659" y="921"/>
      <point x="541" y="995"/>
      <point x="391" y="995" type="curve" smooth="yes"/>
      <point x="321" y="995"/>
      <point x="239" y="980"/>
      <point x="182" y="943" type="curve" smooth="yes"/>
      <point x="136" y="913"/>
      <point x="88" y="875"/>
    </contour>
  </outline>
    <anchor name="L" x="519" y="-100"/>
    <anchor name="V" x="936" y="50"/>
    <anchor name="O" x="878" y="1050"/>
    <anchor name="U" x="519" y="1050"/>
    <anchor name="K" x="540" y="1050"/>
</glyph>
<glyph name="uni1909" format="2">
  <advance width="805"/>
  <unicode hex="1909"/>
  <anchor x="450" y="1050" name="K"/>
  <anchor x="430" y="-100" name="L"/>
  <anchor x="660" y="1050" name="O"/>
  <anchor x="430" y="1050" name="U"/>
  <anchor x="755" y="50" name="V"/>
  <outline>
    <contour>
      <point x="760" y="930" type="curve"/>
      <point x="734" y="970" type="line"/>
      <point x="449" y="970" type="line" smooth="yes"/>
      <point x="343" y="970"/>
      <point x="50" y="832"/>
      <point x="50" y="638" type="curve" smooth="yes"/>
      <point x="50" y="518"/>
      <point x="157" y="416"/>
      <point x="335" y="416" type="curve" smooth="yes"/>
      <point x="409" y="416"/>
      <point x="564" y="448"/>
      <point x="669" y="530" type="curve"/>
      <point x="637" y="570" type="line"/>
      <point x="574" y="560"/>
      <point x="542" y="546"/>
      <point x="430" y="546" type="curve" smooth="yes"/>
      <point x="284" y="546"/>
      <point x="189" y="610"/>
      <point x="191" y="697" type="curve" smooth="yes"/>
      <point x="193" y="782"/>
      <point x="284" y="845"/>
      <point x="359" y="845" type="curve" smooth="yes"/>
      <point x="651" y="845" type="line"/>
      <point x="700" y="870"/>
      <point x="724" y="894"/>
    </contour>
    <contour>
      <point x="767" y="167" type="line"/>
      <point x="714" y="143"/>
      <point x="547" y="96"/>
      <point x="444" y="96" type="curve" smooth="yes"/>
      <point x="269" y="96"/>
      <point x="206" y="185"/>
      <point x="205" y="258" type="curve" smooth="yes"/>
      <point x="203" y="382"/>
      <point x="342" y="423"/>
      <point x="395" y="456" type="curve"/>
      <point x="275" y="461" type="line"/>
      <point x="135" y="397"/>
      <point x="50" y="283"/>
      <point x="50" y="197" type="curve" smooth="yes"/>
      <point x="50" y="67"/>
      <point x="158" y="-34"/>
      <point x="382" y="-34" type="curve" smooth="yes"/>
      <point x="503" y="-34"/>
      <point x="702" y="33"/>
      <point x="805" y="119" type="curve"/>
    </contour>
    <contour>
      <point x="805" y="119" type="curve"/>
      <point x="789" y="136"/>
      <point x="712" y="125"/>
      <point x="698" y="140" type="curve"/>
      <point x="589" y="11"/>
      <point x="408" y="-137"/>
      <point x="236" y="-256" type="curve" smooth="yes"/>
      <point x="233" y="-258"/>
      <point x="274" y="-303"/>
      <point x="274" y="-300" type="curve"/>
      <point x="456" y="-210"/>
      <point x="661" y="-39"/>
    </contour>
  </outline>
</glyph>
<glyph name="uni190A" format="2">
  <advance width="1150"/>
  <unicode hex="190A"/>
  <outline>
    <contour>
      <point x="1065" y="28" type="curve" name="hr00"/>
      <point x="855" y="455"/>
      <point x="668" y="655"/>
      <point x="459" y="655" type="curve" smooth="yes"/>
      <point x="360" y="655"/>
      <point x="240" y="596"/>
      <point x="168" y="521" type="curve" smooth="yes"/>
      <point x="106" y="456"/>
      <point x="60" y="365"/>
      <point x="60" y="255" type="curve" smooth="yes"/>
      <point x="60" y="83"/>
      <point x="196" y="-34"/>
      <point x="340" y="-34" type="curve" smooth="yes"/>
      <point x="490" y="-34"/>
      <point x="637" y="147"/>
      <point x="637" y="334" type="curve" smooth="yes"/>
      <point x="637" y="808"/>
      <point x="637" y="930"/>
      <point x="637" y="930" type="curve"/>
      <point x="493" y="865" type="line"/>
      <point x="493" y="865"/>
      <point x="493" y="349"/>
      <point x="493" y="264" type="curve" smooth="yes"/>
      <point x="493" y="138"/>
      <point x="477" y="98"/>
      <point x="383" y="96" type="curve" smooth="yes"/>
      <point x="304" y="94"/>
      <point x="195" y="171"/>
      <point x="196" y="312" type="curve" smooth="yes"/>
      <point x="197" y="454"/>
      <point x="284" y="524"/>
      <point x="391" y="524" type="curve" smooth="yes"/>
      <point x="636" y="524"/>
      <point x="783" y="340"/>
      <point x="1003" y="-34" type="curve"/>
      <point x="1030" y="-16"/>
      <point x="1053" y="8"/>
    </contour>
    <contour>
      <point x="139" y="970" type="line"/>
      <point x="109" y="949"/>
      <point x="73" y="915"/>
      <point x="50" y="885" type="curve"/>
      <point x="79" y="845" type="line"/>
      <point x="992" y="845" type="line"/>
      <point x="1041" y="870"/>
      <point x="1066" y="894"/>
      <point x="1100" y="930" type="curve"/>
      <point x="1075" y="970" type="line"/>
    </contour>
    <contour>
      <point x="1070" y="532" type="curve"/>
      <point x="1048" y="548"/>
      <point x="998" y="581"/>
      <point x="969" y="595" type="curve"/>
      <point x="917" y="402"/>
      <point x="800" y="151"/>
      <point x="666" y="-0" type="curve" smooth="yes"/>
      <point x="663" y="-3"/>
      <point x="715" y="-47"/>
      <point x="715" y="-44" type="curve"/>
      <point x="871" y="100"/>
      <point x="1003" y="353"/>
    </contour>
  </outline>
    <anchor name="L" x="575" y="-100"/>
    <anchor name="V" x="1010" y="50"/>
    <anchor name="O" x="569" y="1050"/>
    <anchor name="U" x="575" y="1050"/>
    <anchor name="K" x="580" y="1050"/>
</glyph>
<glyph name="tha-limb" format="2">
  <advance width="1112"/>
  <unicode hex="190C"/>
  <anchor x="656" y="1050" name="K"/>
  <anchor x="556" y="-100" name="L"/>
  <anchor x="649" y="1050" name="O"/>
  <anchor x="556" y="1050" name="U"/>
  <anchor x="945" y="50" name="V"/>
  <outline>
    <contour>
      <point x="139" y="970" type="line"/>
      <point x="110" y="949"/>
      <point x="73" y="915"/>
      <point x="50" y="885" type="curve"/>
      <point x="80" y="845" type="line"/>
      <point x="573" y="845" type="line"/>
      <point x="573" y="791"/>
      <point x="573" y="349"/>
      <point x="573" y="264" type="curve" smooth="yes"/>
      <point x="573" y="185"/>
      <point x="561" y="147"/>
      <point x="551" y="126" type="curve" smooth="yes"/>
      <point x="542" y="109"/>
      <point x="513" y="98"/>
      <point x="453" y="96" type="curve" smooth="yes"/>
      <point x="342" y="93"/>
      <point x="185" y="171"/>
      <point x="186" y="312" type="curve" smooth="yes"/>
      <point x="187" y="454"/>
      <point x="355" y="524"/>
      <point x="561" y="524" type="curve" smooth="yes"/>
      <point x="788" y="524"/>
      <point x="940" y="455"/>
      <point x="940" y="271" type="curve" smooth="yes"/>
      <point x="940" y="164"/>
      <point x="900" y="71"/>
      <point x="834" y="9" type="curve"/>
      <point x="832" y="7"/>
      <point x="875" y="-32"/>
      <point x="882" y="-34" type="curve"/>
      <point x="1027" y="54"/>
      <point x="1081" y="193"/>
      <point x="1082" y="336" type="curve" smooth="yes"/>
      <point x="1083" y="492"/>
      <point x="986" y="658"/>
      <point x="659" y="655" type="curve" smooth="yes"/>
      <point x="443" y="653"/>
      <point x="301" y="605"/>
      <point x="182" y="506" type="curve" smooth="yes"/>
      <point x="86" y="427"/>
      <point x="50" y="326"/>
      <point x="50" y="255" type="curve" smooth="yes"/>
      <point x="50" y="83"/>
      <point x="229" y="-34"/>
      <point x="410" y="-34" type="curve" smooth="yes"/>
      <point x="611" y="-34"/>
      <point x="717" y="147"/>
      <point x="717" y="334" type="curve" smooth="yes"/>
      <point x="717" y="808"/>
      <point x="717" y="428"/>
      <point x="717" y="930" type="curve"/>
      <point x="691" y="970" type="line"/>
    </contour>
  </outline>
</glyph>
<glyph name="uni190D" format="2">
  <advance width="1031"/>
  <unicode hex="190D"/>
  <anchor x="570" y="1050" name="K"/>
  <anchor x="515" y="-100" name="L"/>
  <anchor x="682" y="1050" name="O"/>
  <anchor x="515" y="1050" name="U"/>
  <anchor x="886" y="50" name="V"/>
  <outline>
    <contour>
      <point x="962" y="375" type="curve" smooth="yes"/>
      <point x="962" y="524"/>
      <point x="864" y="643"/>
      <point x="669" y="643" type="curve" smooth="yes"/>
      <point x="608" y="643"/>
      <point x="520" y="625"/>
      <point x="500" y="614" type="curve"/>
      <point x="529" y="691"/>
      <point x="574" y="777"/>
      <point x="636" y="842" type="curve"/>
      <point x="510" y="833" type="line"/>
      <point x="435" y="721"/>
      <point x="378" y="603"/>
      <point x="333" y="481" type="curve"/>
      <point x="362" y="446" type="line"/>
      <point x="442" y="498"/>
      <point x="493" y="521"/>
      <point x="579" y="521" type="curve"/>
      <point x="748" y="517"/>
      <point x="808" y="411"/>
      <point x="808" y="314" type="curve" smooth="yes"/>
      <point x="808" y="188"/>
      <point x="753" y="96"/>
      <point x="542" y="96" type="curve" smooth="yes"/>
      <point x="368" y="96"/>
      <point x="176" y="192"/>
      <point x="176" y="319" type="curve" smooth="yes"/>
      <point x="176" y="332"/>
      <point x="178" y="345"/>
      <point x="182" y="358" type="curve"/>
      <point x="166" y="369"/>
      <point x="156" y="371"/>
      <point x="145" y="374" type="curve"/>
      <point x="96" y="334"/>
      <point x="60" y="247"/>
      <point x="60" y="214" type="curve" smooth="yes"/>
      <point x="60" y="135"/>
      <point x="187" y="-34"/>
      <point x="480" y="-34" type="curve" smooth="yes"/>
      <point x="804" y="-34"/>
      <point x="962" y="189"/>
    </contour>
    <contour>
      <point x="916" y="862" type="curve" smooth="yes"/>
      <point x="940" y="886"/>
      <point x="969" y="942"/>
      <point x="984" y="984" type="curve"/>
      <point x="953" y="1000" type="line"/>
      <point x="838" y="912"/>
      <point x="690" y="890"/>
      <point x="562" y="890" type="curve" smooth="yes"/>
      <point x="448" y="890"/>
      <point x="279" y="927"/>
      <point x="204" y="994" type="curve"/>
      <point x="167" y="1000" type="line"/>
      <point x="126" y="972"/>
      <point x="97" y="937"/>
      <point x="68" y="891" type="curve"/>
      <point x="72" y="842"/>
      <point x="345" y="756"/>
      <point x="481" y="756" type="curve" smooth="yes"/>
      <point x="652" y="756"/>
      <point x="869" y="814"/>
    </contour>
  </outline>
</glyph>
<glyph name="uni190F" format="2">
  <advance width="995"/>
  <unicode hex="190F"/>
  <outline>
    <contour>
      <point x="382" y="443" type="line" name="hr00"/>
      <point x="404" y="413" type="line"/>
      <point x="856" y="413" type="line"/>
      <point x="882" y="436"/>
      <point x="906" y="469"/>
      <point x="921" y="494" type="curve"/>
      <point x="889" y="538" type="line"/>
      <point x="546" y="538" type="line"/>
    </contour>
    <contour>
      <point x="132" y="970" type="curve"/>
      <point x="103" y="949"/>
      <point x="66" y="915"/>
      <point x="42" y="885" type="curve"/>
      <point x="73" y="845" type="line"/>
      <point x="71" y="845"/>
      <point x="689" y="845"/>
      <point x="689" y="845" type="curve"/>
      <point x="421" y="587"/>
      <point x="163" y="231"/>
      <point x="40" y="30" type="curve"/>
      <point x="62" y="-0" type="line"/>
      <point x="880" y="-0" type="line"/>
      <point x="906" y="23"/>
      <point x="930" y="59"/>
      <point x="945" y="85" type="curve"/>
      <point x="912" y="125" type="line"/>
      <point x="256" y="125" type="line"/>
      <point x="395" y="341"/>
      <point x="696" y="708"/>
      <point x="932" y="930" type="curve"/>
      <point x="907" y="970" type="line"/>
      <point x="907" y="970"/>
      <point x="131" y="970"/>
    </contour>
  </outline>
    <anchor name="L" x="480" y="-100"/>
    <anchor name="V" x="920" y="50"/>
    <anchor name="O" x="778" y="1050"/>
    <anchor name="U" x="497" y="1050"/>
    <anchor name="K" x="515" y="1050"/>
</glyph>
<glyph name="uni1910" format="2">
  <advance width="1314"/>
  <unicode hex="1910"/>
  <anchor x="680" y="1050" name="K"/>
  <anchor x="657" y="-100" name="L"/>
  <anchor x="920" y="1050" name="O"/>
  <anchor x="657" y="1050" name="U"/>
  <anchor x="1167" y="50" name="V"/>
  <outline>
    <contour>
      <point x="394" y="1000" type="curve"/>
      <point x="189" y="926"/>
      <point x="50" y="693"/>
      <point x="51" y="417" type="curve" smooth="yes"/>
      <point x="52" y="112"/>
      <point x="218" y="-34"/>
      <point x="381" y="-34" type="curve" smooth="yes"/>
      <point x="461" y="-34"/>
      <point x="545" y="17"/>
      <point x="628" y="131" type="curve"/>
      <point x="683" y="26"/>
      <point x="782" y="-35"/>
      <point x="875" y="-34" type="curve" smooth="yes"/>
      <point x="1064" y="-32"/>
      <point x="1264" y="201"/>
      <point x="1264" y="488" type="curve" smooth="yes"/>
      <point x="1264" y="721"/>
      <point x="1147" y="943"/>
      <point x="994" y="1000" type="curve"/>
      <point x="943" y="982"/>
      <point x="910" y="950"/>
      <point x="872" y="910" type="curve"/>
      <point x="890" y="866" type="line"/>
      <point x="1044" y="826"/>
      <point x="1119" y="619"/>
      <point x="1119" y="455" type="curve" smooth="yes"/>
      <point x="1119" y="258"/>
      <point x="1069" y="100"/>
      <point x="932" y="100" type="curve" smooth="yes"/>
      <point x="822" y="100"/>
      <point x="739" y="173"/>
      <point x="728" y="300" type="curve" smooth="yes"/>
      <point x="725" y="334"/>
      <point x="731" y="387"/>
      <point x="742" y="424" type="curve"/>
      <point x="720" y="462" type="line"/>
      <point x="662" y="442"/>
      <point x="614" y="411"/>
      <point x="572" y="368" type="curve"/>
      <point x="600" y="213"/>
      <point x="510" y="100"/>
      <point x="419" y="100" type="curve" smooth="yes"/>
      <point x="328" y="100"/>
      <point x="209" y="227"/>
      <point x="209" y="464" type="curve" smooth="yes"/>
      <point x="209" y="746"/>
      <point x="307" y="880"/>
      <point x="413" y="943" type="curve"/>
      <point x="406" y="965"/>
      <point x="401" y="978"/>
    </contour>
  </outline>
</glyph>
<glyph name="uni1913" format="2">
  <advance width="1142"/>
  <unicode hex="1913"/>
  <outline>
    <contour>
      <point x="911" y="876" type="curve" name="hr01"/>
      <point x="909" y="590"/>
      <point x="897" y="261"/>
      <point x="909" y="-3" type="curve"/>
      <point x="909" y="-3"/>
      <point x="957" y="-37"/>
      <point x="958" y="-34" type="curve"/>
      <point x="987" y="-16"/>
      <point x="1049" y="36"/>
      <point x="1062" y="67" type="curve"/>
      <point x="1047" y="315"/>
      <point x="1044" y="616"/>
      <point x="1055" y="960" type="curve"/>
      <point x="1030" y="1000" type="line"/>
      <point x="996" y="978"/>
      <point x="949" y="935"/>
    </contour>
    <contour>
      <point x="1000" y="453" type="line"/>
      <point x="895" y="359"/>
      <point x="851" y="345"/>
      <point x="752" y="346" type="curve" smooth="yes"/>
      <point x="670" y="347"/>
      <point x="589" y="380"/>
      <point x="590" y="506" type="curve" smooth="yes"/>
      <point x="591" y="641"/>
      <point x="738" y="679"/>
      <point x="738" y="827" type="curve" smooth="yes" name="hr02"/>
      <point x="738" y="931"/>
      <point x="669" y="995"/>
      <point x="544" y="995" type="curve" smooth="yes"/>
      <point x="251" y="995"/>
      <point x="50" y="741"/>
      <point x="51" y="514" type="curve" smooth="yes"/>
      <point x="52" y="314"/>
      <point x="178" y="230"/>
      <point x="301" y="230" type="curve" smooth="yes"/>
      <point x="438" y="230"/>
      <point x="532" y="326"/>
      <point x="566" y="379" type="curve"/>
      <point x="560" y="396"/>
      <point x="569" y="409"/>
      <point x="527" y="422" type="curve"/>
      <point x="487" y="425"/>
      <point x="488" y="346"/>
      <point x="352" y="346" type="curve" smooth="yes"/>
      <point x="272" y="346"/>
      <point x="201" y="414"/>
      <point x="201" y="559" type="curve" smooth="yes"/>
      <point x="201" y="709"/>
      <point x="337" y="893"/>
      <point x="440" y="893" type="curve" smooth="yes"/>
      <point x="554" y="893"/>
      <point x="579" y="848"/>
      <point x="579" y="787" type="curve" smooth="yes"/>
      <point x="579" y="626"/>
      <point x="424" y="604"/>
      <point x="424" y="430" type="curve" smooth="yes" name="hr03"/>
      <point x="424" y="306"/>
      <point x="586" y="230"/>
      <point x="689" y="230" type="curve" smooth="yes"/>
      <point x="855" y="230"/>
      <point x="909" y="291"/>
      <point x="1019" y="372" type="curve"/>
    </contour>
  </outline>
    <anchor name="L" x="571" y="-100"/>
    <anchor name="V" x="1041" y="50"/>
    <anchor name="O" x="982" y="1050"/>
    <anchor name="U" x="571" y="1050"/>
    <anchor name="K" x="600" y="1050"/>
</glyph>
<glyph name="uni1914" format="2">
  <advance width="1077"/>
  <unicode hex="1914"/>
  <outline>
    <contour>
      <point x="146" y="970" type="line" name="hr00"/>
      <point x="117" y="949"/>
      <point x="79" y="915"/>
      <point x="56" y="885" type="curve"/>
      <point x="86" y="845" type="line"/>
      <point x="580" y="845" type="line"/>
      <point x="421" y="722"/>
      <point x="150" y="432"/>
      <point x="50" y="267" type="curve"/>
      <point x="76" y="237" type="line"/>
      <point x="257" y="238"/>
      <point x="651" y="118"/>
      <point x="902" y="-34" type="curve"/>
      <point x="931" y="-16"/>
      <point x="981" y="39"/>
      <point x="993" y="70" type="curve"/>
      <point x="979" y="318"/>
      <point x="975" y="587"/>
      <point x="986" y="930" type="curve"/>
      <point x="960" y="970" type="line"/>
    </contour>
    <contour>
      <point x="711" y="845" type="curve"/>
      <point x="842" y="845" type="line"/>
      <point x="837" y="552"/>
      <point x="832" y="338"/>
      <point x="843" y="175" type="curve"/>
      <point x="647" y="259"/>
      <point x="454" y="333"/>
      <point x="261" y="357" type="curve"/>
      <point x="348" y="500"/>
      <point x="533" y="698"/>
    </contour>
  </outline>
    <anchor name="L" x="538" y="-100"/>
    <anchor name="V" x="974" y="50"/>
    <anchor name="O" x="917" y="1050"/>
    <anchor name="U" x="538" y="1050"/>
    <anchor name="K" x="560" y="1050"/>
</glyph>
<glyph name="uni1915" format="2">
  <advance width="944"/>
  <unicode hex="1915"/>
  <outline>
    <contour>
      <point x="163" y="970" type="line" name="hr00"/>
      <point x="133" y="949"/>
      <point x="97" y="915"/>
      <point x="74" y="885" type="curve"/>
      <point x="104" y="845" type="line"/>
      <point x="597" y="845" type="line"/>
      <point x="498" y="754"/>
      <point x="414" y="676"/>
      <point x="328" y="577" type="curve"/>
      <point x="350" y="549" type="line"/>
      <point x="398" y="572"/>
      <point x="432" y="580"/>
      <point x="477" y="580" type="curve" smooth="yes"/>
      <point x="674" y="580"/>
      <point x="734" y="450"/>
      <point x="734" y="356" type="curve" smooth="yes"/>
      <point x="734" y="213"/>
      <point x="616" y="87"/>
      <point x="438" y="86" type="curve" smooth="yes"/>
      <point x="274" y="85"/>
      <point x="171" y="179"/>
      <point x="172" y="248" type="curve" smooth="yes"/>
      <point x="173" y="297"/>
      <point x="206" y="334"/>
      <point x="269" y="334" type="curve" smooth="yes"/>
      <point x="375" y="334"/>
      <point x="463" y="286"/>
      <point x="575" y="148" type="curve" smooth="yes"/>
      <point x="641" y="67"/>
      <point x="763" y="-10"/>
      <point x="840" y="-34" type="curve"/>
      <point x="860" y="-12"/>
      <point x="891" y="55"/>
      <point x="900" y="85" type="curve"/>
      <point x="793" y="102"/>
      <point x="739" y="145"/>
      <point x="659" y="238" type="curve" smooth="yes"/>
      <point x="565" y="347"/>
      <point x="455" y="433"/>
      <point x="328" y="433" type="curve" smooth="yes"/>
      <point x="169" y="433"/>
      <point x="50" y="322"/>
      <point x="50" y="207" type="curve" smooth="yes"/>
      <point x="50" y="89"/>
      <point x="156" y="-34"/>
      <point x="385" y="-34" type="curve" smooth="yes"/>
      <point x="719" y="-34"/>
      <point x="874" y="303"/>
      <point x="874" y="427" type="curve" smooth="yes"/>
      <point x="874" y="585"/>
      <point x="754" y="695"/>
      <point x="621" y="694" type="curve"/>
      <point x="590" y="694"/>
      <point x="573" y="695"/>
      <point x="544" y="685" type="curve"/>
      <point x="628" y="776"/>
      <point x="714" y="840"/>
      <point x="824" y="930" type="curve"/>
      <point x="798" y="970" type="line"/>
    </contour>
  </outline>
    <anchor name="L" x="470" y="-100"/>
    <anchor name="V" x="875" y="50"/>
    <anchor name="O" x="730" y="1050"/>
    <anchor name="U" x="470" y="1050"/>
    <anchor name="K" x="480" y="1050"/>
</glyph>
<glyph name="la-limb" format="2">
  <advance width="1097"/>
  <unicode hex="1917"/>
  <anchor x="585" y="1050" name="K"/>
  <anchor x="548" y="-100" name="L"/>
  <anchor x="937" y="1050" name="O"/>
  <anchor x="548" y="1050" name="U"/>
  <anchor x="997" y="50" name="V"/>
  <outline>
    <contour>
      <point x="192" y="1000" type="curve"/>
      <point x="163" y="979"/>
      <point x="90" y="920"/>
      <point x="67" y="889" type="curve"/>
      <point x="56" y="838"/>
      <point x="50" y="781"/>
      <point x="50" y="750" type="curve" smooth="yes"/>
      <point x="50" y="406"/>
      <point x="304" y="360"/>
      <point x="442" y="360" type="curve" smooth="yes"/>
      <point x="577" y="360"/>
      <point x="701" y="432"/>
      <point x="799" y="540" type="curve"/>
      <point x="799" y="541"/>
      <point x="776" y="577"/>
      <point x="776" y="578" type="curve"/>
      <point x="731" y="548"/>
      <point x="610" y="490"/>
      <point x="512" y="490" type="curve" smooth="yes"/>
      <point x="327" y="490"/>
      <point x="181" y="597"/>
      <point x="180" y="795" type="curve"/>
      <point x="235" y="760"/>
      <point x="348" y="711"/>
      <point x="502" y="712" type="curve" smooth="yes"/>
      <point x="611" y="713"/>
      <point x="744" y="744"/>
      <point x="864" y="834" type="curve"/>
      <point x="861" y="550"/>
      <point x="852" y="261"/>
      <point x="864" y="-3" type="curve"/>
      <point x="864" y="-3"/>
      <point x="913" y="-34"/>
      <point x="913" y="-34" type="curve"/>
      <point x="942" y="-16"/>
      <point x="1004" y="36"/>
      <point x="1016" y="67" type="curve"/>
      <point x="1002" y="315"/>
      <point x="1000" y="616"/>
      <point x="1011" y="960" type="curve"/>
      <point x="986" y="1000" type="line"/>
      <point x="832" y="907"/>
      <point x="692" y="856"/>
      <point x="562" y="854" type="curve" smooth="yes"/>
      <point x="420" y="852"/>
      <point x="308" y="901"/>
    </contour>
  </outline>
</glyph>
<glyph name="uni1917" format="2">
  <advance width="1097"/>
  <unicode hex="1917"/>
  <outline>
    <contour>
      <point x="192" y="1000" type="curve" name="hr00"/>
      <point x="163" y="979"/>
      <point x="90" y="920"/>
      <point x="67" y="889" type="curve"/>
      <point x="56" y="838"/>
      <point x="50" y="781"/>
      <point x="50" y="750" type="curve" smooth="yes"/>
      <point x="50" y="406"/>
      <point x="304" y="360"/>
      <point x="442" y="360" type="curve" smooth="yes"/>
      <point x="577" y="360"/>
      <point x="701" y="432"/>
      <point x="799" y="540" type="curve"/>
      <point x="799" y="541"/>
      <point x="776" y="577"/>
      <point x="776" y="578" type="curve"/>
      <point x="731" y="548"/>
      <point x="610" y="490"/>
      <point x="512" y="490" type="curve" smooth="yes"/>
      <point x="327" y="490"/>
      <point x="181" y="597"/>
      <point x="180" y="795" type="curve"/>
      <point x="235" y="760"/>
      <point x="348" y="711"/>
      <point x="502" y="712" type="curve" smooth="yes"/>
      <point x="611" y="713"/>
      <point x="744" y="744"/>
      <point x="864" y="834" type="curve"/>
      <point x="861" y="550"/>
      <point x="852" y="261"/>
      <point x="864" y="-3" type="curve"/>
      <point x="864" y="-3"/>
      <point x="913" y="-34"/>
      <point x="913" y="-34" type="curve"/>
      <point x="942" y="-16"/>
      <point x="1004" y="36"/>
      <point x="1016" y="67" type="curve"/>
      <point x="1002" y="315"/>
      <point x="1000" y="616"/>
      <point x="1011" y="960" type="curve"/>
      <point x="986" y="1000" type="line"/>
      <point x="832" y="907"/>
      <point x="692" y="856"/>
      <point x="562" y="854" type="curve" smooth="yes"/>
      <point x="420" y="852"/>
      <point x="308" y="901"/>
    </contour>
  </outline>
    <anchor name="L" x="548" y="-100"/>
    <anchor name="V" x="997" y="50"/>
    <anchor name="O" x="937" y="1050"/>
    <anchor name="U" x="548" y="1050"/>
    <anchor name="K" x="585" y="1050"/>
</glyph>
<glyph name="uni1919" format="2">
  <advance width="1067"/>
  <unicode hex="1919"/>
  <anchor x="520" y="1050" name="K"/>
  <anchor x="533" y="-100" name="L"/>
  <anchor x="670" y="1050" name="O"/>
  <anchor x="560" y="1050" name="U"/>
  <anchor x="660" y="50" name="V"/>
  <outline>
    <contour>
      <point x="680" y="970" type="line"/>
      <point x="651" y="949"/>
      <point x="616" y="915"/>
      <point x="593" y="885" type="curve"/>
      <point x="623" y="845" type="line"/>
      <point x="958" y="845" type="line"/>
      <point x="1007" y="870"/>
      <point x="1031" y="894"/>
      <point x="1067" y="930" type="curve"/>
      <point x="1041" y="970" type="line"/>
    </contour>
    <contour>
      <point x="740" y="409" type="curve" smooth="yes"/>
      <point x="741" y="524"/>
      <point x="734" y="666"/>
      <point x="735" y="928" type="curve"/>
      <point x="593" y="885" type="line"/>
      <point x="591" y="686"/>
      <point x="601" y="524"/>
      <point x="599" y="382" type="curve"/>
      <point x="600" y="174"/>
      <point x="551" y="96"/>
      <point x="437" y="96" type="curve" smooth="yes"/>
      <point x="378" y="96"/>
      <point x="336" y="113"/>
      <point x="299" y="141" type="curve" smooth="yes"/>
      <point x="234" y="189"/>
      <point x="229" y="241"/>
      <point x="229" y="390" type="curve" smooth="yes"/>
      <point x="229" y="541"/>
      <point x="229" y="746"/>
      <point x="234" y="960" type="curve"/>
      <point x="202" y="1000" type="line"/>
      <point x="159" y="976"/>
      <point x="118" y="938"/>
      <point x="80" y="888" type="curve"/>
      <point x="84" y="662"/>
      <point x="84" y="387"/>
      <point x="84" y="317" type="curve" smooth="yes"/>
      <point x="84" y="169"/>
      <point x="98" y="96"/>
      <point x="189" y="29" type="curve" smooth="yes"/>
      <point x="238" y="-8"/>
      <point x="297" y="-34"/>
      <point x="373" y="-34" type="curve" smooth="yes"/>
      <point x="522" y="-34"/>
      <point x="738" y="139"/>
    </contour>
  </outline>
</glyph>
<glyph name="uni191A" format="2">
  <advance width="842"/>
  <unicode hex="191A"/>
  <outline>
    <contour>
      <point x="50" y="568" type="curve" smooth="yes" name="hr01"/>
      <point x="50" y="375"/>
      <point x="165" y="257"/>
      <point x="320" y="257" type="curve" smooth="yes"/>
      <point x="499" y="257"/>
      <point x="726" y="477"/>
      <point x="726" y="678" type="curve" smooth="yes"/>
      <point x="726" y="866"/>
      <point x="610" y="990"/>
      <point x="435" y="990" type="curve" smooth="yes"/>
      <point x="381" y="990"/>
      <point x="303" y="968"/>
      <point x="233" y="920" type="curve" smooth="yes"/>
      <point x="143" y="858"/>
      <point x="50" y="755"/>
    </contour>
    <contour>
      <point x="193" y="645" type="curve" smooth="yes"/>
      <point x="193" y="832"/>
      <point x="294" y="879"/>
      <point x="358" y="879" type="curve" smooth="yes"/>
      <point x="490" y="879"/>
      <point x="610" y="817"/>
      <point x="610" y="617" type="curve" smooth="yes"/>
      <point x="610" y="543"/>
      <point x="501" y="370"/>
      <point x="384" y="370" type="curve" smooth="yes"/>
      <point x="277" y="370"/>
      <point x="193" y="476"/>
    </contour>
    <contour>
      <point x="611" y="876" type="curve"/>
      <point x="609" y="590"/>
      <point x="596" y="261"/>
      <point x="607" y="-3" type="curve"/>
      <point x="607" y="-3"/>
      <point x="655" y="-37"/>
      <point x="656" y="-34" type="curve"/>
      <point x="685" y="-16"/>
      <point x="748" y="36"/>
      <point x="760" y="67" type="curve"/>
      <point x="746" y="315"/>
      <point x="745" y="616"/>
      <point x="755" y="960" type="curve" name="hr02"/>
      <point x="729" y="1000" type="line"/>
      <point x="696" y="978"/>
      <point x="650" y="935"/>
    </contour>
  </outline>
    <anchor name="L" x="421" y="-100"/>
    <anchor name="V" x="740" y="50"/>
    <anchor name="O" x="682" y="1050"/>
    <anchor name="U" x="421" y="1050"/>
    <anchor name="K" x="440" y="1050"/>
</glyph>
<glyph name="sa-limb" format="2">
  <advance width="1081"/>
  <unicode hex="191B"/>
  <anchor x="600" y="1050" name="K"/>
  <anchor x="540" y="-100" name="L"/>
  <anchor x="921" y="1050" name="O"/>
  <anchor x="580" y="1050" name="U"/>
  <anchor x="981" y="50" name="V"/>
  <outline>
    <contour>
      <point x="1000" y="67" type="curve"/>
      <point x="988" y="354"/>
      <point x="994" y="502"/>
      <point x="995" y="754" type="curve" smooth="yes"/>
      <point x="996" y="941"/>
      <point x="963" y="980"/>
      <point x="856" y="980" type="curve" smooth="yes"/>
      <point x="708" y="980"/>
      <point x="553" y="970"/>
      <point x="405" y="987" type="curve"/>
      <point x="376" y="967"/>
      <point x="397" y="980"/>
      <point x="374" y="951" type="curve"/>
      <point x="415" y="861" type="line"/>
      <point x="554" y="847"/>
      <point x="672" y="857"/>
      <point x="767" y="854" type="curve" smooth="yes"/>
      <point x="831" y="852"/>
      <point x="853" y="808"/>
      <point x="850" y="636" type="curve"/>
      <point x="844" y="420"/>
      <point x="839" y="196"/>
      <point x="847" y="-3" type="curve"/>
      <point x="847" y="-3"/>
      <point x="896" y="-34"/>
      <point x="896" y="-34" type="curve"/>
      <point x="925" y="-16"/>
      <point x="988" y="37"/>
    </contour>
    <contour>
      <point x="50" y="648" type="curve" smooth="yes"/>
      <point x="50" y="455"/>
      <point x="195" y="307"/>
      <point x="350" y="307" type="curve" smooth="yes"/>
      <point x="485" y="307"/>
      <point x="636" y="417"/>
      <point x="636" y="618" type="curve" smooth="yes"/>
      <point x="636" y="807"/>
      <point x="513" y="990"/>
      <point x="375" y="990" type="curve" smooth="yes"/>
      <point x="329" y="990"/>
      <point x="262" y="970"/>
      <point x="193" y="920" type="curve" smooth="yes"/>
      <point x="73" y="833"/>
      <point x="50" y="749"/>
    </contour>
    <contour>
      <point x="193" y="745" type="curve" smooth="yes"/>
      <point x="193" y="824"/>
      <point x="234" y="879"/>
      <point x="298" y="879" type="curve" smooth="yes"/>
      <point x="408" y="879"/>
      <point x="490" y="653"/>
      <point x="490" y="527" type="curve" smooth="yes"/>
      <point x="490" y="455"/>
      <point x="460" y="420"/>
      <point x="414" y="420" type="curve" smooth="yes"/>
      <point x="307" y="420"/>
      <point x="193" y="538"/>
    </contour>
  </outline>
</glyph>
<glyph name="uni191B" format="2">
  <advance width="1081"/>
  <unicode hex="191B"/>
  <outline>
    <contour>
      <point x="1000" y="67" type="curve" name="hr00"/>
      <point x="988" y="354"/>
      <point x="994" y="502"/>
      <point x="995" y="754" type="curve" smooth="yes"/>
      <point x="996" y="941"/>
      <point x="963" y="980"/>
      <point x="856" y="980" type="curve" smooth="yes"/>
      <point x="708" y="980"/>
      <point x="553" y="970"/>
      <point x="405" y="987" type="curve"/>
      <point x="376" y="967"/>
      <point x="397" y="980"/>
      <point x="374" y="951" type="curve"/>
      <point x="415" y="861" type="line"/>
      <point x="554" y="847"/>
      <point x="672" y="857"/>
      <point x="767" y="854" type="curve" smooth="yes"/>
      <point x="831" y="852"/>
      <point x="853" y="808"/>
      <point x="850" y="636" type="curve"/>
      <point x="844" y="420"/>
      <point x="839" y="196"/>
      <point x="847" y="-3" type="curve"/>
      <point x="847" y="-3"/>
      <point x="896" y="-34"/>
      <point x="896" y="-34" type="curve"/>
      <point x="925" y="-16"/>
      <point x="988" y="37"/>
    </contour>
    <contour>
      <point x="50" y="648" type="curve" smooth="yes"/>
      <point x="50" y="455"/>
      <point x="195" y="307"/>
      <point x="350" y="307" type="curve" smooth="yes"/>
      <point x="485" y="307"/>
      <point x="636" y="417"/>
      <point x="636" y="618" type="curve" smooth="yes"/>
      <point x="636" y="807"/>
      <point x="513" y="990"/>
      <point x="375" y="990" type="curve" smooth="yes"/>
      <point x="329" y="990"/>
      <point x="262" y="970"/>
      <point x="193" y="920" type="curve" smooth="yes"/>
      <point x="73" y="833"/>
      <point x="50" y="749"/>
    </contour>
    <contour>
      <point x="193" y="745" type="curve" smooth="yes"/>
      <point x="193" y="824"/>
      <point x="234" y="879"/>
      <point x="298" y="879" type="curve" smooth="yes"/>
      <point x="408" y="879"/>
      <point x="490" y="653"/>
      <point x="490" y="527" type="curve" smooth="yes"/>
      <point x="490" y="455"/>
      <point x="460" y="420"/>
      <point x="414" y="420" type="curve" smooth="yes"/>
      <point x="307" y="420"/>
      <point x="193" y="538"/>
    </contour>
  </outline>
    <anchor name="L" x="540" y="-100"/>
    <anchor name="V" x="981" y="50"/>
    <anchor name="O" x="921" y="1050"/>
    <anchor name="U" x="580" y="1050"/>
    <anchor name="K" x="600" y="1050"/>
</glyph>
<glyph name="uni191C" format="2">
  <advance width="1030"/>
  <unicode hex="191C"/>
  <outline>
    <contour>
      <point x="847" y="845" type="line" name="hr00"/>
      <point x="864" y="884"/>
      <point x="887" y="907"/>
      <point x="956" y="930" type="curve"/>
      <point x="930" y="970" type="line"/>
      <point x="419" y="970" type="line"/>
      <point x="389" y="949"/>
      <point x="383" y="912"/>
      <point x="360" y="882" type="curve"/>
      <point x="346" y="845" type="line"/>
    </contour>
    <contour>
      <point x="419" y="970" type="line"/>
      <point x="267" y="901"/>
      <point x="50" y="699"/>
      <point x="51" y="435" type="curve" smooth="yes"/>
      <point x="52" y="103"/>
      <point x="308" y="-34"/>
      <point x="524" y="-34" type="curve" smooth="yes"/>
      <point x="703" y="-34"/>
      <point x="846" y="36"/>
      <point x="990" y="188" type="curve"/>
      <point x="959" y="234" type="line"/>
      <point x="826" y="136"/>
      <point x="714" y="96"/>
      <point x="579" y="96" type="curve" smooth="yes"/>
      <point x="412" y="96"/>
      <point x="201" y="199"/>
      <point x="201" y="500" type="curve" smooth="yes"/>
      <point x="201" y="778"/>
      <point x="386" y="914"/>
      <point x="607" y="958" type="curve"/>
    </contour>
    <contour>
      <point x="985" y="386" type="curve"/>
      <point x="963" y="416" type="line"/>
      <point x="881" y="443"/>
      <point x="717" y="504"/>
      <point x="597" y="552" type="curve"/>
      <point x="703" y="651"/>
      <point x="873" y="803"/>
      <point x="956" y="930" type="curve"/>
      <point x="873" y="942" type="line"/>
      <point x="747" y="801"/>
      <point x="605" y="678"/>
      <point x="394" y="492" type="curve"/>
      <point x="418" y="454" type="line"/>
      <point x="514" y="409"/>
      <point x="728" y="336"/>
      <point x="878" y="293" type="curve"/>
      <point x="916" y="316"/>
      <point x="960" y="353"/>
    </contour>
  </outline>
    <anchor name="L" x="515" y="-100"/>
    <anchor name="V" x="870" y="50"/>
    <anchor name="O" x="870" y="1050"/>
    <anchor name="U" x="540" y="1050"/>
    <anchor name="K" x="600" y="1050"/>
</glyph>
<glyph name="uni191D" format="2">
  <advance width="965"/>
  <unicode hex="191D"/>
  <anchor x="549" y="1050" name="K"/>
  <anchor x="539" y="-100" name="L"/>
  <anchor x="779" y="1050" name="O"/>
  <anchor x="539" y="1050" name="U"/>
  <anchor x="684" y="50" name="V"/>
  <outline>
    <contour>
      <point x="849" y="457" type="curve" smooth="yes"/>
      <point x="849" y="617"/>
      <point x="752" y="673"/>
      <point x="589" y="673" type="curve" smooth="yes"/>
      <point x="527" y="673"/>
      <point x="447" y="652"/>
      <point x="363" y="623" type="curve"/>
      <point x="332" y="595"/>
      <point x="293" y="549"/>
      <point x="263" y="503" type="curve"/>
      <point x="358" y="535"/>
      <point x="466" y="555"/>
      <point x="529" y="553" type="curve" smooth="yes"/>
      <point x="646" y="550"/>
      <point x="709" y="500"/>
      <point x="709" y="384" type="curve" smooth="yes"/>
      <point x="709" y="252"/>
      <point x="614" y="127"/>
      <point x="500" y="-4" type="curve"/>
      <point x="522" y="-34" type="line"/>
      <point x="564" y="-28"/>
      <point x="651" y="-8"/>
      <point x="691" y="11" type="curve"/>
      <point x="728" y="215"/>
      <point x="849" y="314"/>
    </contour>
    <contour>
      <point x="129" y="970" type="line"/>
      <point x="99" y="949"/>
      <point x="63" y="915"/>
      <point x="40" y="885" type="curve"/>
      <point x="69" y="845" type="line"/>
      <point x="827" y="845" type="line"/>
      <point x="876" y="870"/>
      <point x="901" y="894"/>
      <point x="935" y="930" type="curve"/>
      <point x="910" y="970" type="line"/>
    </contour>
    <contour>
      <point x="232" y="903" type="line"/>
      <point x="228" y="675"/>
      <point x="223" y="437"/>
      <point x="231" y="237" type="curve"/>
      <point x="231" y="237"/>
      <point x="279" y="203"/>
      <point x="280" y="206" type="curve"/>
      <point x="309" y="224"/>
      <point x="372" y="276"/>
      <point x="384" y="307" type="curve"/>
      <point x="374" y="481"/>
      <point x="371" y="682"/>
      <point x="373" y="905" type="curve"/>
    </contour>
  </outline>
</glyph>
<glyph name="uni1920" format="2">
  <unicode hex="1920"/>
  <anchor x="-260" y="1250" name="K"/>
  <anchor x="-500" y="1050" name="_U"/>
  <outline>
    <contour>
      <point x="-630" y="1220" type="line"/>
      <point x="-580" y="1260"/>
      <point x="-559" y="1302"/>
      <point x="-559" y="1342" type="curve" smooth="yes"/>
      <point x="-559" y="1416"/>
      <point x="-616" y="1455"/>
      <point x="-678" y="1455" type="curve" smooth="yes"/>
      <point x="-815" y="1455"/>
      <point x="-930" y="1361"/>
      <point x="-930" y="1232" type="curve" smooth="yes"/>
      <point x="-930" y="1167"/>
      <point x="-879" y="1095"/>
      <point x="-767" y="1095" type="curve" smooth="yes"/>
      <point x="-156" y="1095" type="line"/>
      <point x="-108" y="1120"/>
      <point x="-85" y="1144"/>
      <point x="-50" y="1180" type="curve"/>
      <point x="-74" y="1220" type="line"/>
    </contour>
    <contour>
      <point x="-821" y="1285" type="curve" smooth="yes"/>
      <point x="-821" y="1324"/>
      <point x="-786" y="1370"/>
      <point x="-748" y="1370" type="curve" smooth="yes"/>
      <point x="-706" y="1370"/>
      <point x="-678" y="1345"/>
      <point x="-678" y="1300" type="curve" smooth="yes"/>
      <point x="-678" y="1256"/>
      <point x="-712" y="1215"/>
      <point x="-751" y="1215" type="curve" smooth="yes"/>
      <point x="-790" y="1215"/>
      <point x="-821" y="1246"/>
    </contour>
  </outline>
</glyph>
<glyph name="uni1921" format="2">
  <advance width="425"/>
  <unicode hex="1921"/>
  <outline>
    <contour>
      <point x="76" y="970" type="line" name="hr00"/>
      <point x="50" y="942"/>
      <point x="13" y="901"/>
      <point x="-13" y="880" type="curve"/>
      <point x="16" y="845" type="line"/>
      <point x="317" y="845" type="line"/>
      <point x="366" y="870"/>
      <point x="391" y="893"/>
      <point x="425" y="929" type="curve"/>
      <point x="400" y="970" type="line"/>
    </contour>
    <contour>
      <point x="-381" y="1264" type="curve" smooth="yes"/>
      <point x="-381" y="1182"/>
      <point x="-328" y="1119"/>
      <point x="-219" y="1013" type="curve"/>
      <point x="-184" y="1032"/>
      <point x="-175" y="1030"/>
      <point x="-142" y="1047" type="curve"/>
      <point x="-216" y="1129"/>
      <point x="-246" y="1177"/>
      <point x="-246" y="1222" type="curve" smooth="yes"/>
      <point x="-246" y="1276"/>
      <point x="-159" y="1301"/>
      <point x="-22" y="1301" type="curve" smooth="yes"/>
      <point x="136" y="1301"/>
      <point x="203" y="1273"/>
      <point x="203" y="1222" type="curve" smooth="yes"/>
      <point x="203" y="1174"/>
      <point x="174" y="1088"/>
      <point x="35" y="920" type="curve"/>
      <point x="33" y="919"/>
      <point x="97" y="902"/>
      <point x="124" y="932" type="curve" smooth="yes"/>
      <point x="267" y="1089"/>
      <point x="348" y="1182"/>
      <point x="348" y="1264" type="curve" smooth="yes"/>
      <point x="348" y="1360"/>
      <point x="226" y="1426"/>
      <point x="-22" y="1426" type="curve" smooth="yes"/>
      <point x="-262" y="1426"/>
      <point x="-381" y="1358"/>
    </contour>
  </outline>
    <anchor name="K" x="-671" y="1050"/>
</glyph>
<glyph name="uni1922" format="2">
  <advance width="0"/>
  <unicode hex="1922"/>
  <outline>
    <contour>
      <point x="-81" y="70" type="curve" name="hr01"/>
      <point x="-87" y="77"/>
      <point x="-99" y="85"/>
      <point x="-108" y="91" type="curve"/>
      <point x="-150" y="51"/>
      <point x="-176" y="25"/>
      <point x="-234" y="-0" type="curve"/>
      <point x="-226" y="-190"/>
      <point x="-344" y="-372"/>
      <point x="-530" y="-369" type="curve"/>
      <point x="-480" y="-328"/>
      <point x="-423" y="-264"/>
      <point x="-423" y="-225" type="curve" smooth="yes"/>
      <point x="-423" y="-150"/>
      <point x="-470" y="-110"/>
      <point x="-531" y="-110" type="curve" smooth="yes"/>
      <point x="-659" y="-110"/>
      <point x="-813" y="-204"/>
      <point x="-813" y="-354" type="curve" smooth="yes"/>
      <point x="-813" y="-420"/>
      <point x="-745" y="-476"/>
      <point x="-605" y="-476" type="curve" smooth="yes"/>
      <point x="-250" y="-476"/>
      <point x="-82" y="-91"/>
    </contour>
    <contour>
      <point x="-558" y="-265" type="curve" smooth="yes"/>
      <point x="-558" y="-305"/>
      <point x="-589" y="-342"/>
      <point x="-625" y="-342" type="curve" smooth="yes"/>
      <point x="-660" y="-342"/>
      <point x="-688" y="-314"/>
      <point x="-688" y="-278" type="curve" smooth="yes"/>
      <point x="-688" y="-243"/>
      <point x="-657" y="-202"/>
      <point x="-622" y="-202" type="curve" smooth="yes" name="hr02"/>
      <point x="-584" y="-202"/>
      <point x="-558" y="-224"/>
    </contour>
  </outline>
    <anchor name="_V" x="-100" y="50"/>
</glyph>
<glyph name="uni1923" format="2">
  <advance width="560"/>
  <unicode hex="1923"/>
  <outline>
    <contour>
      <point x="500" y="769" type="curve" smooth="yes" name="hr00"/>
      <point x="500" y="881"/>
      <point x="454" y="985"/>
      <point x="346" y="985" type="curve" smooth="yes"/>
      <point x="196" y="985"/>
      <point x="47" y="827"/>
      <point x="47" y="708" type="curve" smooth="yes"/>
      <point x="47" y="619"/>
      <point x="101" y="569"/>
      <point x="191" y="569" type="curve" smooth="yes"/>
      <point x="236" y="569"/>
      <point x="310" y="596"/>
      <point x="355" y="645" type="curve"/>
      <point x="323" y="412"/>
      <point x="201" y="187"/>
      <point x="30" y="11" type="curve"/>
      <point x="42" y="-1"/>
      <point x="75" y="-25"/>
      <point x="94" y="-33" type="curve"/>
      <point x="299" y="128"/>
      <point x="500" y="502"/>
    </contour>
    <contour>
      <point x="175" y="752" type="curve" smooth="yes"/>
      <point x="175" y="804"/>
      <point x="223" y="865"/>
      <point x="273" y="865" type="curve" smooth="yes"/>
      <point x="325" y="865"/>
      <point x="351" y="822"/>
      <point x="351" y="771" type="curve" smooth="yes"/>
      <point x="351" y="731"/>
      <point x="288" y="685"/>
      <point x="252" y="685" type="curve" smooth="yes"/>
      <point x="208" y="685"/>
      <point x="175" y="708"/>
    </contour>
  </outline>
</glyph>
<glyph name="uni1924" format="2">
  <advance width="1070"/>
  <unicode hex="1924"/>
  <outline>
    <contour>
      <point x="490" y="769" type="curve" smooth="yes" name="hr00"/>
      <point x="490" y="881"/>
      <point x="444" y="985"/>
      <point x="336" y="985" type="curve" smooth="yes"/>
      <point x="186" y="985"/>
      <point x="37" y="827"/>
      <point x="37" y="708" type="curve" smooth="yes"/>
      <point x="37" y="619"/>
      <point x="91" y="569"/>
      <point x="181" y="569" type="curve" smooth="yes"/>
      <point x="226" y="569"/>
      <point x="300" y="596"/>
      <point x="345" y="645" type="curve"/>
      <point x="313" y="412"/>
      <point x="201" y="186"/>
      <point x="30" y="10" type="curve"/>
      <point x="42" y="-2"/>
      <point x="75" y="-26"/>
      <point x="94" y="-34" type="curve"/>
      <point x="299" y="127"/>
      <point x="490" y="502"/>
    </contour>
    <contour>
      <point x="165" y="752" type="curve" smooth="yes"/>
      <point x="165" y="804"/>
      <point x="213" y="865"/>
      <point x="263" y="865" type="curve" smooth="yes"/>
      <point x="315" y="865"/>
      <point x="340" y="822"/>
      <point x="340" y="771" type="curve" smooth="yes"/>
      <point x="340" y="731"/>
      <point x="278" y="685"/>
      <point x="242" y="685" type="curve" smooth="yes"/>
      <point x="198" y="685"/>
      <point x="165" y="708"/>
    </contour>
    <contour>
      <point x="1010" y="796" type="curve" smooth="yes"/>
      <point x="1010" y="880"/>
      <point x="964" y="985"/>
      <point x="856" y="985" type="curve" smooth="yes"/>
      <point x="706" y="985"/>
      <point x="557" y="827"/>
      <point x="557" y="708" type="curve" smooth="yes"/>
      <point x="557" y="619"/>
      <point x="611" y="569"/>
      <point x="701" y="569" type="curve" smooth="yes"/>
      <point x="746" y="569"/>
      <point x="797" y="579"/>
      <point x="835" y="614" type="curve"/>
      <point x="762" y="433"/>
      <point x="623" y="232"/>
      <point x="287" y="20" type="curve"/>
      <point x="298" y="2"/>
      <point x="315" y="-21"/>
      <point x="332" y="-34" type="curve"/>
      <point x="630" y="98"/>
      <point x="1010" y="493"/>
    </contour>
    <contour>
      <point x="685" y="752" type="curve" smooth="yes"/>
      <point x="685" y="804"/>
      <point x="733" y="865"/>
      <point x="783" y="865" type="curve" smooth="yes"/>
      <point x="835" y="865"/>
      <point x="860" y="822"/>
      <point x="860" y="771" type="curve" smooth="yes"/>
      <point x="860" y="731"/>
      <point x="798" y="685"/>
      <point x="762" y="685" type="curve" smooth="yes"/>
      <point x="718" y="685"/>
      <point x="685" y="708"/>
    </contour>
  </outline>
</glyph>
<glyph name="uni1927" format="2">
  <advance width="0"/>
  <unicode hex="1927"/>
  <outline>
    <contour>
      <point x="-809" y="1372" type="curve" name="hr00"/>
      <point x="-732" y="1288"/>
      <point x="-529" y="1123"/>
      <point x="-375" y="1054" type="curve"/>
      <point x="-344" y="1076"/>
      <point x="-335" y="1092"/>
      <point x="-315" y="1110" type="curve"/>
      <point x="-432" y="1206"/>
      <point x="-611" y="1378"/>
      <point x="-683" y="1463" type="curve"/>
      <point x="-729" y="1441"/>
      <point x="-779" y="1406"/>
    </contour>
  </outline>
    <anchor name="_O" x="-300" y="1050"/>
    <anchor name="K" x="-300" y="1250"/>
</glyph>
<glyph name="uni1929" format="2">
  <advance width="477"/>
  <unicode hex="1929"/>
  <outline>
    <contour>
      <point x="462" y="355" type="line" name="hr00"/>
      <point x="299" y="250"/>
      <point x="269" y="55"/>
      <point x="223" y="55" type="curve" smooth="yes"/>
      <point x="161" y="55"/>
      <point x="208" y="262"/>
      <point x="120" y="258" type="curve" smooth="yes"/>
      <point x="33" y="254"/>
      <point x="-84" y="155"/>
      <point x="-163" y="59" type="curve"/>
      <point x="-119" y="18" type="line"/>
      <point x="-77" y="68"/>
      <point x="-6" y="134"/>
      <point x="29" y="134" type="curve" smooth="yes"/>
      <point x="88" y="134"/>
      <point x="22" y="-94"/>
      <point x="183" y="-94" type="curve" smooth="yes"/>
      <point x="263" y="-94"/>
      <point x="286" y="-32"/>
      <point x="372" y="153" type="curve" smooth="yes"/>
      <point x="408" y="229"/>
      <point x="438" y="278"/>
      <point x="487" y="314" type="curve"/>
    </contour>
  </outline>
</glyph>
<glyph name="uni192A" format="2">
  <unicode hex="192A"/>
  <outline>
    <contour>
      <point x="-372" y="-305" type="line"/>
      <point x="-309" y="-247"/>
      <point x="-234" y="-172"/>
      <point x="-171" y="-87" type="curve"/>
      <point x="-122" y="-190"/>
      <point x="-81" y="-252"/>
      <point x="8" y="-305" type="curve"/>
      <point x="42" y="-278"/>
      <point x="68" y="-242"/>
      <point x="80" y="-191" type="curve"/>
      <point x="16" y="-144"/>
      <point x="-41" y="-47"/>
      <point x="-80" y="57" type="curve"/>
      <point x="-83" y="58"/>
      <point x="-113" y="71"/>
      <point x="-122" y="76" type="curve"/>
      <point x="-228" y="-63"/>
      <point x="-295" y="-159"/>
      <point x="-405" y="-273" type="curve"/>
    </contour>
  </outline>
</glyph>
<glyph name="uni192B" format="2">
  <advance width="474"/>
  <unicode hex="192B"/>
  <anchor x="-135" y="-40" name="G"/>
  <outline>
    <contour>
      <point x="131" y="324" type="curve" smooth="yes"/>
      <point x="45" y="321"/>
      <point x="-65" y="205"/>
      <point x="-175" y="48" type="curve"/>
      <point x="-122" y="7" type="line"/>
      <point x="-68" y="97"/>
      <point x="39" y="216"/>
      <point x="76" y="216" type="curve" smooth="yes"/>
      <point x="96" y="216"/>
      <point x="100" y="201"/>
      <point x="100" y="184" type="curve" smooth="yes"/>
      <point x="100" y="130"/>
      <point x="55" y="57"/>
      <point x="55" y="-9" type="curve" smooth="yes"/>
      <point x="55" y="-46"/>
      <point x="88" y="-79"/>
      <point x="142" y="-79" type="curve" smooth="yes"/>
      <point x="221" y="-79"/>
      <point x="293" y="-37"/>
      <point x="318" y="39" type="curve"/>
      <point x="310" y="145" type="line"/>
      <point x="284" y="62"/>
      <point x="240" y="29"/>
      <point x="213" y="29" type="curve" smooth="yes"/>
      <point x="187" y="29"/>
      <point x="180" y="43"/>
      <point x="180" y="67" type="curve" smooth="yes"/>
      <point x="180" y="101"/>
      <point x="214" y="174"/>
      <point x="214" y="250" type="curve" smooth="yes"/>
      <point x="214" y="297"/>
      <point x="182" y="326"/>
    </contour>
    <contour>
      <point x="434" y="-71" type="curve"/>
      <point x="421" y="51"/>
      <point x="415" y="130"/>
      <point x="426" y="291" type="curve"/>
      <point x="389" y="323" type="line"/>
      <point x="363" y="305"/>
      <point x="331" y="279"/>
      <point x="313" y="258" type="curve"/>
      <point x="305" y="89"/>
      <point x="312" y="30"/>
      <point x="322" y="-143" type="curve"/>
      <point x="322" y="-143"/>
      <point x="371" y="-172"/>
      <point x="371" y="-172" type="curve"/>
      <point x="396" y="-149"/>
      <point x="421" y="-102"/>
    </contour>
  </outline>
</glyph>
<glyph name="uni1930" format="2">
  <advance width="823"/>
  <unicode hex="1930"/>
  <anchor x="411" y="-100" name="L"/>
  <outline>
    <contour>
      <point x="-116" y="970" type="line"/>
      <point x="-146" y="949"/>
      <point x="-182" y="910"/>
      <point x="-205" y="880" type="curve"/>
      <point x="-176" y="845" type="line"/>
      <point x="685" y="845" type="line"/>
      <point x="733" y="870"/>
      <point x="758" y="893"/>
      <point x="793" y="929" type="curve"/>
      <point x="768" y="970" type="line"/>
    </contour>
    <contour>
      <point x="370" y="881" type="line"/>
      <point x="203" y="840"/>
      <point x="59" y="693"/>
      <point x="60" y="536" type="curve"/>
      <point x="60" y="414"/>
      <point x="189" y="320"/>
      <point x="336" y="320" type="curve" smooth="yes"/>
      <point x="489" y="320"/>
      <point x="667" y="466"/>
      <point x="736" y="585" type="curve"/>
      <point x="704" y="631" type="line"/>
      <point x="630" y="541"/>
      <point x="527" y="463"/>
      <point x="432" y="463" type="curve" smooth="yes"/>
      <point x="326" y="463"/>
      <point x="215" y="519"/>
      <point x="215" y="606" type="curve" smooth="yes"/>
      <point x="215" y="713"/>
      <point x="300" y="825"/>
      <point x="539" y="877" type="curve"/>
    </contour>
  </outline>
</glyph>
<glyph name="uni1931" format="2">
  <advance width="549"/>
  <unicode hex="1931"/>
  <outline>
    <contour>
      <point x="509" y="249" type="curve" smooth="yes" name="hr00"/>
      <point x="509" y="363"/>
      <point x="440" y="450"/>
      <point x="329" y="450" type="curve" smooth="yes"/>
      <point x="184" y="450"/>
      <point x="30" y="310"/>
      <point x="30" y="173" type="curve" smooth="yes"/>
      <point x="30" y="54"/>
      <point x="111" y="-19"/>
      <point x="206" y="-19" type="curve" smooth="yes"/>
      <point x="360" y="-19"/>
      <point x="509" y="133"/>
    </contour>
    <contour>
      <point x="156" y="227" type="curve" smooth="yes"/>
      <point x="156" y="278"/>
      <point x="195" y="340"/>
      <point x="242" y="340" type="curve" smooth="yes"/>
      <point x="318" y="340"/>
      <point x="379" y="294"/>
      <point x="379" y="211" type="curve" smooth="yes"/>
      <point x="379" y="158"/>
      <point x="354" y="100"/>
      <point x="292" y="100" type="curve" smooth="yes"/>
      <point x="221" y="100"/>
      <point x="156" y="149"/>
    </contour>
  </outline>
    <anchor name="L" x="274" y="-100"/>
</glyph>
<glyph name="uni1933" format="2">
  <advance width="531"/>
  <unicode hex="1933"/>
  <outline>
    <contour>
      <point x="-100" y="-240" type="curve" name="hr00"/>
      <point x="-100" y="-249"/>
      <point x="-82" y="-268"/>
      <point x="-72" y="-277" type="curve"/>
      <point x="5" y="-188"/>
      <point x="96" y="-140"/>
      <point x="146" y="-141" type="curve" smooth="yes"/>
      <point x="266" y="-142"/>
      <point x="328" y="-182"/>
      <point x="430" y="-299" type="curve"/>
      <point x="468" y="-277"/>
      <point x="522" y="-230"/>
      <point x="551" y="-178" type="curve"/>
      <point x="478" y="-76"/>
      <point x="361" y="-20"/>
      <point x="245" y="-19" type="curve" smooth="yes"/>
      <point x="103" y="-17"/>
      <point x="-24" y="-108"/>
    </contour>
  </outline>
</glyph>
<glyph name="uni1934" format="2">
  <advance width="787"/>
  <unicode hex="1934"/>
  <outline>
    <contour>
      <point x="-111" y="970" type="line" name="hr00"/>
      <point x="-139" y="949"/>
      <point x="-177" y="910"/>
      <point x="-200" y="880" type="curve"/>
      <point x="-170" y="845" type="line"/>
      <point x="-61" y="845" type="line" smooth="yes"/>
      <point x="36" y="845"/>
      <point x="78" y="667"/>
      <point x="104" y="557" type="curve" smooth="yes"/>
      <point x="141" y="403"/>
      <point x="261" y="357"/>
      <point x="408" y="357" type="curve" smooth="yes"/>
      <point x="575" y="357"/>
      <point x="727" y="494"/>
      <point x="727" y="656" type="curve" smooth="yes"/>
      <point x="727" y="770"/>
      <point x="667" y="825"/>
      <point x="565" y="825" type="curve" smooth="yes"/>
      <point x="447" y="825"/>
      <point x="295" y="704"/>
      <point x="295" y="563" type="curve" smooth="yes"/>
      <point x="295" y="501"/>
      <point x="323" y="469"/>
      <point x="355" y="453" type="curve"/>
      <point x="433" y="426" type="line"/>
      <point x="453" y="425"/>
      <point x="533" y="473"/>
      <point x="533" y="478" type="curve"/>
      <point x="434" y="447"/>
      <point x="404" y="511"/>
      <point x="404" y="566" type="curve" smooth="yes"/>
      <point x="404" y="662"/>
      <point x="469" y="698"/>
      <point x="508" y="699" type="curve" smooth="yes"/>
      <point x="573" y="700"/>
      <point x="598" y="661"/>
      <point x="598" y="602" type="curve" smooth="yes"/>
      <point x="598" y="541"/>
      <point x="550" y="454"/>
      <point x="435" y="454" type="curve" smooth="yes"/>
      <point x="306" y="454"/>
      <point x="240" y="487"/>
      <point x="202" y="662" type="curve" smooth="yes"/>
      <point x="176" y="780"/>
      <point x="123" y="970"/>
      <point x="-2" y="970" type="curve" smooth="yes"/>
    </contour>
  </outline>
    <anchor name="L" x="393" y="-100"/>
</glyph>
<glyph name="uni1935" format="2">
  <advance width="751"/>
  <unicode hex="1935"/>
  <outline>
    <contour>
      <point x="517" y="877" type="curve" name="hr00"/>
      <point x="515" y="591"/>
      <point x="504" y="258"/>
      <point x="516" y="-6" type="curve"/>
      <point x="516" y="-6"/>
      <point x="564" y="-36"/>
      <point x="564" y="-34" type="curve"/>
      <point x="593" y="-16"/>
      <point x="656" y="34"/>
      <point x="668" y="64" type="curve"/>
      <point x="654" y="312"/>
      <point x="651" y="616"/>
      <point x="661" y="960" type="curve"/>
      <point x="636" y="1000" type="line"/>
      <point x="602" y="978"/>
      <point x="556" y="936"/>
    </contour>
    <contour>
      <point x="-111" y="970" type="line"/>
      <point x="-141" y="949"/>
      <point x="-177" y="910"/>
      <point x="-200" y="880" type="curve"/>
      <point x="-171" y="845" type="line"/>
      <point x="-46" y="845" type="line" smooth="yes"/>
      <point x="201" y="845"/>
      <point x="15" y="391"/>
      <point x="319" y="392" type="curve"/>
      <point x="444" y="392"/>
      <point x="648" y="575"/>
      <point x="647" y="754" type="curve" smooth="yes"/>
      <point x="646" y="972"/>
      <point x="519" y="822"/>
      <point x="519" y="799" type="curve" smooth="yes"/>
      <point x="519" y="668"/>
      <point x="467" y="513"/>
      <point x="381" y="513" type="curve" smooth="yes"/>
      <point x="158" y="513"/>
      <point x="330" y="970"/>
      <point x="37" y="970" type="curve" smooth="yes"/>
    </contour>
  </outline>
    <anchor name="L" x="375" y="-100"/>
</glyph>
<glyph name="uni1936" format="2">
  <advance width="839"/>
  <unicode hex="1936"/>
  <outline>
    <contour>
      <point x="-106" y="970" type="line" name="hr01"/>
      <point x="-136" y="949"/>
      <point x="-172" y="910"/>
      <point x="-195" y="880" type="curve"/>
      <point x="-166" y="845" type="line"/>
      <point x="-11" y="845" type="line" smooth="yes"/>
      <point x="124" y="845"/>
      <point x="84" y="720"/>
      <point x="84" y="635" type="curve" smooth="yes"/>
      <point x="84" y="564"/>
      <point x="193" y="464"/>
      <point x="359" y="464" type="curve" smooth="yes"/>
      <point x="550" y="464"/>
      <point x="777" y="602"/>
      <point x="777" y="780" type="curve" smooth="yes"/>
      <point x="777" y="948"/>
      <point x="692" y="996"/>
      <point x="623" y="995" type="curve" smooth="yes" name="hr02"/>
      <point x="558" y="994"/>
      <point x="498" y="951"/>
      <point x="432" y="889" type="curve" smooth="yes"/>
      <point x="353" y="816"/>
      <point x="346" y="737"/>
      <point x="345" y="564" type="curve"/>
      <point x="345" y="504"/>
      <point x="365" y="289"/>
      <point x="365" y="119" type="curve" smooth="yes"/>
      <point x="365" y="70"/>
      <point x="360" y="11"/>
      <point x="359" y="-8" type="curve"/>
      <point x="374" y="-16"/>
      <point x="390" y="-27"/>
      <point x="406" y="-34" type="curve"/>
      <point x="442" y="-14"/>
      <point x="452" y="-1"/>
      <point x="502" y="55" type="curve"/>
      <point x="508" y="75"/>
      <point x="511" y="107"/>
      <point x="511" y="131" type="curve" smooth="yes"/>
      <point x="511" y="314"/>
      <point x="487" y="609"/>
      <point x="488" y="673" type="curve" smooth="yes"/>
      <point x="490" y="830"/>
      <point x="536" y="865"/>
      <point x="558" y="865" type="curve" smooth="yes"/>
      <point x="601" y="865"/>
      <point x="638" y="813"/>
      <point x="638" y="763" type="curve" smooth="yes"/>
      <point x="638" y="634"/>
      <point x="579" y="587"/>
      <point x="421" y="585" type="curve" smooth="yes"/>
      <point x="322" y="584"/>
      <point x="227" y="653"/>
      <point x="227" y="702" type="curve" smooth="yes"/>
      <point x="227" y="823"/>
      <point x="292" y="970"/>
      <point x="72" y="970" type="curve" smooth="yes" name="hr03"/>
    </contour>
  </outline>
    <anchor name="L" x="419" y="-100"/>
</glyph>
<glyph name="uni1937" format="2">
  <advance width="359"/>
  <unicode hex="1937"/>
  <outline>
    <contour>
      <point x="62" y="29" type="curve"/>
      <point x="148" y="-38"/>
      <point x="227" y="-160"/>
      <point x="283" y="-270" type="curve"/>
      <point x="315" y="-248"/>
      <point x="339" y="-230"/>
      <point x="359" y="-213" type="curve"/>
      <point x="320" y="-86"/>
      <point x="263" y="29"/>
      <point x="181" y="113" type="curve"/>
      <point x="135" y="91"/>
      <point x="94" y="63"/>
    </contour>
  </outline>
</glyph>
<glyph name="uni1938" format="2">
  <advance width="578"/>
  <unicode hex="1938"/>
  <outline>
    <contour>
      <point x="21" y="646" type="curve" smooth="yes" name="hr00"/>
      <point x="22" y="536"/>
      <point x="50" y="508"/>
      <point x="104" y="462" type="curve" smooth="yes"/>
      <point x="140" y="431"/>
      <point x="170" y="421"/>
      <point x="218" y="421" type="curve" smooth="yes"/>
      <point x="315" y="421"/>
      <point x="518" y="556"/>
      <point x="518" y="706" type="curve" smooth="yes"/>
      <point x="518" y="785"/>
      <point x="514" y="903"/>
      <point x="514" y="964" type="curve"/>
      <point x="489" y="1000" type="line"/>
      <point x="442" y="974"/>
      <point x="403" y="933"/>
      <point x="366" y="885" type="curve"/>
      <point x="367" y="829"/>
      <point x="370" y="758"/>
      <point x="370" y="706" type="curve" smooth="yes"/>
      <point x="370" y="589"/>
      <point x="341" y="557"/>
      <point x="302" y="557" type="curve" smooth="yes"/>
      <point x="262" y="557"/>
      <point x="245" y="564"/>
      <point x="212" y="588" type="curve" smooth="yes"/>
      <point x="181" y="611"/>
      <point x="169" y="648"/>
      <point x="169" y="727" type="curve" smooth="yes"/>
      <point x="169" y="795"/>
      <point x="169" y="893"/>
      <point x="169" y="964" type="curve"/>
      <point x="144" y="1000" type="line"/>
      <point x="102" y="976"/>
      <point x="59" y="931"/>
      <point x="21" y="885" type="curve"/>
      <point x="21" y="823"/>
      <point x="20" y="708"/>
    </contour>
  </outline>
    <anchor name="L" x="273" y="-100"/>
</glyph>
<glyph name="uni193A" format="2">
  <advance width="0"/>
  <unicode hex="193A"/>
  <outline>
    <contour>
      <point x="-469" y="1385" type="curve" smooth="yes" name="hr00"/>
      <point x="-468" y="1359"/>
      <point x="-414" y="1298"/>
      <point x="-394" y="1298" type="curve" smooth="yes"/>
      <point x="-364" y="1298"/>
      <point x="-300" y="1345"/>
      <point x="-300" y="1356" type="curve" smooth="yes"/>
      <point x="-300" y="1388"/>
      <point x="-344" y="1463"/>
      <point x="-359" y="1463" type="curve" smooth="yes"/>
      <point x="-397" y="1463"/>
      <point x="-470" y="1409"/>
    </contour>
    <contour>
      <point x="-220" y="1385" type="curve" smooth="yes"/>
      <point x="-219" y="1359"/>
      <point x="-165" y="1298"/>
      <point x="-144" y="1298" type="curve" smooth="yes"/>
      <point x="-114" y="1298"/>
      <point x="-51" y="1345"/>
      <point x="-51" y="1356" type="curve" smooth="yes"/>
      <point x="-51" y="1388"/>
      <point x="-95" y="1463"/>
      <point x="-110" y="1463" type="curve" smooth="yes"/>
      <point x="-148" y="1463"/>
      <point x="-221" y="1409"/>
    </contour>
  </outline>
    <anchor name="_K" x="-260" y="1250"/>
</glyph>
<glyph name="uni1940" format="2">
  <advance width="936"/>
  <unicode hex="1940"/>
  <outline>
    <contour>
      <point x="474" y="1000" type="line" name="hr01"/>
      <point x="184" y="850"/>
      <point x="50" y="601"/>
      <point x="50" y="392" type="curve" smooth="yes"/>
      <point x="50" y="77"/>
      <point x="249" y="-34"/>
      <point x="436" y="-34" type="curve" smooth="yes"/>
      <point x="744" y="-34"/>
      <point x="896" y="163"/>
      <point x="896" y="307" type="curve" smooth="yes"/>
      <point x="896" y="438"/>
      <point x="827" y="529"/>
      <point x="703" y="529" type="curve" smooth="yes"/>
      <point x="574" y="529"/>
      <point x="412" y="371"/>
      <point x="412" y="227" type="curve" smooth="yes"/>
      <point x="412" y="159"/>
      <point x="448" y="96"/>
      <point x="514" y="78" type="curve"/>
      <point x="720" y="136" type="line"/>
      <point x="603" y="133"/>
      <point x="546" y="174"/>
      <point x="547" y="290" type="curve" smooth="yes"/>
      <point x="548" y="353"/>
      <point x="591" y="400"/>
      <point x="644" y="400" type="curve" smooth="yes"/>
      <point x="734" y="400"/>
      <point x="760" y="314"/>
      <point x="760" y="240" type="curve" smooth="yes"/>
      <point x="760" y="156"/>
      <point x="658" y="96"/>
      <point x="494" y="96" type="curve" smooth="yes" name="hr02"/>
      <point x="382" y="96"/>
      <point x="197" y="165"/>
      <point x="193" y="442" type="curve" smooth="yes"/>
      <point x="190" y="636"/>
      <point x="312" y="825"/>
      <point x="508" y="952" type="curve"/>
    </contour>
  </outline>
    <anchor name="L" x="468" y="-100"/>
    <anchor name="V" x="825" y="50"/>
    <anchor name="O" x="650" y="1050"/>
    <anchor name="U" x="480" y="1050"/>
    <anchor name="K" x="490" y="1050"/>
</glyph>
<glyph name="uni1944" format="2">
  <advance width="689"/>
  <unicode hex="1944"/>
  <outline>
    <contour>
      <point x="559" y="-207" type="curve" smooth="yes"/>
      <point x="559" y="-247"/>
      <point x="547" y="-281"/>
      <point x="524" y="-308" type="curve" smooth="yes"/>
      <point x="501" y="-336"/>
      <point x="472" y="-350"/>
      <point x="438" y="-350" type="curve" smooth="yes"/>
      <point x="379" y="-350"/>
      <point x="350" y="-317"/>
      <point x="350" y="-252" type="curve" smooth="yes"/>
      <point x="350" y="-212"/>
      <point x="362" y="-178"/>
      <point x="386" y="-150" type="curve" smooth="yes"/>
      <point x="410" y="-122"/>
      <point x="439" y="-108"/>
      <point x="472" y="-108" type="curve" smooth="yes"/>
      <point x="530" y="-108"/>
      <point x="559" y="-141"/>
    </contour>
    <contour>
      <point x="550" y="779" type="curve" smooth="yes"/>
      <point x="555" y="891"/>
      <point x="504" y="995"/>
      <point x="396" y="995" type="curve" smooth="yes"/>
      <point x="243" y="995"/>
      <point x="73" y="847"/>
      <point x="71" y="688" type="curve" smooth="yes"/>
      <point x="70" y="610"/>
      <point x="115" y="559"/>
      <point x="175" y="559" type="curve" smooth="yes"/>
      <point x="234" y="559"/>
      <point x="274" y="592"/>
      <point x="335" y="631" type="curve"/>
      <point x="325" y="683" type="line"/>
      <point x="285" y="669"/>
      <point x="260" y="665"/>
      <point x="246" y="665" type="curve" smooth="yes"/>
      <point x="205" y="665"/>
      <point x="189" y="709"/>
      <point x="189" y="742" type="curve" smooth="yes"/>
      <point x="189" y="818"/>
      <point x="247" y="875"/>
      <point x="317" y="875" type="curve" smooth="yes"/>
      <point x="369" y="875"/>
      <point x="403" y="827"/>
      <point x="401" y="776" type="curve" smooth="yes"/>
      <point x="393" y="608"/>
      <point x="386" y="375"/>
      <point x="390" y="-3" type="curve"/>
      <point x="390" y="-3"/>
      <point x="438" y="-34"/>
      <point x="438" y="-34" type="curve"/>
      <point x="468" y="-16"/>
      <point x="529" y="36"/>
      <point x="542" y="67" type="curve"/>
      <point x="532" y="350"/>
      <point x="537" y="506"/>
    </contour>
  </outline>
</glyph>
<glyph name="uni1945" format="2">
  <advance width="890"/>
  <unicode hex="1945"/>
  <outline>
    <contour>
      <point x="121" y="893" type="line" name="hr01"/>
      <point x="214" y="875"/>
      <point x="280" y="703"/>
      <point x="300" y="515" type="curve" smooth="yes"/>
      <point x="306" y="455"/>
      <point x="315" y="220"/>
      <point x="315" y="120" type="curve" smooth="yes"/>
      <point x="315" y="71"/>
      <point x="313" y="11"/>
      <point x="312" y="-8" type="curve"/>
      <point x="327" y="-16"/>
      <point x="343" y="-27"/>
      <point x="359" y="-34" type="curve"/>
      <point x="395" y="-14"/>
      <point x="414" y="5"/>
      <point x="464" y="61" type="curve"/>
      <point x="460" y="174"/>
      <point x="456" y="322"/>
      <point x="459" y="464" type="curve" smooth="yes"/>
      <point x="465" y="754"/>
      <point x="529" y="868"/>
      <point x="601" y="868" type="curve" smooth="yes"/>
      <point x="668" y="868"/>
      <point x="681" y="816"/>
      <point x="681" y="766" type="curve" smooth="yes" name="hr02"/>
      <point x="681" y="686"/>
      <point x="629" y="604"/>
      <point x="540" y="594" type="curve"/>
      <point x="540" y="583"/>
      <point x="551" y="542"/>
      <point x="557" y="525" type="curve"/>
      <point x="657" y="525"/>
      <point x="820" y="650"/>
      <point x="820" y="803" type="curve" smooth="yes"/>
      <point x="820" y="948"/>
      <point x="745" y="996"/>
      <point x="646" y="995" type="curve" smooth="yes"/>
      <point x="581" y="994"/>
      <point x="443" y="938"/>
      <point x="389" y="750" type="curve"/>
      <point x="368" y="861"/>
      <point x="303" y="963"/>
      <point x="252" y="995" type="curve"/>
      <point x="200" y="982"/>
      <point x="159" y="960"/>
      <point x="120" y="939" type="curve"/>
    </contour>
    <contour>
      <point x="489" y="-207" type="curve" smooth="yes"/>
      <point x="489" y="-247"/>
      <point x="477" y="-281"/>
      <point x="454" y="-308" type="curve" smooth="yes"/>
      <point x="431" y="-336"/>
      <point x="402" y="-350"/>
      <point x="368" y="-350" type="curve" smooth="yes"/>
      <point x="309" y="-350"/>
      <point x="280" y="-317"/>
      <point x="280" y="-252" type="curve" smooth="yes"/>
      <point x="280" y="-212"/>
      <point x="292" y="-178"/>
      <point x="316" y="-150" type="curve" smooth="yes"/>
      <point x="340" y="-122"/>
      <point x="369" y="-108"/>
      <point x="402" y="-108" type="curve" smooth="yes"/>
      <point x="460" y="-108"/>
      <point x="489" y="-141"/>
    </contour>
  </outline>
</glyph>
<glyph name="uni1946" format="2">
  <advance width="850"/>
  <unicode hex="1946"/>
  <outline>
    <contour>
      <point x="50" y="439" type="curve" smooth="yes" name="hr00"/>
      <point x="50" y="154"/>
      <point x="206" y="-34"/>
      <point x="395" y="-34" type="curve" smooth="yes"/>
      <point x="621" y="-34"/>
      <point x="800" y="243"/>
      <point x="800" y="525" type="curve" smooth="yes"/>
      <point x="800" y="810"/>
      <point x="652" y="995"/>
      <point x="475" y="995" type="curve" smooth="yes"/>
      <point x="246" y="995"/>
      <point x="50" y="725"/>
    </contour>
    <contour>
      <point x="206" y="527" type="curve" smooth="yes"/>
      <point x="206" y="733"/>
      <point x="307" y="865"/>
      <point x="407" y="865" type="curve" smooth="yes"/>
      <point x="563" y="865"/>
      <point x="642" y="670"/>
      <point x="642" y="440" type="curve" smooth="yes"/>
      <point x="642" y="235"/>
      <point x="562" y="96"/>
      <point x="453" y="96" type="curve" smooth="yes"/>
      <point x="347" y="96"/>
      <point x="206" y="193"/>
    </contour>
  </outline>
</glyph>
<glyph name="uni1947" format="2">
  <advance width="850"/>
  <unicode hex="1947"/>
  <outline>
    <contour>
      <point x="245" y="487" type="curve" smooth="yes"/>
      <point x="245" y="623"/>
      <point x="245" y="783"/>
      <point x="257" y="960" type="curve"/>
      <point x="221" y="1000" type="line"/>
      <point x="179" y="987"/>
      <point x="137" y="957"/>
      <point x="104" y="926" type="curve"/>
      <point x="100" y="804"/>
      <point x="100" y="589"/>
      <point x="100" y="468" type="curve" smooth="yes"/>
      <point x="100" y="103"/>
      <point x="247" y="-34"/>
      <point x="466" y="-34" type="curve" smooth="yes"/>
      <point x="663" y="-34"/>
      <point x="805" y="143"/>
      <point x="805" y="305" type="curve" smooth="yes"/>
      <point x="805" y="419"/>
      <point x="745" y="474"/>
      <point x="643" y="474" type="curve" smooth="yes"/>
      <point x="525" y="474"/>
      <point x="383" y="372"/>
      <point x="383" y="212" type="curve" smooth="yes"/>
      <point x="383" y="150"/>
      <point x="421" y="105"/>
      <point x="453" y="89" type="curve"/>
      <point x="511" y="75" type="line"/>
      <point x="580" y="75"/>
      <point x="641" y="139"/>
      <point x="641" y="145" type="curve"/>
      <point x="619" y="129"/>
      <point x="598" y="127"/>
      <point x="585" y="127" type="curve" smooth="yes"/>
      <point x="535" y="127"/>
      <point x="491" y="169"/>
      <point x="492" y="235" type="curve" smooth="yes"/>
      <point x="493" y="312"/>
      <point x="550" y="348"/>
      <point x="588" y="348" type="curve" smooth="yes"/>
      <point x="652" y="348"/>
      <point x="676" y="309"/>
      <point x="676" y="251" type="curve" smooth="yes"/>
      <point x="676" y="190"/>
      <point x="618" y="96"/>
      <point x="503" y="96" type="curve" smooth="yes"/>
      <point x="324" y="96"/>
      <point x="245" y="248"/>
    </contour>
  </outline>
</glyph>
<glyph name="uni1948" format="2">
  <advance width="850"/>
  <unicode hex="1948"/>
  <outline>
    <contour>
      <point x="700" y="-34" type="curve"/>
      <point x="740" y="-2"/>
      <point x="774" y="40"/>
      <point x="800" y="85" type="curve"/>
      <point x="700" y="271"/>
      <point x="539" y="730"/>
      <point x="505" y="968" type="curve"/>
      <point x="464" y="1000" type="line"/>
      <point x="417" y="969"/>
      <point x="375" y="936"/>
      <point x="336" y="898" type="curve"/>
      <point x="270" y="632"/>
      <point x="169" y="290"/>
      <point x="50" y="1" type="curve"/>
      <point x="84" y="-34" type="line"/>
      <point x="131" y="-17"/>
      <point x="165" y="1"/>
      <point x="198" y="25" type="curve"/>
      <point x="237" y="186"/>
      <point x="329" y="533"/>
      <point x="391" y="699" type="curve"/>
      <point x="459" y="478"/>
      <point x="581" y="125"/>
      <point x="670" y="-18" type="curve"/>
      <point x="677" y="-22"/>
      <point x="687" y="-30"/>
    </contour>
  </outline>
</glyph>
<glyph name="uni1949" format="2">
  <advance width="850"/>
  <unicode hex="1949"/>
  <outline>
    <contour>
      <point x="475" y="995" type="curve" smooth="yes"/>
      <point x="270" y="995"/>
      <point x="90" y="836"/>
      <point x="90" y="664" type="curve" smooth="yes"/>
      <point x="90" y="542"/>
      <point x="168" y="464"/>
      <point x="395" y="442" type="curve" smooth="yes"/>
      <point x="532" y="429"/>
      <point x="642" y="373"/>
      <point x="642" y="248" type="curve" smooth="yes"/>
      <point x="642" y="159"/>
      <point x="555" y="96"/>
      <point x="424" y="96" type="curve" smooth="yes"/>
      <point x="307" y="96"/>
      <point x="222" y="165"/>
      <point x="186" y="258" type="curve"/>
      <point x="145" y="264" type="line"/>
      <point x="118" y="218"/>
      <point x="96" y="131"/>
      <point x="90" y="104" type="curve"/>
      <point x="151" y="25"/>
      <point x="249" y="-34"/>
      <point x="387" y="-34" type="curve" smooth="yes"/>
      <point x="545" y="-34"/>
      <point x="790" y="111"/>
      <point x="790" y="320" type="curve" smooth="yes"/>
      <point x="790" y="472"/>
      <point x="697" y="549"/>
      <point x="459" y="576" type="curve" smooth="yes"/>
      <point x="294" y="595"/>
      <point x="224" y="648"/>
      <point x="224" y="720" type="curve" smooth="yes"/>
      <point x="224" y="816"/>
      <point x="277" y="876"/>
      <point x="396" y="876" type="curve" smooth="yes"/>
      <point x="472" y="876"/>
      <point x="560" y="845"/>
      <point x="598" y="802" type="curve"/>
      <point x="636" y="798" type="line"/>
      <point x="662" y="822"/>
      <point x="698" y="866"/>
      <point x="722" y="902" type="curve"/>
      <point x="676" y="960"/>
      <point x="576" y="995"/>
    </contour>
  </outline>
</glyph>
<glyph name="uni194A" format="2">
  <advance width="850"/>
  <unicode hex="194A"/>
  <outline>
    <contour>
      <point x="800" y="84" type="curve"/>
      <point x="613" y="391"/>
      <point x="388" y="691"/>
      <point x="195" y="980" type="curve"/>
      <point x="155" y="1000" type="line"/>
      <point x="122" y="976"/>
      <point x="80" y="937"/>
      <point x="50" y="901" type="curve"/>
      <point x="259" y="584"/>
      <point x="513" y="244"/>
      <point x="671" y="-21" type="curve"/>
      <point x="702" y="-34" type="line"/>
      <point x="731" y="-10"/>
      <point x="780" y="50"/>
    </contour>
    <contour>
      <point x="800" y="963" type="curve"/>
      <point x="767" y="1000" type="line"/>
      <point x="730" y="984"/>
      <point x="679" y="960"/>
      <point x="638" y="931" type="curve"/>
      <point x="464" y="594"/>
      <point x="296" y="337"/>
      <point x="50" y="-1" type="curve"/>
      <point x="91" y="-34" type="line"/>
      <point x="131" y="-23"/>
      <point x="198" y="3"/>
      <point x="223" y="20" type="curve"/>
      <point x="415" y="360"/>
      <point x="623" y="679"/>
    </contour>
  </outline>
</glyph>
<glyph name="uni194B" format="2">
  <advance width="850"/>
  <unicode hex="194B"/>
  <outline>
    <contour>
      <point x="50" y="476" type="curve" smooth="yes" name="hr01"/>
      <point x="50" y="135"/>
      <point x="180" y="-34"/>
      <point x="451" y="-34" type="curve" smooth="yes"/>
      <point x="643" y="-34"/>
      <point x="780" y="139"/>
      <point x="780" y="265" type="curve" smooth="yes"/>
      <point x="780" y="366"/>
      <point x="708" y="384"/>
      <point x="648" y="384" type="curve" smooth="yes"/>
      <point x="517" y="384"/>
      <point x="418" y="254"/>
      <point x="418" y="162" type="curve" smooth="yes"/>
      <point x="418" y="100"/>
      <point x="446" y="75"/>
      <point x="478" y="59" type="curve"/>
      <point x="536" y="45" type="line"/>
      <point x="605" y="45"/>
      <point x="666" y="119"/>
      <point x="666" y="125" type="curve"/>
      <point x="644" y="109"/>
      <point x="615" y="109"/>
      <point x="602" y="109" type="curve" smooth="yes"/>
      <point x="552" y="109"/>
      <point x="511" y="133"/>
      <point x="511" y="173" type="curve" smooth="yes"/>
      <point x="511" y="223"/>
      <point x="560" y="279"/>
      <point x="600" y="279" type="curve" smooth="yes"/>
      <point x="640" y="279"/>
      <point x="671" y="246"/>
      <point x="671" y="211" type="curve" smooth="yes"/>
      <point x="671" y="172"/>
      <point x="623" y="76"/>
      <point x="508" y="76" type="curve" smooth="yes"/>
      <point x="260" y="76"/>
      <point x="195" y="260"/>
      <point x="194" y="508" type="curve" smooth="yes"/>
      <point x="193" y="747"/>
      <point x="312" y="895"/>
      <point x="466" y="895" type="curve" smooth="yes"/>
      <point x="582" y="895"/>
      <point x="651" y="840"/>
      <point x="651" y="761" type="curve" smooth="yes"/>
      <point x="651" y="705"/>
      <point x="594" y="670"/>
      <point x="564" y="670" type="curve" smooth="yes"/>
      <point x="527" y="670"/>
      <point x="489" y="691"/>
      <point x="489" y="738" type="curve" smooth="yes"/>
      <point x="489" y="799"/>
      <point x="552" y="849"/>
      <point x="609" y="845" type="curve" smooth="yes" name="hr02"/>
      <point x="632" y="843"/>
      <point x="655" y="835"/>
      <point x="677" y="822" type="curve"/>
      <point x="663" y="870"/>
      <point x="610" y="903"/>
      <point x="559" y="907" type="curve"/>
      <point x="404" y="849"/>
      <point x="387" y="744"/>
      <point x="388" y="692" type="curve" smooth="yes"/>
      <point x="389" y="602"/>
      <point x="451" y="563"/>
      <point x="526" y="563" type="curve" smooth="yes"/>
      <point x="633" y="563"/>
      <point x="770" y="698"/>
      <point x="770" y="802" type="curve" smooth="yes"/>
      <point x="770" y="923"/>
      <point x="670" y="996"/>
      <point x="514" y="995" type="curve" smooth="yes"/>
      <point x="306" y="994"/>
      <point x="50" y="829"/>
    </contour>
  </outline>
</glyph>
<glyph name="uni194F" format="2">
  <advance width="850"/>
  <unicode hex="194F"/>
  <outline>
    <contour>
      <point x="172" y="970" type="curve" name="hr00"/>
      <point x="118" y="932"/>
      <point x="71" y="881"/>
      <point x="40" y="845" type="curve"/>
      <point x="118" y="664"/>
      <point x="180" y="496"/>
      <point x="237" y="337" type="curve"/>
      <point x="273" y="306" type="line"/>
      <point x="309" y="323"/>
      <point x="335" y="348"/>
      <point x="358" y="369" type="curve"/>
      <point x="407" y="528"/>
      <point x="469" y="690"/>
      <point x="527" y="860" type="curve"/>
      <point x="428" y="866" type="line"/>
      <point x="392" y="752"/>
      <point x="345" y="611"/>
      <point x="315" y="512" type="curve"/>
      <point x="284" y="593"/>
      <point x="208" y="775"/>
      <point x="170" y="855" type="curve"/>
      <point x="310" y="855"/>
      <point x="531" y="855"/>
      <point x="662" y="855" type="curve"/>
      <point x="578" y="568"/>
      <point x="471" y="276"/>
      <point x="351" y="-0" type="curve"/>
      <point x="391" y="-34" type="line"/>
      <point x="434" y="-8"/>
      <point x="474" y="15"/>
      <point x="513" y="58" type="curve"/>
      <point x="612" y="421"/>
      <point x="705" y="684"/>
      <point x="810" y="932" type="curve"/>
      <point x="785" y="970" type="line"/>
      <point x="588" y="970"/>
      <point x="373" y="970"/>
    </contour>
  </outline>
</glyph>
<glyph name="endash" format="2">
  <advance width="961"/>
  <unicode hex="2013"/>
  <outline>
    <contour>
      <point x="120" y="532" type="line"/>
      <point x="91" y="512"/>
      <point x="54" y="473"/>
      <point x="31" y="444" type="curve"/>
      <point x="61" y="408" type="line"/>
      <point x="814" y="408" type="line"/>
      <point x="863" y="433"/>
      <point x="887" y="455"/>
      <point x="923" y="492" type="curve"/>
      <point x="897" y="532" type="line"/>
    </contour>
  </outline>
</glyph>
